<?xml version="1.0" encoding="UTF-8" standalone="no"?>
<!DOCTYPE svg PUBLIC "-//W3C//DTD SVG 1.1//EN" "http://www.w3.org/Graphics/SVG/1.1/DTD/svg11.dtd">
<!-- Generated by Microsoft Visio, SVG Export hosting3.svg Page-1 -->
<svg xmlns="http://www.w3.org/2000/svg" xmlns:xlink="http://www.w3.org/1999/xlink" xmlns:ev="http://www.w3.org/2001/xml-events"
		xmlns:v="http://schemas.microsoft.com/visio/2003/SVGExtensions/" width="4.66032in" height="2.65085in"
		viewBox="0 0 335.543 190.861" xml:space="preserve" color-interpolation-filters="sRGB" class="st10">
	<v:documentProperties v:langID="1033" v:viewMarkup="false"/>

	<style type="text/css">
	<![CDATA[
		.st1 {fill:#d7e3bf;stroke:#000000;stroke-linecap:round;stroke-linejoin:round;stroke-width:0.24}
		.st2 {fill:#000000;font-family:Calibri;font-size:0.833336em}
		.st3 {fill:#ebf1df;stroke:#000000;stroke-linecap:round;stroke-linejoin:round;stroke-width:0.24}
		.st4 {fill:#fff2cc;stroke:#000000;stroke-linecap:round;stroke-linejoin:round;stroke-width:0.24}
		.st5 {visibility:visible}
		.st6 {fill:#000000;fill-opacity:0.4;filter:url(#filter_2.6666667461395);stroke:#000000;stroke-linecap:round;stroke-linejoin:round;stroke-opacity:0.4}
		.st7 {fill:#f9c499;stroke:#000000;stroke-linecap:round;stroke-linejoin:round;stroke-width:0.24}
		.st8 {font-size:1em}
		.st9 {fill:#b7dde8;stroke:#000000;stroke-linecap:round;stroke-linejoin:round;stroke-width:0.24}
		.st10 {fill:none;fill-rule:evenodd;font-size:12px;overflow:visible;stroke-linecap:square;stroke-miterlimit:3}
	]]>
	</style>

	<defs id="Filters">
		<filter id="filter_2.6666667461395">
			<feGaussianBlur stdDeviation="2.6666667461395"/>
		</filter>
	</defs>
	<g v:mID="0" v:index="1" v:groupContext="foregroundPage">
		<title>Page-1</title>
		<v:pageProperties v:drawingScale="1" v:pageScale="1" v:drawingUnits="19" v:shadowOffsetX="9" v:shadowOffsetY="-9"/>
		<g id="shape7-1" v:mID="7" v:groupContext="shape" transform="translate(0.12,-28.7413)">
			<title>Circle.7</title>
			<desc>Blazor JS Interop</desc>
			<v:userDefs>
				<v:ud v:nameU="visVersion" v:val="VT0(15):26"/>
				<v:ud v:nameU="visMasterStencil" v:prompt="" v:val="VT4(Basic_U.vssx)"/>
			</v:userDefs>
			<v:textBlock v:margins="rect(4,4,4,4)"/>
			<v:textRect cx="81" cy="109.861" width="141.75" height="121.5"/>
			<path d="M0 109.86 A81 81 0 0 1 162 109.86 A81 81 0 1 1 0 109.86 Z" class="st1"/>
			<text x="47.17" y="58.86" class="st2" v:langID="1033"><v:paragraph v:horizAlign="1"/><v:tabList/>Blazor JS Interop<v:newlineChar/><v:newlineChar/><v:newlineChar/><v:newlineChar/><v:newlineChar/><v:newlineChar/><v:newlineChar/><v:newlineChar/><v:newlineChar/></text>		</g>
		<g id="shape11-4" v:mID="11" v:groupContext="shape" transform="translate(133.253,-102.991)">
			<title>Striped Arrow.11</title>
			<desc>AJAX</desc>
			<v:userDefs>
				<v:ud v:nameU="visVersion" v:prompt="" v:val="VT0(15):26"/>
			</v:userDefs>
			<v:textBlock v:margins="rect(4,4,4,4)"/>
			<v:textRect cx="44.0243" cy="190.861" width="88.05" height="0"/>
			<path d="M6 183.66 L73.65 183.66 L73.65 176.46 L88.05 190.86 L73.65 205.26 L73.65 198.06 L6 198.06 L6 183.66 ZM2.4 183.66
						 L4.8 183.66 L4.8 198.06 L2.4 198.06 L2.4 183.66 ZM0 183.66 L1.2 183.66 L1.2 198.06 L0 198.06 L0 183.66 Z"
					class="st3"/>
			<text x="34.05" y="193.86" class="st2" v:langID="1033"><v:paragraph v:horizAlign="1"/><v:tabList/>AJAX</text>		</g>
		<g id="shape12-7" v:mID="12" v:groupContext="shape" transform="translate(26.4382,-37.7413)">
			<title>Circle.12</title>
			<desc>JavaScript</desc>
			<v:userDefs>
				<v:ud v:nameU="visVersion" v:val="VT0(15):26"/>
				<v:ud v:nameU="visMasterStencil" v:prompt="" v:val="VT4(Basic_U.vssx)"/>
			</v:userDefs>
			<v:textBlock v:margins="rect(4,4,4,4)"/>
			<v:textRect cx="54" cy="136.861" width="94.5" height="81"/>
			<path d="M0 136.86 A54 54 0 0 1 108 136.86 A54 54 0 1 1 0 136.86 Z" class="st3"/>
			<text x="33.75" y="103.86" class="st2" v:langID="1033"><v:paragraph v:horizAlign="1"/><v:tabList/>JavaScript<v:newlineChar/><v:newlineChar/><v:newlineChar/><v:newlineChar/><v:newlineChar/><v:newlineChar/></text>		</g>
		<g id="shape8-10" v:mID="8" v:groupContext="shape" transform="translate(50.4382,-49.7413)">
			<title>Circle.8</title>
			<desc>DOM</desc>
			<v:userDefs>
				<v:ud v:nameU="visVersion" v:val="VT0(15):26"/>
				<v:ud v:nameU="visMasterStencil" v:prompt="" v:val="VT4(Basic_U.vssx)"/>
			</v:userDefs>
			<v:textBlock v:margins="rect(4,4,4,4)"/>
			<v:textRect cx="30" cy="160.861" width="52.51" height="45"/>
			<path d="M0 160.86 A30 30 0 0 1 60 160.86 A30 30 0 1 1 0 160.86 Z" class="st4"/>
			<text x="19.34" y="163.86" class="st2" v:langID="1033"><v:paragraph v:horizAlign="1"/><v:tabList/>DOM</text>		</g>
		<g id="shape13-13" v:mID="13" v:groupContext="shape" transform="translate(149.302,-138.991)">
			<title>Striped Arrow.13</title>
			<desc>AJAX</desc>
			<v:userDefs>
				<v:ud v:nameU="visVersion" v:prompt="" v:val="VT0(15):26"/>
			</v:userDefs>
			<v:textBlock v:margins="rect(4,4,4,4)"/>
			<v:textRect cx="36" cy="190.861" width="72" height="0"/>
			<path d="M6 183.66 L57.6 183.66 L57.6 176.46 L72 190.86 L57.6 205.26 L57.6 198.06 L6 198.06 L6 183.66 ZM2.4 183.66 L4.8
						 183.66 L4.8 198.06 L2.4 198.06 L2.4 183.66 ZM0 183.66 L1.2 183.66 L1.2 198.06 L0 198.06 L0 183.66 Z"
					class="st1"/>
			<text x="26.02" y="193.86" class="st2" v:langID="1033"><v:paragraph v:horizAlign="1"/><v:tabList/>AJAX</text>		</g>
		<g id="group14-16" transform="translate(221.302,-6.24132)" v:mID="14" v:groupContext="group">
			<v:userDefs>
				<v:ud v:nameU="visVersion" v:prompt="" v:val="VT0(15):26"/>
				<v:ud v:nameU="visMasterStencil" v:prompt="" v:val="VT4(Basic_U.vssx)"/>
			</v:userDefs>
			<title>Can.14</title>
			<desc>Web Server .NET Core</desc>
			<g id="shape15-17" v:mID="15" v:groupContext="shape">
				<title>Sheet.15</title>
				<v:userDefs>
					<v:ud v:nameU="ControlHalfHeight" v:prompt="" v:val="VT0(0.125):1"/>
					<v:ud v:nameU="FillForegnd" v:prompt="" v:val="VT5(1)"/>
					<v:ud v:nameU="ControlHalfHeight" v:prompt="" v:val="VT0(0.20833333333333):1"/>
					<v:ud v:nameU="FillForegnd" v:prompt="" v:val="VT5(#f9c499)"/>
				</v:userDefs>
				<g id="shadow15-18" v:groupContext="shadow" v:shadowOffsetX="2.12132" v:shadowOffsetY="-2.12132" v:shadowType="1"
						transform="matrix(1,0,0,1,2.12132,2.12132)" class="st5">
					<path d="M0 175.86 A54 15 -180 1 0 108 175.86 L108 115.86 L0 115.86 L0 175.86 Z" class="st6"/>
				</g>
				<path d="M0 175.86 A54 15 -180 1 0 108 175.86 L108 115.86 L0 115.86 L0 175.86 Z" class="st7"/>
			</g>
			<g id="shape14-22" v:mID="14" v:groupContext="groupContent">
				<v:textBlock v:margins="rect(4,4,4,4)"/>
				<v:textRect cx="54" cy="145.861" width="108" height="90"/>
				<g id="shadow14-23" v:groupContext="shadow" v:shadowOffsetX="2.12132" v:shadowOffsetY="-2.12132" v:shadowType="1"
						transform="matrix(1,0,0,1,2.12132,2.12132)" class="st5">
					<ellipse cx="54" cy="115.861" rx="54" ry="15" class="st6"/>
				</g>
				<ellipse cx="54" cy="115.861" rx="54" ry="15" class="st7"/>
				<text x="30.29" y="154.86" class="st2" v:langID="1033"><v:paragraph v:horizAlign="1"/><v:tabList/><v:newlineChar/><v:newlineChar/>Web Server<v:newlineChar/><tspan
							x="33.97" dy="1.2em" class="st8">.NET Core</tspan></text>			</g>
		</g>
		<g id="group18-29" transform="translate(221.302,-69.2413)" v:mID="18" v:groupContext="group">
			<v:userDefs>
				<v:ud v:nameU="visVersion" v:prompt="" v:val="VT0(15):26"/>
				<v:ud v:nameU="visMasterStencil" v:prompt="" v:val="VT4(Basic_U.vssx)"/>
			</v:userDefs>
			<title>Can.18</title>
			<desc>Server</desc>
			<g id="shape19-30" v:mID="19" v:groupContext="shape">
				<title>Sheet.19</title>
				<v:userDefs>
					<v:ud v:nameU="ControlHalfHeight" v:prompt="" v:val="VT0(0.125):1"/>
					<v:ud v:nameU="FillForegnd" v:prompt="" v:val="VT5(1)"/>
					<v:ud v:nameU="ControlHalfHeight" v:prompt="" v:val="VT0(0.16458333333333):1"/>
					<v:ud v:nameU="FillForegnd" v:prompt="" v:val="VT5(#b7dde8)"/>
				</v:userDefs>
				<g id="shadow19-31" v:groupContext="shadow" v:shadowOffsetX="2.12132" v:shadowOffsetY="-2.12132" v:shadowType="1"
						transform="matrix(1,0,0,1,2.12132,2.12132)" class="st5">
					<path d="M0 179.01 A54 11.85 -180 1 0 108 179.01 L108 84.21 L0 84.21 L0 179.01 Z" class="st6"/>
				</g>
				<path d="M0 179.01 A54 11.85 -180 1 0 108 179.01 L108 84.21 L0 84.21 L0 179.01 Z" class="st9"/>
			</g>
			<g id="shape18-35" v:mID="18" v:groupContext="groupContent">
				<v:textBlock v:margins="rect(4,4,4,4)"/>
				<v:textRect cx="54" cy="131.611" width="108" height="118.5"/>
				<g id="shadow18-36" v:groupContext="shadow" v:shadowOffsetX="2.12132" v:shadowOffsetY="-2.12132" v:shadowType="1"
						transform="matrix(1,0,0,1,2.12132,2.12132)" class="st5">
					<ellipse cx="54" cy="84.2113" rx="54" ry="11.85" class="st6"/>
				</g>
				<ellipse cx="54" cy="84.2113" rx="54" ry="11.85" class="st9"/>
				<text x="40.98" y="134.61" class="st2" v:langID="1033"><v:paragraph v:horizAlign="1"/><v:tabList/>Server</text>			</g>
		</g>
		<g id="shape34-41" v:mID="34" v:groupContext="shape" transform="translate(141.204,-52.4376) rotate(0.840937)">
			<title>Simple Double Arrow</title>
			<desc>SignalR</desc>
			<v:userDefs>
				<v:ud v:nameU="visVersion" v:val="VT0(15):26"/>
				<v:ud v:nameU="ArrowType" v:prompt="" v:val="VT0(3):26"/>
			</v:userDefs>
			<v:textBlock v:margins="rect(4,4,4,4)"/>
			<v:textRect cx="41.4538" cy="190.861" width="82.91" height="0"/>
			<path d="M0 190.86 L12 178.87 L12 184.86 L70.91 184.86 L70.91 178.87 L82.91 190.86 L70.91 202.86 L70.91 196.86 L12 196.86
						 L12 202.86 L0 190.86 Z" class="st7"/>
			<text x="26.77" y="193.86" class="st2" v:langID="1033"><v:paragraph v:horizAlign="1"/><v:tabList/>SignalR</text>		</g>
	</g>
</svg>
