<?xml version="1.0" encoding="UTF-8" standalone="no"?>
<!DOCTYPE svg PUBLIC "-//W3C//DTD SVG 1.1//EN" "http://www.w3.org/Graphics/SVG/1.1/DTD/svg11.dtd">
<!-- Generated by Microsoft Visio, SVG Export hosting1.svg Page-1 -->
<svg xmlns="http://www.w3.org/2000/svg" xmlns:xlink="http://www.w3.org/1999/xlink" xmlns:ev="http://www.w3.org/2001/xml-events"
		xmlns:v="http://schemas.microsoft.com/visio/2003/SVGExtensions/" width="4.66032in" height="1.98944in"
		viewBox="0 0 335.543 143.24" xml:space="preserve" color-interpolation-filters="sRGB" class="st7">
	<v:documentProperties v:langID="1033" v:viewMarkup="false"/>

	<style type="text/css">
	<![CDATA[
		.st1 {fill:#ebf1df;stroke:#000000;stroke-linecap:round;stroke-linejoin:round;stroke-width:0.24}
		.st2 {fill:#000000;font-family:Calibri;font-size:0.833336em}
		.st3 {fill:#fff2cc;stroke:#000000;stroke-linecap:round;stroke-linejoin:round;stroke-width:0.24}
		.st4 {visibility:visible}
		.st5 {fill:#000000;fill-opacity:0.4;filter:url(#filter_2.6666667461395);stroke:#000000;stroke-linecap:round;stroke-linejoin:round;stroke-opacity:0.4}
		.st6 {fill:#b7dde8;stroke:#000000;stroke-linecap:round;stroke-linejoin:round;stroke-width:0.24}
		.st7 {fill:none;fill-rule:evenodd;font-size:12px;overflow:visible;stroke-linecap:square;stroke-miterlimit:3}
	]]>
	</style>

	<defs id="Filters">
		<filter id="filter_2.6666667461395">
			<feGaussianBlur stdDeviation="2.6666667461395"/>
		</filter>
	</defs>
	<g v:mID="0" v:index="1" v:groupContext="foregroundPage">
		<title>Page-1</title>
		<v:pageProperties v:drawingScale="1" v:pageScale="1" v:drawingUnits="19" v:shadowOffsetX="9" v:shadowOffsetY="-9"/>
		<g id="shape2-1" v:mID="2" v:groupContext="shape" transform="translate(0.12,-6.24133)">
			<title>Circle.2</title>
			<desc>JavaScript</desc>
			<v:userDefs>
				<v:ud v:nameU="visVersion" v:val="VT0(15):26"/>
				<v:ud v:nameU="visMasterStencil" v:prompt="" v:val="VT4(Basic_U.vssx)"/>
			</v:userDefs>
			<v:textBlock v:margins="rect(4,4,4,4)"/>
			<v:textRect cx="68.1818" cy="75.0582" width="119.32" height="102.273"/>
			<path d="M0 75.06 A68.1818 68.1818 0 1 1 136.36 75.06 A68.1818 68.1818 0 0 1 0 75.06 Z" class="st1"/>
			<text x="47.94" y="36.06" class="st2" v:langID="1033"><v:paragraph v:horizAlign="1"/><v:tabList/>JavaScript<v:newlineChar/><v:newlineChar/><v:newlineChar/><v:newlineChar/><v:newlineChar/><v:newlineChar/><v:newlineChar/></text>		</g>
		<g id="shape1-4" v:mID="1" v:groupContext="shape" transform="translate(32.3018,-16.605)">
			<title>Circle</title>
			<desc>DOM</desc>
			<v:userDefs>
				<v:ud v:nameU="visVersion" v:val="VT0(15):26"/>
				<v:ud v:nameU="visMasterStencil" v:prompt="" v:val="VT4(Basic_U.vssx)"/>
			</v:userDefs>
			<v:textBlock v:margins="rect(4,4,4,4)"/>
			<v:textRect cx="36" cy="107.24" width="63" height="54"/>
			<path d="M0 107.24 A36 36 0 0 1 72 107.24 A36 36 0 1 1 0 107.24 Z" class="st3"/>
			<text x="25.34" y="110.24" class="st2" v:langID="1033"><v:paragraph v:horizAlign="1"/><v:tabList/>DOM</text>		</g>
		<g id="group3-7" transform="translate(221.302,-6.24133)" v:mID="3" v:groupContext="group">
			<v:userDefs>
				<v:ud v:nameU="visVersion" v:prompt="" v:val="VT0(15):26"/>
				<v:ud v:nameU="visMasterStencil" v:prompt="" v:val="VT4(Basic_U.vssx)"/>
			</v:userDefs>
			<title>Can</title>
			<desc>Server</desc>
			<g id="shape4-8" v:mID="4" v:groupContext="shape">
				<title>Sheet.4</title>
				<v:userDefs>
					<v:ud v:nameU="ControlHalfHeight" v:prompt="" v:val="VT0(0.125):1"/>
					<v:ud v:nameU="FillForegnd" v:prompt="" v:val="VT5(1)"/>
					<v:ud v:nameU="ControlHalfHeight" v:prompt="" v:val="VT0(0.1875):1"/>
					<v:ud v:nameU="FillForegnd" v:prompt="" v:val="VT5(#b7dde8)"/>
				</v:userDefs>
				<g id="shadow4-9" v:groupContext="shadow" v:shadowOffsetX="2.12132" v:shadowOffsetY="-2.12132" v:shadowType="1"
						transform="matrix(1,0,0,1,2.12132,2.12132)" class="st4">
					<path d="M0 129.74 A54 13.5 -180 1 0 108 129.74 L108 21.74 L0 21.74 L0 129.74 Z" class="st5"/>
				</g>
				<path d="M0 129.74 A54 13.5 -180 1 0 108 129.74 L108 21.74 L0 21.74 L0 129.74 Z" class="st6"/>
			</g>
			<g id="shape3-13" v:mID="3" v:groupContext="groupContent">
				<v:textBlock v:margins="rect(4,4,4,4)"/>
				<v:textRect cx="54" cy="75.74" width="108" height="135"/>
				<g id="shadow3-14" v:groupContext="shadow" v:shadowOffsetX="2.12132" v:shadowOffsetY="-2.12132" v:shadowType="1"
						transform="matrix(1,0,0,1,2.12132,2.12132)" class="st4">
					<ellipse cx="54" cy="21.74" rx="54" ry="13.5" class="st5"/>
				</g>
				<ellipse cx="54" cy="21.74" rx="54" ry="13.5" class="st6"/>
				<text x="40.98" y="78.74" class="st2" v:langID="1033"><v:paragraph v:horizAlign="1"/><v:tabList/>Server</text>			</g>
		</g>
		<g id="shape6-19" v:mID="6" v:groupContext="shape" transform="translate(137.635,-74.4185) rotate(0.460567)">
			<title>Striped Arrow</title>
			<desc>AJAX</desc>
			<v:userDefs>
				<v:ud v:nameU="visVersion" v:prompt="" v:val="VT0(15):26"/>
			</v:userDefs>
			<v:textBlock v:margins="rect(4,4,4,4)"/>
			<v:textRect cx="42.4105" cy="143.24" width="84.83" height="0"/>
			<path d="M6 136.04 L70.42 136.04 L70.42 128.84 L84.82 143.24 L70.42 157.64 L70.42 150.44 L6 150.44 L6 136.04 ZM2.4 136.04
						 L4.8 136.04 L4.8 150.44 L2.4 150.44 L2.4 136.04 ZM0 136.04 L1.2 136.04 L1.2 150.44 L0 150.44 L0 136.04 Z"
					class="st1"/>
			<text x="32.43" y="146.24" class="st2" v:langID="1033"><v:paragraph v:horizAlign="1"/><v:tabList/>AJAX</text>		</g>
	</g>
</svg>
