<?xml version="1.0" encoding="UTF-8" standalone="no"?>
<!DOCTYPE svg PUBLIC "-//W3C//DTD SVG 1.1//EN" "http://www.w3.org/Graphics/SVG/1.1/DTD/svg11.dtd">
<!-- Generated by Microsoft Visio, SVG Export hosting2.svg Page-1 -->
<svg xmlns="http://www.w3.org/2000/svg" xmlns:xlink="http://www.w3.org/1999/xlink" xmlns:ev="http://www.w3.org/2001/xml-events"
		xmlns:v="http://schemas.microsoft.com/visio/2003/SVGExtensions/" width="4.66032in" height="2.25333in"
		viewBox="0 0 335.543 162.24" xml:space="preserve" color-interpolation-filters="sRGB" class="st8">
	<v:documentProperties v:langID="1033" v:viewMarkup="false"/>

	<style type="text/css">
	<![CDATA[
		.st1 {visibility:visible}
		.st2 {fill:#000000;fill-opacity:0.4;filter:url(#filter_2.6666667461395);stroke:#000000;stroke-linecap:round;stroke-linejoin:round;stroke-opacity:0.4}
		.st3 {fill:#b7dde8;stroke:#000000;stroke-linecap:round;stroke-linejoin:round;stroke-width:0.24}
		.st4 {fill:#000000;font-family:Calibri;font-size:0.833336em}
		.st5 {fill:#d7e3bf;stroke:#000000;stroke-linecap:round;stroke-linejoin:round;stroke-width:0.24}
		.st6 {fill:#ebf1df;stroke:#000000;stroke-linecap:round;stroke-linejoin:round;stroke-width:0.24}
		.st7 {fill:#fff2cc;stroke:#000000;stroke-linecap:round;stroke-linejoin:round;stroke-width:0.24}
		.st8 {fill:none;fill-rule:evenodd;font-size:12px;overflow:visible;stroke-linecap:square;stroke-miterlimit:3}
	]]>
	</style>

	<defs id="Filters">
		<filter id="filter_2.6666667461395">
			<feGaussianBlur stdDeviation="2.6666667461395"/>
		</filter>
	</defs>
	<g v:mID="0" v:index="1" v:groupContext="foregroundPage">
		<title>Page-1</title>
		<v:pageProperties v:drawingScale="1" v:pageScale="1" v:drawingUnits="19" v:shadowOffsetX="9" v:shadowOffsetY="-9"/>
		<g id="group9-1" transform="translate(221.302,-15.87)" v:mID="9" v:groupContext="group">
			<v:userDefs>
				<v:ud v:nameU="visVersion" v:prompt="" v:val="VT0(15):26"/>
				<v:ud v:nameU="visMasterStencil" v:prompt="" v:val="VT4(Basic_U.vssx)"/>
			</v:userDefs>
			<title>Can.9</title>
			<desc>Server</desc>
			<g id="shape10-2" v:mID="10" v:groupContext="shape">
				<title>Sheet.10</title>
				<v:userDefs>
					<v:ud v:nameU="ControlHalfHeight" v:prompt="" v:val="VT0(0.125):1"/>
					<v:ud v:nameU="FillForegnd" v:prompt="" v:val="VT5(1)"/>
					<v:ud v:nameU="ControlHalfHeight" v:prompt="" v:val="VT0(0.1875):1"/>
					<v:ud v:nameU="FillForegnd" v:prompt="" v:val="VT5(#b7dde8)"/>
				</v:userDefs>
				<g id="shadow10-3" v:groupContext="shadow" v:shadowOffsetX="2.12132" v:shadowOffsetY="-2.12132" v:shadowType="1"
						transform="matrix(1,0,0,1,2.12132,2.12132)" class="st1">
					<path d="M0 148.74 A54 13.5 -180 1 0 108 148.74 L108 40.74 L0 40.74 L0 148.74 Z" class="st2"/>
				</g>
				<path d="M0 148.74 A54 13.5 -180 1 0 108 148.74 L108 40.74 L0 40.74 L0 148.74 Z" class="st3"/>
			</g>
			<g id="shape9-7" v:mID="9" v:groupContext="groupContent">
				<v:textBlock v:margins="rect(4,4,4,4)"/>
				<v:textRect cx="54" cy="94.74" width="108" height="135"/>
				<g id="shadow9-8" v:groupContext="shadow" v:shadowOffsetX="2.12132" v:shadowOffsetY="-2.12132" v:shadowType="1"
						transform="matrix(1,0,0,1,2.12132,2.12132)" class="st1">
					<ellipse cx="54" cy="40.74" rx="54" ry="13.5" class="st2"/>
				</g>
				<ellipse cx="54" cy="40.74" rx="54" ry="13.5" class="st3"/>
				<text x="40.98" y="97.74" class="st4" v:langID="1033"><v:paragraph v:horizAlign="1"/><v:tabList/>Server</text>			</g>
		</g>
		<g id="shape27-13" v:mID="27" v:groupContext="shape" transform="translate(0.12,-0.12)">
			<title>Circle.27</title>
			<desc>Blazer JS Interop</desc>
			<v:userDefs>
				<v:ud v:nameU="visVersion" v:val="VT0(15):26"/>
				<v:ud v:nameU="visMasterStencil" v:prompt="" v:val="VT4(Basic_U.vssx)"/>
			</v:userDefs>
			<v:textBlock v:margins="rect(4,4,4,4)"/>
			<v:textRect cx="81" cy="81.24" width="141.75" height="121.5"/>
			<path d="M0 81.24 A81 81 0 0 1 162 81.24 A81 81 0 1 1 0 81.24 Z" class="st5"/>
			<text x="47.32" y="30.24" class="st4" v:langID="1033"><v:paragraph v:horizAlign="1"/><v:tabList/>Blazer JS Interop<v:newlineChar/><v:newlineChar/><v:newlineChar/><v:newlineChar/><v:newlineChar/><v:newlineChar/><v:newlineChar/><v:newlineChar/><v:newlineChar/></text>		</g>
		<g id="shape28-16" v:mID="28" v:groupContext="shape" transform="translate(134.438,-63.12)">
			<title>Striped Arrow.28</title>
			<desc>AJAX</desc>
			<v:userDefs>
				<v:ud v:nameU="visVersion" v:prompt="" v:val="VT0(15):26"/>
			</v:userDefs>
			<v:textBlock v:margins="rect(4,4,4,4)"/>
			<v:textRect cx="43.4318" cy="162.24" width="86.87" height="0"/>
			<path d="M6 155.04 L72.46 155.04 L72.46 147.84 L86.86 162.24 L72.46 176.64 L72.46 169.44 L6 169.44 L6 155.04 ZM2.4 155.04
						 L4.8 155.04 L4.8 169.44 L2.4 169.44 L2.4 155.04 ZM0 155.04 L1.2 155.04 L1.2 169.44 L0 169.44 L0 155.04 Z"
					class="st6"/>
			<text x="33.46" y="165.24" class="st4" v:langID="1033"><v:paragraph v:horizAlign="1"/><v:tabList/>AJAX</text>		</g>
		<g id="shape29-19" v:mID="29" v:groupContext="shape" transform="translate(26.4382,-9.12)">
			<title>Circle.29</title>
			<desc>JavaScript</desc>
			<v:userDefs>
				<v:ud v:nameU="visVersion" v:val="VT0(15):26"/>
				<v:ud v:nameU="visMasterStencil" v:prompt="" v:val="VT4(Basic_U.vssx)"/>
			</v:userDefs>
			<v:textBlock v:margins="rect(4,4,4,4)"/>
			<v:textRect cx="54" cy="108.24" width="94.5" height="81"/>
			<path d="M0 108.24 A54 54 0 0 1 108 108.24 A54 54 0 1 1 0 108.24 Z" class="st6"/>
			<text x="33.75" y="75.24" class="st4" v:langID="1033"><v:paragraph v:horizAlign="1"/><v:tabList/>JavaScript<v:newlineChar/><v:newlineChar/><v:newlineChar/><v:newlineChar/><v:newlineChar/><v:newlineChar/></text>		</g>
		<g id="shape30-22" v:mID="30" v:groupContext="shape" transform="translate(50.4382,-21.12)">
			<title>Circle.30</title>
			<desc>DOM</desc>
			<v:userDefs>
				<v:ud v:nameU="visVersion" v:val="VT0(15):26"/>
				<v:ud v:nameU="visMasterStencil" v:prompt="" v:val="VT4(Basic_U.vssx)"/>
			</v:userDefs>
			<v:textBlock v:margins="rect(4,4,4,4)"/>
			<v:textRect cx="30" cy="132.24" width="52.51" height="45"/>
			<path d="M0 132.24 A30 30 0 0 1 60 132.24 A30 30 0 1 1 0 132.24 Z" class="st7"/>
			<text x="19.34" y="135.24" class="st4" v:langID="1033"><v:paragraph v:horizAlign="1"/><v:tabList/>DOM</text>		</g>
		<g id="shape31-25" v:mID="31" v:groupContext="shape" transform="translate(160.516,-97.1596)">
			<title>Striped Arrow.31</title>
			<desc>AJAX</desc>
			<v:userDefs>
				<v:ud v:nameU="visVersion" v:prompt="" v:val="VT0(15):26"/>
			</v:userDefs>
			<v:textBlock v:margins="rect(4,4,4,4)"/>
			<v:textRect cx="30.3929" cy="162.24" width="60.79" height="0"/>
			<path d="M6 155.04 L46.39 155.04 L46.39 147.84 L60.79 162.24 L46.39 176.64 L46.39 169.44 L6 169.44 L6 155.04 ZM2.4 155.04
						 L4.8 155.04 L4.8 169.44 L2.4 169.44 L2.4 155.04 ZM0 155.04 L1.2 155.04 L1.2 169.44 L0 169.44 L0 155.04 Z"
					class="st5"/>
			<text x="20.42" y="165.24" class="st4" v:langID="1033"><v:paragraph v:horizAlign="1"/><v:tabList/>AJAX</text>		</g>
	</g>
</svg>
