<?xml version="1.0" encoding="UTF-8" standalone="no"?>
<!DOCTYPE svg PUBLIC "-//W3C//DTD SVG 1.1//EN" "http://www.w3.org/Graphics/SVG/1.1/DTD/svg11.dtd">
<!-- Generated by Microsoft Visio, SVG Export mvu.svg Page-1 -->
<svg xmlns="http://www.w3.org/2000/svg" xmlns:xlink="http://www.w3.org/1999/xlink" xmlns:ev="http://www.w3.org/2001/xml-events"
		xmlns:v="http://schemas.microsoft.com/visio/2003/SVGExtensions/" width="6.03125in" height="4.03646in"
		viewBox="0 0 434.25 290.625" xml:space="preserve" color-interpolation-filters="sRGB" class="st23">
	<v:documentProperties v:langID="1033" v:viewMarkup="false">
		<v:userDefs>
			<v:ud v:nameU="DisableSpdActionTags" v:prompt="" v:val="VT0(0):26"/>
		</v:userDefs>
	</v:documentProperties>

	<style type="text/css">
	<![CDATA[
		.st1 {fill:url(#grad0-4)}
		.st2 {stroke:#547495;stroke-width:0.75}
		.st3 {fill:#feffff;font-family:Calibri;font-size:1.16666em}
		.st4 {fill:none;stroke:none;stroke-width:0.25}
		.st5 {fill:#e5b9b5;font-family:Calibri;font-size:1.00001em}
		.st6 {fill:#bdd0e9;stroke:#c7c8c8;stroke-width:0.25}
		.st7 {fill:#4672c4;stroke:#c7c8c8;stroke-width:0.25}
		.st8 {fill:#ffffff}
		.st9 {fill:#4672c4;font-family:Calibri;font-size:1.16666em}
		.st10 {fill:url(#grad0-30);stroke:#8a98ab;stroke-width:0.75}
		.st11 {fill:#feffff;font-family:Calibri;font-size:0.833336em}
		.st12 {fill:#61973d;stroke:#507e32;stroke-width:0.75}
		.st13 {fill:#feffff;font-family:Calibri;font-size:1.00001em}
		.st14 {fill:url(#grad0-4);stroke:#547395;stroke-width:0.75}
		.st15 {fill:#304e85;stroke:#31528f;stroke-width:0.25}
		.st16 {fill:#3c63ac;stroke:#30518f;stroke-width:0.75}
		.st17 {marker-end:url(#mrkr4-59);stroke:#4672c4;stroke-linecap:round;stroke-linejoin:round;stroke-width:1}
		.st18 {fill:#4672c4;fill-opacity:1;stroke:#4672c4;stroke-opacity:1;stroke-width:0.28409090909091}
		.st19 {fill:url(#grad0-68);stroke:#ae5a21;stroke-width:0.75}
		.st20 {fill:#000000;font-family:Calibri;font-size:1.00001em}
		.st21 {marker-end:url(#mrkr4-97);stroke:#90aadb;stroke-linecap:round;stroke-linejoin:round;stroke-width:6}
		.st22 {fill:#90aadb;fill-opacity:1;stroke:#90aadb;stroke-opacity:1;stroke-width:0.70422535211268}
		.st23 {fill:none;fill-rule:evenodd;font-size:12px;overflow:visible;stroke-linecap:square;stroke-miterlimit:3}
	]]>
	</style>

	<defs id="Patterns_And_Gradients">
		<linearGradient id="grad0-4" x1="0" y1="0" x2="1" y2="0" gradientTransform="rotate(250 0.5 0.5)">
			<stop offset="0" stop-color="#668bb3" stop-opacity="1"/>
			<stop offset="0.48" stop-color="#668bb3" stop-opacity="1"/>
			<stop offset="0.82" stop-color="#759fcc" stop-opacity="1"/>
		</linearGradient>
		<linearGradient id="grad0-30" x1="0" y1="0" x2="1" y2="0" gradientTransform="rotate(250 0.5 0.5)">
			<stop offset="0" stop-color="#a6b6cd" stop-opacity="1"/>
			<stop offset="0.48" stop-color="#a6b6cd" stop-opacity="1"/>
			<stop offset="0.82" stop-color="#bdd0e9" stop-opacity="1"/>
		</linearGradient>
		<linearGradient id="grad0-68" x1="0" y1="0" x2="1" y2="0" gradientTransform="rotate(250 0.5 0.5)">
			<stop offset="0" stop-color="#d06d29" stop-opacity="1"/>
			<stop offset="0.48" stop-color="#d06d29" stop-opacity="1"/>
			<stop offset="0.82" stop-color="#ed7d31" stop-opacity="1"/>
		</linearGradient>
	</defs>
	<defs id="Markers">
		<g id="lend4">
			<path d="M 2 1 L 0 0 L 2 -1 L 2 1 " style="stroke:none"/>
		</g>
		<marker id="mrkr4-59" class="st18" v:arrowType="4" v:arrowSize="2" v:setback="7.04" refX="-7.04" orient="auto"
				markerUnits="strokeWidth" overflow="visible">
			<use xlink:href="#lend4" transform="scale(-3.52,-3.52) "/>
		</marker>
		<marker id="mrkr4-97" class="st22" v:arrowType="4" v:arrowSize="2" v:setback="2.84" refX="-2.84" orient="auto"
				markerUnits="strokeWidth" overflow="visible">
			<use xlink:href="#lend4" transform="scale(-1.42,-1.42) "/>
		</marker>
	</defs>
	<g v:mID="0" v:index="1" v:groupContext="foregroundPage">
		<title>Page-1</title>
		<v:pageProperties v:drawingScale="1" v:pageScale="1" v:drawingUnits="0" v:shadowOffsetX="9" v:shadowOffsetY="-9"/>
		<v:layer v:name="Flowchart" v:index="0"/>
		<v:layer v:name="Connector" v:index="1"/>
		<g id="shape80-1" v:mID="80" v:groupContext="shape" v:layerMember="0" transform="translate(35.25,-0.75)">
			<title>Database.80</title>
			<desc>Model</desc>
			<v:custProps>
				<v:cp v:nameU="Cost" v:lbl="Cost" v:type="7" v:format="@" v:langID="1033"/>
				<v:cp v:nameU="Duration" v:lbl="Duration" v:type="2" v:langID="1033"/>
				<v:cp v:nameU="Resources" v:lbl="Resources" v:langID="1033"/>
			</v:custProps>
			<v:userDefs>
				<v:ud v:nameU="visVersion" v:val="VT0(15):26"/>
			</v:userDefs>
			<v:textBlock v:margins="rect(2,2,2,2)"/>
			<v:textRect cx="42.75" cy="240.45" width="85.5" height="100.35"/>
			<path d="M0 173.18 L0 282.08 A42.75 8.55 -180 1 0 85.5 282.08 L85.5 173.18 A42.75 8.55 -180 0 0 0 173.18 Z" class="st1"/>
			<path d="M0 173.18 L0 282.08 A42.75 8.55 -180 1 0 85.5 282.08 L85.5 173.18 A42.75 8.55 -180 0 0 0 173.18" class="st2"/>
			<path d="M0 173.18 A42.75 8.55 -180 0 0 85.5 173.18" class="st2"/>
			<path d="M0 177.45 A42.75 8.55 -180 1 0 85.5 177.45" class="st2"/>
			<path d="M0 181.73 A42.75 8.55 -180 1 0 85.5 181.73" class="st2"/>
			<text x="24.31" y="244.65" class="st3" v:langID="1033"><v:paragraph v:horizAlign="1"/><v:tabList/>Model</text>		</g>
		<g id="shape214-10" v:mID="214" v:groupContext="shape" transform="translate(2,-75.25)">
			<title>Sheet.214</title>
			<desc>Immutable</desc>
			<v:textBlock v:margins="rect(4,4,4,4)"/>
			<v:textRect cx="76" cy="280.625" width="152" height="20"/>
			<rect x="0" y="270.625" width="152" height="20" class="st4"/>
			<text x="49.35" y="284.23" class="st5" v:langID="1033"><v:paragraph v:horizAlign="1"/><v:tabList/>Immutable</text>		</g>
		<g id="group220-13" transform="translate(55.5,-115.781)" v:mID="220" v:groupContext="group">
			<v:userDefs>
				<v:ud v:nameU="visVersion" v:prompt="" v:val="VT0(15):26"/>
				<v:ud v:nameU="visMasterStencil" v:prompt="" v:val="VT4(Basic_U.vssx)"/>
			</v:userDefs>
			<title>Can</title>
			<g id="shape221-14" v:mID="221" v:groupContext="shape">
				<title>Sheet.221</title>
				<v:userDefs>
					<v:ud v:nameU="ControlHalfHeight" v:prompt="" v:val="VT0(0.125):1"/>
					<v:ud v:nameU="FillForegnd" v:prompt="" v:val="VT5(1)"/>
					<v:ud v:nameU="ControlHalfHeight" v:prompt="" v:val="VT0(0.096484373085374):1"/>
					<v:ud v:nameU="FillForegnd" v:prompt="" v:val="VT5(#bdd0e9)"/>
				</v:userDefs>
				<path d="M0 283.68 A22.5 6.94687 -180 1 0 45 283.68 L45 228.1 L0 228.1 L0 283.68 Z" class="st6"/>
			</g>
			<g id="shape220-16" v:mID="220" v:groupContext="groupContent">
				<ellipse cx="22.5" cy="228.103" rx="22.5" ry="6.94687" class="st6"/>
			</g>
		</g>
		<g id="group88-18" transform="translate(6,-175.125)" v:mID="88" v:groupContext="group" v:layerMember="0">
			<v:userDefs>
				<v:ud v:nameU="visVersion" v:prompt="" v:val="VT0(15):26"/>
				<v:ud v:nameU="ConnGap" v:prompt="" v:val="VT0(0.083333333333333):0"/>
			</v:userDefs>
			<title>Document.88</title>
			<g id="shape89-19" v:mID="89" v:groupContext="shape" v:layerMember="0">
				<title>Sheet.89</title>
				<path d="M144 232.34 L108.2 218.63 L0 218.63 L0 290.63 L144 290.63 L144 232.34 Z" class="st7"/>
			</g>
			<g id="shape90-21" v:mID="90" v:groupContext="shape" v:layerMember="0" transform="translate(26.25,-14.4844)">
				<title>Sheet.90</title>
				<v:userDefs>
					<v:ud v:nameU="SurroundingRegionColor" v:prompt="" v:val="VT0(1):26"/>
					<v:ud v:nameU="SurroundingRegionColor" v:prompt="" v:val="VT5(#4672c4)"/>
				</v:userDefs>
				<path d="M54 290.63 L90.75 290.63 L90.75 288.8 L54 288.8 L54 290.63 ZM0 282.05 L90.75 282.05 L90.75 280.22 L0 280.22
							 L0 282.05 ZM0 273.47 L90.75 273.47 L90.75 271.64 L0 271.64 L0 273.47 ZM0 264.89 L90.75 264.89 L90.75
							 263.06 L0 263.06 L0 264.89 ZM0 256.31 L36.75 256.31 L36.75 254.48 L0 254.48 L0 256.31 ZM0 247.73 L36.75
							 247.73 L36.75 245.91 L0 245.91 L0 247.73 ZM80.91 233.59 L80.91 246.86 L115.56 246.86 L80.91 233.59 Z"
						class="st8"/>
			</g>
		</g>
		<g id="shape102-24" v:mID="102" v:groupContext="shape" transform="translate(37.5,-249.375)">
			<title>Sheet.102</title>
			<desc>View</desc>
			<v:textBlock v:margins="rect(4,4,4,4)"/>
			<v:textRect cx="36" cy="279.375" width="72" height="22.5"/>
			<rect x="0" y="268.125" width="72" height="22.5" class="st4"/>
			<text x="21.94" y="283.58" class="st9" v:langID="1033"><v:paragraph v:horizAlign="1"/><v:tabList/>View</text>		</g>
		<g id="shape103-27" v:mID="103" v:groupContext="shape" transform="translate(177,-167.531)">
			<title>Pentagon</title>
			<desc>Command</desc>
			<v:userDefs>
				<v:ud v:nameU="visVersion" v:val="VT0(15):26"/>
				<v:ud v:nameU="visMasterStencil" v:prompt="" v:val="VT4(Basic_U.vssx)"/>
			</v:userDefs>
			<v:textBlock v:margins="rect(4,4,4,4)"/>
			<v:textRect cx="42.75" cy="255.891" width="85.5" height="69.4687"/>
			<path d="M42.75 221.16 L-2.2 247.69 L14.97 290.63 L70.53 290.63 L87.7 247.69 L42.75 221.16 Z" class="st10"/>
			<text x="21.81" y="258.89" class="st11" v:langID="1033"><v:paragraph v:horizAlign="1"/><v:tabList/>Command</text>		</g>
		<g id="group106-32" transform="translate(163.5,-35.625)" v:mID="106" v:groupContext="group" v:layerMember="0">
			<v:custProps>
				<v:cp v:nameU="Cost" v:lbl="Cost" v:type="7" v:format="@" v:langID="1033"/>
				<v:cp v:nameU="Duration" v:lbl="Duration" v:type="2" v:langID="1033"/>
				<v:cp v:nameU="Resources" v:lbl="Resources" v:langID="1033"/>
			</v:custProps>
			<v:userDefs>
				<v:ud v:nameU="AntiScale" v:val="VT0(1):26"/>
				<v:ud v:nameU="visVersion" v:val="VT0(15):26"/>
				<v:ud v:nameU="Scale" v:val="VT0(1):26"/>
			</v:userDefs>
			<title>Divided process 2</title>
			<desc>Update</desc>
			<g id="shape107-33" v:mID="107" v:groupContext="shape" v:layerMember="0" transform="translate(-0.105751,-13.6)">
				<title>Sheet.107</title>
				<path d="M0.11 290.63 L112.61 290.63 L112.61 243.76 A7.81574 7.81574 -180 0 0 103.78 234.76 L9 234.76 A8.10414 8.10414
							 -180 0 0 0 243.76 L0.11 290.63 Z" class="st12"/>
			</g>
			<g id="shape108-35" v:mID="108" v:groupContext="shape" v:layerMember="0" transform="translate(0.00305268,0)">
				<title>Sheet.108</title>
				<path d="M-0 281.63 A7.99847 7.99847 -180 0 0 9 290.63 L103.5 290.63 A7.97668 7.97668 -180 0 0 112.5 281.63 L112.5
							 277.03 L0 277.03 L0 281.63 Z" class="st12"/>
			</g>
			<g id="shape106-37" v:mID="106" v:groupContext="groupContent" v:layerMember="0">
				<v:textBlock v:margins="rect(2,2,2,2)"/>
				<v:textRect cx="56.25" cy="255.891" width="112.5" height="69.4687"/>
				<text x="38.23" y="265.49" class="st13" v:langID="1033"><v:paragraph v:horizAlign="1"/><v:tabList/><v:newlineChar/>Update</text>			</g>
		</g>
		<g id="group194-39" transform="translate(289.5,-171.75)" v:mID="194" v:groupContext="group">
			<title>Sheet.194</title>
			<g id="shape192-40" v:mID="192" v:groupContext="shape">
				<title>Ellipse</title>
				<desc>Process</desc>
				<v:userDefs>
					<v:ud v:nameU="visVersion" v:val="VT0(15):26"/>
					<v:ud v:nameU="visMasterStencil" v:prompt="" v:val="VT4(Basic_U.vssx)"/>
				</v:userDefs>
				<v:textBlock v:margins="rect(4,4,4,4)"/>
				<v:textRect cx="72" cy="251.25" width="126" height="68.9063"/>
				<path d="M0 251.25 A72 39.375 0 0 1 144 251.25 A72 39.375 0 1 1 0 251.25 Z" class="st14"/>
				<text x="56.52" y="254.25" class="st11" v:langID="1033"><v:paragraph v:horizAlign="1"/><v:tabList/>Process</text>			</g>
			<g id="group188-44" transform="translate(63,0)" v:mID="188" v:groupContext="group">
				<v:userDefs>
					<v:ud v:nameU="BarWidth" v:prompt="" v:val="VT0(0.2):0"/>
					<v:ud v:nameU="ArrowTipY" v:prompt="" v:val="VT0(0.2):0"/>
					<v:ud v:nameU="ArcHeight" v:prompt="" v:val="VT0(0.7):0"/>
					<v:ud v:nameU="visVersion" v:prompt="" v:val="VT0(15):26"/>
				</v:userDefs>
				<title>Curved Left Arrow</title>
				<g id="shape189-45" v:mID="189" v:groupContext="shape">
					<title>Sheet.189</title>
					<v:userDefs>
						<v:ud v:nameU="ArcHeight" v:prompt="" v:val="VT0(0.7):0"/>
						<v:ud v:nameU="BarWidth" v:prompt="" v:val="VT0(0.2):0"/>
						<v:ud v:nameU="ArrowBackX" v:prompt="" v:val="VT0(0.2):0"/>
						<v:ud v:nameU="ArrowTipY" v:prompt="" v:val="VT0(0.2):0"/>
						<v:ud v:nameU="FillForegnd" v:prompt="" v:val="VT0(1):26"/>
						<v:ud v:nameU="FillForegnd" v:prompt="" v:val="VT5(#3d64ac)"/>
					</v:userDefs>
					<path d="M0 276.23 L14.4 261.83 L14.4 269.03 A57.5915 25.1963 -180 0 0 72 243.83 L72 258.23 A57.5915 25.1963
								 0 0 1 14.4 283.43 L14.4 290.63 L0 276.23 Z" class="st15"/>
				</g>
				<g id="shape188-47" v:mID="188" v:groupContext="groupContent">
					<path d="M0 218.63 L0 233.03 A71.9894 25.1963 0 0 1 72 258.23 L72 243.83 A71.9894 25.1963 -180 0 0 0 218.63 Z"
							class="st16"/>
				</g>
			</g>
			<g id="group190-49" transform="translate(81,502.5) rotate(180)" v:mID="190" v:groupContext="group">
				<v:userDefs>
					<v:ud v:nameU="BarWidth" v:prompt="" v:val="VT0(0.2):0"/>
					<v:ud v:nameU="ArrowTipY" v:prompt="" v:val="VT0(0.2):0"/>
					<v:ud v:nameU="ArcHeight" v:prompt="" v:val="VT0(0.7):0"/>
					<v:ud v:nameU="visVersion" v:prompt="" v:val="VT0(15):26"/>
				</v:userDefs>
				<title>Curved Left Arrow.190</title>
				<g id="shape191-50" v:mID="191" v:groupContext="shape">
					<title>Sheet.191</title>
					<v:userDefs>
						<v:ud v:nameU="ArcHeight" v:prompt="" v:val="VT0(0.7):0"/>
						<v:ud v:nameU="BarWidth" v:prompt="" v:val="VT0(0.2):0"/>
						<v:ud v:nameU="ArrowBackX" v:prompt="" v:val="VT0(0.2):0"/>
						<v:ud v:nameU="ArrowTipY" v:prompt="" v:val="VT0(0.2):0"/>
						<v:ud v:nameU="FillForegnd" v:prompt="" v:val="VT0(1):26"/>
						<v:ud v:nameU="FillForegnd" v:prompt="" v:val="VT5(#3d64ac)"/>
					</v:userDefs>
					<path d="M0 276.23 L14.4 261.83 L14.4 269.03 A57.5915 25.1963 -180 0 0 72 243.83 L72 258.23 A57.5915 25.1963
								 0 0 1 14.4 283.43 L14.4 290.63 L0 276.23 Z" class="st15"/>
				</g>
				<g id="shape190-52" v:mID="190" v:groupContext="groupContent">
					<path d="M0 218.63 L0 233.03 A71.9894 25.1963 0 0 1 72 258.23 L72 243.83 A71.9894 25.1963 -180 0 0 0 218.63 Z"
							class="st16"/>
				</g>
			</g>
		</g>
		<g id="shape195-54" v:mID="195" v:groupContext="shape" v:layerMember="1" transform="translate(156,-219.795)">
			<title>Dynamic connector</title>
			<path d="M0 299.3 L11.76 299.71" class="st17"/>
		</g>
		<g id="shape196-60" v:mID="196" v:groupContext="shape" v:layerMember="1" transform="translate(289.5,-219.795)">
			<title>Dynamic connector.196</title>
			<path d="M0 299.3 L-17.76 299.77" class="st17"/>
		</g>
		<g id="shape197-65" v:mID="197" v:groupContext="shape" transform="translate(181.5,-258.375)">
			<title>Hexagon</title>
			<desc>Side Effect</desc>
			<v:userDefs>
				<v:ud v:nameU="visVersion" v:val="VT0(15):26"/>
				<v:ud v:nameU="visMasterStencil" v:prompt="" v:val="VT4(Basic_U.vssx)"/>
			</v:userDefs>
			<v:textBlock v:margins="rect(4,4,4,4)"/>
			<v:textRect cx="36" cy="274.875" width="72" height="31.5"/>
			<path d="M56.78 259.13 L15.22 259.13 L-5.57 274.88 L15.22 290.63 L56.78 290.63 L77.57 274.88 L56.78 259.13 Z"
					class="st19"/>
			<text x="14.54" y="277.88" class="st11" v:langID="1033"><v:paragraph v:horizAlign="1"/><v:tabList/>Side Effect</text>		</g>
		<g id="shape203-70" v:mID="203" v:groupContext="shape" v:layerMember="1" transform="translate(210.75,-237)">
			<title>Dynamic connector.203</title>
			<path d="M9 290.63 L9 276.29" class="st17"/>
		</g>
		<g id="shape204-75" v:mID="204" v:groupContext="shape" transform="translate(510.375,117.75) rotate(90)">
			<title>Striped Arrow</title>
			<v:userDefs>
				<v:ud v:nameU="visVersion" v:prompt="" v:val="VT0(15):26"/>
			</v:userDefs>
			<path d="M6 265.88 L72 265.88 L72 241.13 L99 290.63 L72 340.13 L72 315.38 L6 315.38 L6 265.88 ZM2.4 265.88 L4.8 265.88
						 L4.8 315.38 L2.4 315.38 L2.4 265.88 ZM0 265.88 L1.2 265.88 L1.2 315.38 L0 315.38 L0 265.88 Z" class="st16"/>
		</g>
		<g id="shape207-77" v:mID="207" v:groupContext="shape" transform="translate(170.25,-130.125)">
			<title>Sheet.207</title>
			<desc>Message</desc>
			<v:textBlock v:margins="rect(4,4,4,4)"/>
			<v:textRect cx="49.5" cy="279.375" width="99" height="22.5"/>
			<rect x="0" y="268.125" width="99" height="22.5" class="st4"/>
			<text x="28.01" y="282.98" class="st13" v:langID="1033"><v:paragraph v:horizAlign="1"/><v:tabList/>Message</text>		</g>
		<g id="shape208-80" v:mID="208" v:groupContext="shape" transform="translate(123,-7.5)">
			<title>Sheet.208</title>
			<desc>New Model</desc>
			<v:textBlock v:margins="rect(4,4,4,4)"/>
			<v:textRect cx="49.5" cy="279.375" width="99" height="22.5"/>
			<rect x="0" y="268.125" width="99" height="22.5" class="st4"/>
			<text x="21.19" y="282.98" class="st20" v:langID="1033"><v:paragraph v:horizAlign="1"/><v:tabList/>New Model</text>		</g>
		<g id="shape209-83" v:mID="209" v:groupContext="shape" transform="translate(116.25,-64.875)">
			<title>Striped Arrow.209</title>
			<v:userDefs>
				<v:ud v:nameU="visVersion" v:prompt="" v:val="VT0(15):26"/>
			</v:userDefs>
			<path d="M6 283.43 L57.6 283.43 L57.6 276.23 L72 290.63 L57.6 305.03 L57.6 297.83 L6 297.83 L6 283.43 ZM2.4 283.43 L4.8
						 283.43 L4.8 297.83 L2.4 297.83 L2.4 283.43 ZM0 283.43 L1.2 283.43 L1.2 297.83 L0 297.83 L0 283.43 Z"
					class="st16"/>
		</g>
		<g id="shape205-85" v:mID="205" v:groupContext="shape" transform="translate(226.5,534.375) rotate(180)">
			<title>Bent Arrow</title>
			<v:userDefs>
				<v:ud v:nameU="visVersion" v:prompt="" v:val="VT0(15):26"/>
			</v:userDefs>
			<v:textBlock v:margins="rect(4,4,4,4)"/>
			<path d="M0 290.63 L13.5 290.63 A21.5931 21.5931 0 0 1 35.1 269.03 L91.35 269.03 L91.35 276.68 L105.75 262.28 L91.35
						 247.88 L91.35 255.53 L35.1 255.53 A35.0888 35.0888 -180 0 0 0 290.63 Z" class="st16"/>
		</g>
		<g id="shape210-87" v:mID="210" v:groupContext="shape" transform="translate(78,465.469) rotate(180)">
			<title>Simple Arrow</title>
			<v:userDefs>
				<v:ud v:nameU="visVersion" v:val="VT0(15):26"/>
				<v:ud v:nameU="ArrowType" v:prompt="" v:val="VT0(2):26"/>
			</v:userDefs>
		</g>
		<g id="shape211-88" v:mID="211" v:groupContext="shape" transform="translate(118.5,-7.5)">
			<title>Sheet.211</title>
			<desc>New Model</desc>
			<v:textBlock v:margins="rect(4,4,4,4)"/>
			<v:textRect cx="49.5" cy="279.375" width="99" height="22.5"/>
			<rect x="0" y="268.125" width="99" height="22.5" class="st4"/>
			<text x="25.91" y="282.38" class="st11" v:langID="1033"><v:paragraph v:horizAlign="1"/><v:tabList/>New Model</text>		</g>
		<g id="shape222-91" v:mID="222" v:groupContext="shape" transform="translate(78,465.469) rotate(180)">
			<title>Simple Arrow.222</title>
			<v:userDefs>
				<v:ud v:nameU="visVersion" v:val="VT0(15):26"/>
				<v:ud v:nameU="ArrowType" v:prompt="" v:val="VT0(2):26"/>
			</v:userDefs>
		</g>
		<g id="shape224-92" v:mID="224" v:groupContext="shape" v:layerMember="1" transform="translate(69,-115.781)">
			<title>Dynamic connector.224</title>
			<path d="M9 290.63 L9 252.09" class="st21"/>
		</g>
		<g id="shape92-98" v:mID="92" v:groupContext="shape" transform="translate(19.5,-133.5)">
			<title>Sheet.92</title>
			<desc>Generate View</desc>
			<v:textBlock v:margins="rect(4,4,4,4)"/>
			<v:textRect cx="49.5" cy="279.375" width="99" height="22.5"/>
			<rect x="0" y="268.125" width="99" height="22.5" class="st4"/>
			<text x="13.22" y="282.98" class="st20" v:langID="1033"><v:paragraph v:horizAlign="1"/><v:tabList/>Generate View</text>		</g>
	</g>
</svg>
