<?xml version="1.0" encoding="UTF-8" standalone="no"?>
<!DOCTYPE svg PUBLIC "-//W3C//DTD SVG 1.1//EN" "http://www.w3.org/Graphics/SVG/1.1/DTD/svg11.dtd">
<!-- Generated by Microsoft Visio, SVG Export mvvm.svg Page-1 -->
<svg xmlns="http://www.w3.org/2000/svg" xmlns:xlink="http://www.w3.org/1999/xlink" xmlns:ev="http://www.w3.org/2001/xml-events"
		xmlns:v="http://schemas.microsoft.com/visio/2003/SVGExtensions/" width="4.56597in" height="3.66046in"
		viewBox="0 0 328.75 263.553" xml:space="preserve" color-interpolation-filters="sRGB" class="st24">
	<v:documentProperties v:langID="1033" v:viewMarkup="false">
		<v:userDefs>
			<v:ud v:nameU="DisableSpdActionTags" v:prompt="" v:val="VT0(0):26"/>
		</v:userDefs>
	</v:documentProperties>

	<style type="text/css">
	<![CDATA[
		.st1 {fill:url(#grad0-4)}
		.st2 {stroke:#547495;stroke-width:0.75}
		.st3 {fill:#feffff;font-family:Calibri;font-size:1.16666em}
		.st4 {fill:#ff00ff;fill-opacity:0}
		.st5 {stroke:#c7c8c8;stroke-opacity:0;stroke-width:0.72}
		.st6 {fill:url(#grad0-17);stroke:#ffffff;stroke-width:0.72}
		.st7 {fill:url(#grad11-21)}
		.st8 {stroke:#000000;stroke-width:0.72}
		.st9 {stroke:#c8c8c8;stroke-width:1.5}
		.st10 {fill:#4672c4;font-family:Calibri;font-size:1.16666em}
		.st11 {fill:#b5c6e7;stroke:#c7c8c8;stroke-width:0.25}
		.st12 {fill:#4672c4;stroke:#c7c8c8;stroke-width:0.25}
		.st13 {fill:#ffffff}
		.st14 {fill:none;stroke:none;stroke-width:0.25}
		.st15 {fill:url(#grad0-46)}
		.st16 {stroke:none;stroke-width:0.75}
		.st17 {stroke:#8a98ab;stroke-width:0.75}
		.st18 {fill:url(#grad0-46);stroke:none;stroke-width:0.75}
		.st19 {fill:#000000;font-family:Calibri;font-size:0.833336em}
		.st20 {fill:#3c63ac;stroke:#30518f;stroke-width:0.75}
		.st21 {fill:#000000;font-family:Calibri;font-size:1.00001em}
		.st22 {fill:#a8d08d;font-family:Calibri;font-size:1.00001em}
		.st23 {fill:#538135;font-family:Calibri;font-size:1.00001em}
		.st24 {fill:none;fill-rule:evenodd;font-size:12px;overflow:visible;stroke-linecap:square;stroke-miterlimit:3}
	]]>
	</style>

	<defs id="Patterns_And_Gradients">
		<linearGradient id="grad0-4" x1="0" y1="0" x2="1" y2="0" gradientTransform="rotate(250 0.5 0.5)">
			<stop offset="0" stop-color="#668bb3" stop-opacity="1"/>
			<stop offset="0.48" stop-color="#668bb3" stop-opacity="1"/>
			<stop offset="0.82" stop-color="#759fcc" stop-opacity="1"/>
		</linearGradient>
		<linearGradient id="grad0-17" x1="0" y1="0" x2="1" y2="0" gradientTransform="rotate(270 0.5 0.5)">
			<stop offset="0" stop-color="#668ace" stop-opacity="1"/>
			<stop offset="1" stop-color="#626262" stop-opacity="1"/>
		</linearGradient>
		<pattern id="grad11-21" x="0" y="0" width="1" height="1" patternContentUnits="objectBoundingBox">
			<path d="M 0 1 L 0 0 L 1 0 z" style="fill:url(#grad0-22)"/>
			<path d="M 0 1 L 1 1 L 1 0 z" style="fill:url(#grad0-23)"/>
		</pattern>
		<linearGradient id="grad0-22" x1="0" y1="0" x2="1" y2="0" gradientTransform="rotate(180 0.5 0.5)">
			<stop offset="0" stop-color="#ffffff" stop-opacity="1"/>
			<stop offset="1" stop-color="#c0c0c0" stop-opacity="1"/>
		</linearGradient>
		<linearGradient id="grad0-23" x1="0" y1="0" x2="1" y2="0" gradientTransform="rotate(90 0.5 0.5)">
			<stop offset="0" stop-color="#ffffff" stop-opacity="1"/>
			<stop offset="1" stop-color="#c0c0c0" stop-opacity="1"/>
		</linearGradient>
		<linearGradient id="grad0-46" x1="0" y1="0" x2="1" y2="0" gradientTransform="rotate(250 0.5 0.5)">
			<stop offset="0" stop-color="#a6b6cd" stop-opacity="1"/>
			<stop offset="0.48" stop-color="#a6b6cd" stop-opacity="1"/>
			<stop offset="0.82" stop-color="#bdd0e9" stop-opacity="1"/>
		</linearGradient>
	</defs>
	<g v:mID="0" v:index="1" v:groupContext="foregroundPage">
		<title>Page-1</title>
		<v:pageProperties v:drawingScale="1" v:pageScale="1" v:drawingUnits="0" v:shadowOffsetX="9" v:shadowOffsetY="-9"/>
		<v:layer v:name="Flowchart" v:index="0"/>
		<g id="shape34-1" v:mID="34" v:groupContext="shape" v:layerMember="0" transform="translate(234,-29.3034)">
			<title>Database</title>
			<desc>Model</desc>
			<v:custProps>
				<v:cp v:nameU="Cost" v:lbl="Cost" v:type="7" v:format="@" v:langID="1033"/>
				<v:cp v:nameU="Duration" v:lbl="Duration" v:type="2" v:langID="1033"/>
				<v:cp v:nameU="Resources" v:lbl="Resources" v:langID="1033"/>
			</v:custProps>
			<v:userDefs>
				<v:ud v:nameU="visVersion" v:val="VT0(15):26"/>
			</v:userDefs>
			<v:textBlock v:margins="rect(2,2,2,2)"/>
			<v:textRect cx="42.75" cy="213.378" width="85.5" height="100.35"/>
			<path d="M0 146.1 L0 255 A42.75 8.55 -180 1 0 85.5 255 L85.5 146.1 A42.75 8.55 -180 0 0 0 146.1 Z" class="st1"/>
			<path d="M0 146.1 L0 255 A42.75 8.55 -180 1 0 85.5 255 L85.5 146.1 A42.75 8.55 -180 0 0 0 146.1" class="st2"/>
			<path d="M0 146.1 A42.75 8.55 -180 0 0 85.5 146.1" class="st2"/>
			<path d="M0 150.38 A42.75 8.55 -180 1 0 85.5 150.38" class="st2"/>
			<path d="M0 154.65 A42.75 8.55 -180 1 0 85.5 154.65" class="st2"/>
			<text x="24.31" y="217.58" class="st3" v:langID="1033"><v:paragraph v:horizAlign="1"/><v:tabList/>Model</text>		</g>
		<g id="group38-10" transform="translate(47.25,-24.8035)" v:mID="38" v:groupContext="group">
			<v:custProps>
				<v:cp v:nameU="ShapeClass" v:lbl="ShapeClass" v:type="0" v:invis="true" v:ask="false" v:langID="1033"
						v:val="VT4(Connectivity)"/>
				<v:cp v:nameU="ShapeType" v:lbl="ShapeType" v:type="0" v:invis="true" v:ask="false" v:langID="1033"
						v:val="VT4(Conceptual)"/>
				<v:cp v:nameU="SubShapeType" v:lbl="SubShapeType" v:type="0" v:invis="true" v:ask="false" v:langID="1033"
						v:val="VT4(Data)"/>
			</v:custProps>
			<v:userDefs>
				<v:ud v:nameU="visLegendShape" v:val="VT0(2):26"/>
				<v:ud v:nameU="HasText" v:val="VT0(0):5"/>
				<v:ud v:nameU="SolSH" v:val="VT15({BF0433D9-CD73-4EB5-8390-8653BE590246}):41"/>
				<v:ud v:nameU="ShapeClass" v:val="VT0(4):26"/>
				<v:ud v:nameU="ShapeType" v:val="VT0(7):26"/>
				<v:ud v:nameU="SubShapeType" v:val="VT0(15):26"/>
				<v:ud v:nameU="visVersion" v:prompt="" v:val="VT0(15):26"/>
				<v:ud v:nameU="HasText" v:prompt="" v:val="VT0(1):5"/>
			</v:userDefs>
			<title>Data</title>
			<desc>View Model</desc>
			<g id="shape39-11" v:mID="39" v:groupContext="shape" transform="translate(0,0.00058472)">
				<title>Sheet.39</title>
				<path d="M112.3 183.68 A56.1497 32.6252 0.18 0 1 110.95 190.91 A56.1497 32.6252 -179.82 0 0 112.3 183.68 L112.3 183.68
							 ZM112.3 183.68 A56.1497 32.6252 -179.82 0 0 0 183.68 L0 230.93 A56.1499 32.6253 -179.82 0 0 112.3 230.93
							 L112.5 230.93 L112.5 183.68 L112.3 183.68 L112.3 183.68 Z" class="st4"/>
				<path d="M112.3 183.68 A56.1497 32.6252 0.18 0 1 110.95 190.91 A56.1497 32.6252 -179.82 0 0 112.3 183.68M112.3 183.68
							 A56.1497 32.6252 -179.82 0 0 0 183.68 L0 230.93 A56.1499 32.6253 -179.82 0 0 112.3 230.93 L112.5 230.93
							 L112.5 183.68 L112.3 183.68" class="st5"/>
			</g>
			<g id="shape40-14" v:mID="40" v:groupContext="shape" transform="translate(-5.59552E-13,-47.2491)">
				<title>Sheet.40</title>
				<path d="M0 230.76 A56.1497 32.6252 -179.82 1 1 112.3 231.1 A56.1497 32.6252 -179.82 1 1 0 230.76 Z" class="st6"/>
			</g>
			<g id="shape41-18" v:mID="41" v:groupContext="shape">
				<title>Sheet.41</title>
				<path d="M0 183.68 L0 230.76 L0 230.93 A56.1499 32.6253 -179.82 0 0 112.3 230.93 L112.5 230.93 L112.5 183.68 L112.3
							 183.68 A56.1497 32.6252 0.18 0 1 0 183.68 L0 183.68 Z" class="st7"/>
				<path d="M0 183.68 L0 230.76 L0 230.93 A56.1499 32.6253 -179.82 0 0 112.3 230.93 L112.5 230.93 L112.5 183.68 L112.3
							 183.68 A56.1497 32.6252 0.18 0 1 0 183.68" class="st8"/>
			</g>
			<g id="shape42-25" v:mID="42" v:groupContext="shape" transform="translate(0,0.000913625)">
				<title>Sheet.42</title>
				<path d="M112.3 183.68 A56.1497 32.6252 -179.82 1 0 0 183.68 L0 230.93 A56.1499 32.6253 -179.82 0 0 112.3 230.93
							 L112.5 230.93 L112.5 183.68 L112.3 183.68" class="st9"/>
			</g>
			<g id="shape38-28" v:mID="38" v:groupContext="groupContent">
				<v:textBlock v:margins="rect(4,4,4,4)"/>
				<v:textRect cx="56.25" cy="275.955" width="79.35" height="24.8035"/>
				<text x="22.16" y="280.16" class="st10" v:langID="1033"><v:paragraph v:horizAlign="1"/><v:tabList/>View Model</text>			</g>
		</g>
		<g id="group36-30" transform="translate(-56.5535,166.75) rotate(-90)" v:mID="36" v:groupContext="group">
			<v:custProps>
				<v:cp v:nameU="AssetNumber" v:lbl="Asset Number" v:prompt="" v:type="0" v:format="" v:sortKey="Asset"
						v:invis="false" v:ask="false" v:langID="1033" v:cal="0"/>
				<v:cp v:nameU="SerialNumber" v:lbl="Serial Number" v:prompt="" v:type="0" v:format="" v:sortKey="Asset"
						v:invis="false" v:ask="false" v:langID="1033" v:cal="0"/>
				<v:cp v:nameU="Location" v:lbl="Location" v:prompt="" v:type="0" v:format="" v:sortKey="Asset" v:invis="false"
						v:ask="false" v:langID="1033" v:cal="0"/>
				<v:cp v:nameU="Building" v:lbl="Building" v:prompt="" v:type="0" v:format="" v:sortKey="Asset" v:invis="false"
						v:ask="false" v:langID="1033" v:cal="0"/>
				<v:cp v:nameU="Room" v:lbl="Room" v:prompt="" v:type="0" v:format="" v:sortKey="Asset" v:invis="false"
						v:ask="false" v:langID="1033" v:cal="0"/>
				<v:cp v:nameU="Manufacturer" v:lbl="Manufacturer" v:prompt="" v:type="0" v:format="" v:sortKey="Equipment"
						v:invis="false" v:ask="false" v:langID="1033" v:cal="0"/>
				<v:cp v:nameU="ProductNumber" v:lbl="Product Number" v:prompt="" v:type="0" v:format="" v:sortKey="Equipment"
						v:invis="false" v:ask="false" v:langID="1033" v:cal="0"/>
				<v:cp v:nameU="PartNumber" v:lbl="Part Number" v:prompt="" v:type="0" v:format="" v:sortKey="Equipment"
						v:invis="false" v:ask="false" v:langID="1033" v:cal="0"/>
				<v:cp v:nameU="ProductDescription" v:lbl="Product Description" v:prompt="" v:type="0" v:format=""
						v:sortKey="Equipment" v:invis="false" v:ask="false" v:langID="1033" v:cal="0"/>
				<v:cp v:nameU="NetworkName" v:lbl="Network Name" v:prompt="" v:type="0" v:format="" v:sortKey="Network"
						v:invis="false" v:ask="false" v:langID="1033" v:cal="0"/>
				<v:cp v:nameU="IPAddress" v:lbl="IP Address" v:prompt="" v:type="0" v:format="" v:sortKey="Network" v:invis="false"
						v:ask="false" v:langID="1033" v:cal="0"/>
				<v:cp v:nameU="SubnetMask" v:lbl="Subnet Mask" v:prompt="" v:type="0" v:format="" v:sortKey="Network"
						v:invis="false" v:ask="false" v:langID="1033" v:cal="0"/>
				<v:cp v:nameU="AdminInterface" v:lbl="Administrative Interface" v:prompt="" v:type="0" v:format=""
						v:sortKey="Network" v:invis="false" v:ask="false" v:langID="1033" v:cal="0"/>
				<v:cp v:nameU="NumberofPorts" v:lbl="Number of Ports" v:prompt="" v:type="0" v:format="" v:sortKey="Network"
						v:invis="false" v:ask="false" v:langID="1033" v:cal="0"/>
				<v:cp v:nameU="CommunityString" v:lbl="Community String" v:prompt="" v:type="0" v:format="" v:sortKey="Network"
						v:invis="false" v:ask="false" v:langID="1033" v:cal="0"/>
				<v:cp v:nameU="NetworkDescription" v:lbl="Network Description" v:prompt="" v:type="0" v:format=""
						v:sortKey="Network" v:invis="false" v:ask="false" v:langID="1033" v:cal="0"/>
				<v:cp v:nameU="MACAddress" v:lbl="MAC Address" v:prompt="" v:type="0" v:format="" v:sortKey="Network"
						v:invis="false" v:ask="false" v:langID="1033" v:cal="0"/>
				<v:cp v:nameU="Department" v:lbl="Department" v:prompt="" v:type="0" v:format="" v:sortKey="" v:invis="false"
						v:ask="false" v:langID="1033" v:cal="0"/>
				<v:cp v:nameU="ShapeClass" v:lbl="ShapeClass" v:prompt="" v:type="0" v:format="" v:sortKey="" v:invis="true"
						v:ask="false" v:langID="1033" v:cal="0" v:val="VT4(Equipment)"/>
				<v:cp v:nameU="ShapeType" v:lbl="ShapeType" v:prompt="" v:type="0" v:format="" v:sortKey="" v:invis="true"
						v:ask="false" v:langID="1033" v:cal="0" v:val="VT4(Data Pipe)"/>
			</v:custProps>
			<v:userDefs>
				<v:ud v:nameU="visVersion" v:prompt="" v:val="VT0(15):26"/>
				<v:ud v:nameU="ShapeClass" v:prompt="" v:val="VT0(5):26"/>
				<v:ud v:nameU="SolSH" v:prompt="" v:val="VT15({BF0433D9-CD73-4EB5-8390-8653BE590246}):41"/>
				<v:ud v:nameU="visLegendShape" v:prompt="" v:val="VT0(2):26"/>
			</v:userDefs>
			<title>Data Pipe</title>
			<g id="shape37-31" v:mID="37" v:groupContext="shape" transform="translate(0,-81.1646)">
				<title>Sheet.37</title>
				<path d="M72 263.55 C69.6 262.9 67.69 253.2 67.69 241.28 C67.69 228.94 69.48 218.88 72 218.88 L5.59 218.88 C2.5 218.98
							 0 228.93 0 241.21 C0 253.49 2.5 263.45 5.59 263.54 L5.59 263.55 L72 263.55 Z" class="st11"/>
			</g>
		</g>
		<g id="group30-33" transform="translate(31.5,-164.303)" v:mID="30" v:groupContext="group" v:layerMember="0">
			<v:userDefs>
				<v:ud v:nameU="visVersion" v:prompt="" v:val="VT0(15):26"/>
				<v:ud v:nameU="ConnGap" v:prompt="" v:val="VT0(0.083333333333333):0"/>
			</v:userDefs>
			<title>Document</title>
			<g id="shape31-34" v:mID="31" v:groupContext="shape" v:layerMember="0">
				<title>Sheet.31</title>
				<path d="M144 205.27 L108.2 191.55 L0 191.55 L0 263.55 L144 263.55 L144 205.27 Z" class="st12"/>
			</g>
			<g id="shape32-36" v:mID="32" v:groupContext="shape" v:layerMember="0" transform="translate(26.25,-14.4844)">
				<title>Sheet.32</title>
				<v:userDefs>
					<v:ud v:nameU="SurroundingRegionColor" v:prompt="" v:val="VT0(1):26"/>
					<v:ud v:nameU="SurroundingRegionColor" v:prompt="" v:val="VT5(#4672c4)"/>
				</v:userDefs>
				<path d="M54 263.55 L90.75 263.55 L90.75 261.73 L54 261.73 L54 263.55 ZM0 254.98 L90.75 254.98 L90.75 253.15 L0 253.15
							 L0 254.98 ZM0 246.4 L90.75 246.4 L90.75 244.57 L0 244.57 L0 246.4 ZM0 237.82 L90.75 237.82 L90.75 235.99
							 L0 235.99 L0 237.82 ZM0 229.24 L36.75 229.24 L36.75 227.41 L0 227.41 L0 229.24 ZM0 220.66 L36.75 220.66
							 L36.75 218.83 L0 218.83 L0 220.66 ZM80.91 206.52 L80.91 219.79 L115.56 219.79 L80.91 206.52 Z"
						class="st13"/>
			</g>
		</g>
		<g id="shape43-39" v:mID="43" v:groupContext="shape" transform="translate(67.5,-240.803)">
			<title>Sheet.43</title>
			<desc>View</desc>
			<v:textBlock v:margins="rect(4,4,4,4)"/>
			<v:textRect cx="36" cy="252.303" width="72" height="22.5"/>
			<rect x="0" y="241.053" width="72" height="22.5" class="st14"/>
			<text x="21.94" y="256.5" class="st10" v:langID="1033"><v:paragraph v:horizAlign="1"/><v:tabList/>View</text>		</g>
		<g id="group55-42" transform="translate(156.72,-78.0354) rotate(-0.68206)" v:mID="55" v:groupContext="group">
			<v:userDefs>
				<v:ud v:nameU="visVersion" v:val="VT0(15):26"/>
			</v:userDefs>
			<title>1-D single</title>
			<g id="shape56-43" v:mID="56" v:groupContext="shape">
				<title>Sheet.56</title>
				<path d="M-2.25 259.05 L83.3 259.05 L83.3 263.55 L87.8 254.55 L83.3 245.55 L83.3 250.05 L-2.25 250.05 L-2.25 259.05
							 Z" class="st15"/>
				<path d="M-2.25 259.05 L83.3 259.05 L83.3 263.55 L87.8 254.55 L83.3 245.55 L83.3 250.05 L-2.25 250.05" class="st16"/>
			</g>
			<g id="shape57-48" v:mID="57" v:groupContext="shape">
				<title>Sheet.57</title>
				<path d="M0 259.05 L83.3 259.05 L83.3 263.55 L87.8 254.55 L83.3 245.55 L83.3 250.05 L0 250.05" class="st17"/>
			</g>
			<g id="shape58-52" v:mID="58" v:groupContext="shape" transform="translate(-1.5,-5.25)">
				<title>Sheet.58</title>
				<rect x="0" y="256.053" width="1.5" height="7.5" class="st18"/>
			</g>
		</g>
		<g id="shape72-55" v:mID="72" v:groupContext="shape" transform="translate(148.5,-60.8034)">
			<title>Sheet.72</title>
			<desc>Data Transform</desc>
			<v:textBlock v:margins="rect(4,4,4,4)"/>
			<v:textRect cx="49.5" cy="252.303" width="99" height="22.5"/>
			<rect x="0" y="241.053" width="99" height="22.5" class="st14"/>
			<text x="17.77" y="255.3" class="st19" v:langID="1033"><v:paragraph v:horizAlign="1"/><v:tabList/>Data Transform</text>		</g>
		<g id="group74-58" transform="translate(234,459.553) rotate(180)" v:mID="74" v:groupContext="group">
			<v:userDefs>
				<v:ud v:nameU="visVersion" v:val="VT0(15):26"/>
			</v:userDefs>
			<title>1-D single.74</title>
			<g id="shape75-59" v:mID="75" v:groupContext="shape">
				<title>Sheet.75</title>
				<path d="M-2.25 259.05 L82.5 259.05 L82.5 263.55 L87 254.55 L82.5 245.55 L82.5 250.05 L-2.25 250.05 L-2.25 259.05
							 Z" class="st15"/>
				<path d="M-2.25 259.05 L82.5 259.05 L82.5 263.55 L87 254.55 L82.5 245.55 L82.5 250.05 L-2.25 250.05" class="st16"/>
			</g>
			<g id="shape76-63" v:mID="76" v:groupContext="shape">
				<title>Sheet.76</title>
				<path d="M0 259.05 L82.5 259.05 L82.5 263.55 L87 254.55 L82.5 245.55 L82.5 250.05 L0 250.05" class="st17"/>
			</g>
			<g id="shape77-67" v:mID="77" v:groupContext="shape" transform="translate(-1.5,-5.25)">
				<title>Sheet.77</title>
				<rect x="0" y="256.053" width="1.5" height="7.5" class="st18"/>
			</g>
		</g>
		<g id="shape78-70" v:mID="78" v:groupContext="shape" transform="translate(91.26,-217.043)">
			<title>Sheet.78</title>
			<desc>View</desc>
			<v:textBlock v:margins="rect(4,4,4,4)"/>
			<v:textRect cx="36" cy="252.303" width="72" height="22.5"/>
			<rect x="0" y="241.053" width="72" height="22.5" class="st14"/>
			<text x="21.94" y="256.5" class="st10" v:langID="1033"><v:paragraph v:horizAlign="1"/><v:tabList/>View</text>		</g>
		<g id="shape104-73" v:mID="104" v:groupContext="shape" transform="translate(-160.053,166.75) rotate(-90)">
			<title>Simple Double Arrow</title>
			<v:userDefs>
				<v:ud v:nameU="visVersion" v:val="VT0(15):26"/>
				<v:ud v:nameU="ArrowType" v:prompt="" v:val="VT0(3):26"/>
			</v:userDefs>
			<path d="M0 263.55 L12 251.56 L12 257.56 L39.75 257.56 L39.75 251.56 L51.75 263.55 L39.75 275.55 L39.75 269.55 L12 269.55
						 L12 275.55 L0 263.55 Z" class="st20"/>
		</g>
		<g id="shape44-75" v:mID="44" v:groupContext="shape" transform="translate(54,-141.803)">
			<title>Sheet.44</title>
			<desc>Data Binding</desc>
			<v:textBlock v:margins="rect(4,4,4,4)"/>
			<v:textRect cx="49.5" cy="252.303" width="99" height="22.5"/>
			<rect x="0" y="241.053" width="99" height="22.5" class="st14"/>
			<text x="18.4" y="255.9" class="st21" v:langID="1033"><v:paragraph v:horizAlign="1"/><v:tabList/>Data Binding</text>		</g>
		<g id="shape212-78" v:mID="212" v:groupContext="shape" transform="translate(225,-87.8035)">
			<title>Sheet.212</title>
			<desc>Mutable</desc>
			<v:textBlock v:margins="rect(4,4,4,4)"/>
			<v:textRect cx="51.75" cy="241.053" width="103.5" height="45"/>
			<rect x="0" y="218.553" width="103.5" height="45" class="st14"/>
			<text x="31.07" y="244.65" class="st22" v:langID="1033"><v:paragraph v:horizAlign="1"/><v:tabList/>Mutable</text>		</g>
		<g id="shape216-81" v:mID="216" v:groupContext="shape" transform="translate(49.5,-29.3035)">
			<title>Sheet.216</title>
			<desc>Mutable</desc>
			<v:textBlock v:margins="rect(4,4,4,4)"/>
			<v:textRect cx="51.75" cy="241.053" width="103.5" height="45"/>
			<rect x="0" y="218.553" width="103.5" height="45" class="st14"/>
			<text x="31.07" y="244.65" class="st23" v:langID="1033"><v:paragraph v:horizAlign="1"/><v:tabList/>Mutable</text>		</g>
	</g>
</svg>
