<?xml version="1.0" encoding="UTF-8" standalone="no"?>
<!DOCTYPE svg PUBLIC "-//W3C//DTD SVG 1.1//EN" "http://www.w3.org/Graphics/SVG/1.1/DTD/svg11.dtd">
<!-- Generated by Microsoft Visio, SVG Export spa.svg Page-1 -->
<svg xmlns="http://www.w3.org/2000/svg" xmlns:xlink="http://www.w3.org/1999/xlink" xmlns:ev="http://www.w3.org/2001/xml-events"
		xmlns:v="http://schemas.microsoft.com/visio/2003/SVGExtensions/" width="5.80478in" height="4.35139in"
		viewBox="0 0 417.944 313.3" xml:space="preserve" color-interpolation-filters="sRGB" class="st32">
	<v:documentProperties v:langID="1033" v:viewMarkup="false"/>

	<style type="text/css">
	<![CDATA[
		.st1 {fill:url(#grad0-5);stroke:#3d64ac;stroke-width:0.75}
		.st2 {fill:#3d64ac;font-family:Calibri;font-size:0.666664em}
		.st3 {fill:#ffffff;stroke:none;stroke-linecap:butt;stroke-width:0.75}
		.st4 {fill:url(#grad10-24);stroke:none;stroke-linecap:butt;stroke-width:0.75}
		.st5 {fill:url(#grad0-32);stroke:none;stroke-linecap:butt;stroke-width:0.75}
		.st6 {fill:url(#grad6-36);stroke:none;stroke-linecap:butt;stroke-width:0.75}
		.st7 {stroke:#ffffff;stroke-linecap:butt;stroke-width:0.5}
		.st8 {stroke:#19a94e;stroke-linecap:butt;stroke-width:0.5}
		.st9 {fill:none;stroke:none;stroke-linecap:butt;stroke-width:0.75}
		.st10 {fill:url(#grad1-49);stroke:none;stroke-linecap:butt;stroke-width:0.75}
		.st11 {fill:url(#grad1-53);stroke:none;stroke-linecap:butt;stroke-width:0.75}
		.st12 {fill:url(#grad6-60);stroke:none;stroke-linecap:butt;stroke-width:0.75}
		.st13 {fill:url(#grad0-64);stroke:none;stroke-linecap:butt;stroke-width:0.75}
		.st14 {fill:url(#grad0-68);stroke:none;stroke-linecap:butt;stroke-width:0.75}
		.st15 {fill:url(#grad10-75);stroke:none;stroke-linecap:butt;stroke-width:0.75}
		.st16 {fill:#2c4381;stroke:none;stroke-linecap:butt;stroke-width:0.75}
		.st17 {fill:none;stroke:#c8c8c8;stroke-width:0.25}
		.st18 {fill:#668bb3;stroke:#547395;stroke-width:0.75}
		.st19 {fill:#feffff;font-family:Calibri;font-size:0.833336em}
		.st20 {fill:url(#grad0-94);stroke:#8a98ab;stroke-width:0.75}
		.st21 {marker-end:url(#mrkr4-101);stroke:#4672c4;stroke-linecap:round;stroke-linejoin:round;stroke-width:1}
		.st22 {fill:#4672c4;fill-opacity:1;stroke:#4672c4;stroke-opacity:1;stroke-width:0.28409090909091}
		.st23 {fill:#4672c4;stroke:#c7c8c8;stroke-width:0.72}
		.st24 {fill:none;stroke:#c7c8c8;stroke-width:0.72;visibility:hidden}
		.st25 {fill:#feffff;font-family:Calibri;font-size:0.666664em}
		.st26 {fill:#4672c4;stroke:#c8c8c8;stroke-width:0.25}
		.st27 {fill:#000000;stroke:#c8c8c8;stroke-width:0.24}
		.st28 {fill:#ffff00;stroke:#000000;stroke-width:0.24;visibility:hidden}
		.st29 {fill:#000000;stroke:none;stroke-width:0.24;visibility:hidden}
		.st30 {fill:#4672c4;stroke:#c8c8c8;stroke-width:0.24}
		.st31 {fill:#4672c4;font-family:Calibri;font-size:0.666664em}
		.st32 {fill:none;fill-rule:evenodd;font-size:12px;overflow:visible;stroke-linecap:square;stroke-miterlimit:3}
	]]>
	</style>

	<defs id="Patterns_And_Gradients">
		<linearGradient id="grad0-5" x1="0" y1="0" x2="1" y2="0" gradientTransform="rotate(60 0.5 0.5)">
			<stop offset="0" stop-color="#e8ebf4" stop-opacity="1"/>
			<stop offset="0.24" stop-color="#f4f5f9" stop-opacity="1"/>
			<stop offset="0.54" stop-color="#feffff" stop-opacity="1"/>
		</linearGradient>
		<pattern id="grad10-24" x="0" y="0" width="1" height="1" patternContentUnits="objectBoundingBox">
			<path d="M 0.5 0.5 L 0 0 L 0 1 z" style="fill:url(#grad0-25)"/>
			<path d="M 0.5 0.5 L 1 0 L 1 1 z" style="fill:url(#grad0-26)"/>
			<path d="M 0.5 0.5 L 0 0 L 1 0 z" style="fill:url(#grad0-27)"/>
			<path d="M 0.5 0.5 L 0 1 L 1 1 z" style="fill:url(#grad0-28)"/>
		</pattern>
		<linearGradient id="grad0-25" x1="0" y1="0" x2="1" y2="0" gradientTransform="rotate(180 0.5 0.5)">
			<stop offset="0" stop-color="#ffffff" stop-opacity="1"/>
			<stop offset="1" stop-color="#799ae6" stop-opacity="1"/>
		</linearGradient>
		<linearGradient id="grad0-26" x1="0" y1="0" x2="1" y2="0" gradientTransform="rotate(360 0.5 0.5)">
			<stop offset="0" stop-color="#ffffff" stop-opacity="1"/>
			<stop offset="1" stop-color="#799ae6" stop-opacity="1"/>
		</linearGradient>
		<linearGradient id="grad0-27" x1="0" y1="0" x2="1" y2="0" gradientTransform="rotate(270 0.5 0.5)">
			<stop offset="0" stop-color="#ffffff" stop-opacity="1"/>
			<stop offset="1" stop-color="#799ae6" stop-opacity="1"/>
		</linearGradient>
		<linearGradient id="grad0-28" x1="0" y1="0" x2="1" y2="0" gradientTransform="rotate(90 0.5 0.5)">
			<stop offset="0" stop-color="#ffffff" stop-opacity="1"/>
			<stop offset="1" stop-color="#799ae6" stop-opacity="1"/>
		</linearGradient>
		<linearGradient id="grad0-32" x1="0" y1="0" x2="1" y2="0" gradientTransform="rotate(0 0.5 0.5)">
			<stop offset="0" stop-color="#bcbec0" stop-opacity="1"/>
			<stop offset="1" stop-color="#9d9fa1" stop-opacity="1"/>
		</linearGradient>
		<radialGradient id="grad6-36" cx="1" cy="0" r="1.4">
			<stop offset="0" stop-color="#2c4381" stop-opacity="1"/>
			<stop offset="1" stop-color="#3c61ae" stop-opacity="1"/>
		</radialGradient>
		<radialGradient id="grad1-49" cx="1" cy="1" r="1.4">
			<stop offset="0" stop-color="#1a4795" stop-opacity="1"/>
			<stop offset="1" stop-color="#086bc2" stop-opacity="1"/>
		</radialGradient>
		<radialGradient id="grad1-53" cx="1" cy="1" r="1.4">
			<stop offset="0" stop-color="#1b4995" stop-opacity="1"/>
			<stop offset="1" stop-color="#27b3dd" stop-opacity="1"/>
		</radialGradient>
		<radialGradient id="grad6-60" cx="1" cy="0" r="1.4">
			<stop offset="0" stop-color="#42bc33" stop-opacity="1"/>
			<stop offset="1" stop-color="#bde1a1" stop-opacity="1"/>
		</radialGradient>
		<linearGradient id="grad0-64" x1="0" y1="0" x2="1" y2="0" gradientTransform="rotate(270 0.5 0.5)">
			<stop offset="0" stop-color="#19a94e" stop-opacity="1"/>
			<stop offset="1" stop-color="#abd782" stop-opacity="1"/>
		</linearGradient>
		<linearGradient id="grad0-68" x1="0" y1="0" x2="1" y2="0" gradientTransform="rotate(180 0.5 0.5)">
			<stop offset="0" stop-color="#42bc33" stop-opacity="1"/>
			<stop offset="1" stop-color="#bde1a1" stop-opacity="1"/>
		</linearGradient>
		<pattern id="grad10-75" x="0" y="0" width="1" height="1" patternContentUnits="objectBoundingBox">
			<path d="M 0.5 0.5 L 0 0 L 0 1 z" style="fill:url(#grad0-68)"/>
			<path d="M 0.5 0.5 L 1 0 L 1 1 z" style="fill:url(#grad0-76)"/>
			<path d="M 0.5 0.5 L 0 0 L 1 0 z" style="fill:url(#grad0-77)"/>
			<path d="M 0.5 0.5 L 0 1 L 1 1 z" style="fill:url(#grad0-78)"/>
		</pattern>
		<linearGradient id="grad0-76" x1="0" y1="0" x2="1" y2="0" gradientTransform="rotate(360 0.5 0.5)">
			<stop offset="0" stop-color="#42bc33" stop-opacity="1"/>
			<stop offset="1" stop-color="#bde1a1" stop-opacity="1"/>
		</linearGradient>
		<linearGradient id="grad0-77" x1="0" y1="0" x2="1" y2="0" gradientTransform="rotate(270 0.5 0.5)">
			<stop offset="0" stop-color="#42bc33" stop-opacity="1"/>
			<stop offset="1" stop-color="#bde1a1" stop-opacity="1"/>
		</linearGradient>
		<linearGradient id="grad0-78" x1="0" y1="0" x2="1" y2="0" gradientTransform="rotate(90 0.5 0.5)">
			<stop offset="0" stop-color="#42bc33" stop-opacity="1"/>
			<stop offset="1" stop-color="#bde1a1" stop-opacity="1"/>
		</linearGradient>
		<linearGradient id="grad0-94" x1="0" y1="0" x2="1" y2="0" gradientTransform="rotate(250 0.5 0.5)">
			<stop offset="0" stop-color="#a6b6cd" stop-opacity="1"/>
			<stop offset="0.48" stop-color="#a6b6cd" stop-opacity="1"/>
			<stop offset="0.82" stop-color="#bdd0e9" stop-opacity="1"/>
		</linearGradient>
	</defs>
	<defs id="Markers">
		<g id="lend4">
			<path d="M 2 1 L 0 0 L 2 -1 L 2 1 " style="stroke:none"/>
		</g>
		<marker id="mrkr4-101" class="st22" v:arrowType="4" v:arrowSize="2" v:setback="7.04" refX="-7.04" orient="auto"
				markerUnits="strokeWidth" overflow="visible">
			<use xlink:href="#lend4" transform="scale(-3.52,-3.52) "/>
		</marker>
	</defs>
	<g v:mID="0" v:index="1" v:groupContext="foregroundPage">
		<title>Page-1</title>
		<v:pageProperties v:drawingScale="1" v:pageScale="1" v:drawingUnits="0" v:shadowOffsetX="9" v:shadowOffsetY="-9"/>
		<v:layer v:name="Flowchart" v:index="0"/>
		<v:layer v:name="Connector" v:index="1"/>
		<g id="group128-1" transform="translate(0.75,-20.05)" v:mID="128" v:groupContext="group" v:layerMember="0">
			<v:custProps>
				<v:cp v:nameU="Cost" v:lbl="Cost" v:type="7" v:format="@" v:langID="1033"/>
				<v:cp v:nameU="Duration" v:lbl="Duration" v:type="2" v:langID="1033"/>
				<v:cp v:nameU="Resources" v:lbl="Resources" v:langID="1033"/>
			</v:custProps>
			<v:userDefs>
				<v:ud v:nameU="AntiScale" v:val="VT0(1):26"/>
				<v:ud v:nameU="visVersion" v:val="VT0(15):26"/>
			</v:userDefs>
			<title>Divided event.128</title>
			<g id="shape130-2" v:mID="130" v:groupContext="shape" v:layerMember="0">
				<title>Sheet.130</title>
				<path d="M-0 304.3 A9 9 -180 0 0 9 313.3 L203.28 313.3 A9 9 -180 0 0 212.28 304.3 L212.28 214.02 L0 214.02 L0 304.3
							 Z" class="st1"/>
			</g>
			<g id="shape129-6" v:mID="129" v:groupContext="shape" v:layerMember="0" transform="translate(0,-99.2844)">
				<title>Sheet.129</title>
				<desc>TRADITIONAL WEBSITE</desc>
				<v:textBlock v:margins="rect(2,2,2,2)"/>
				<v:textRect cx="106.138" cy="306.498" width="212.28" height="13.6036"/>
				<path d="M0 313.3 L212.28 313.3 L212.28 308.7 A9 9 -180 0 0 203.28 299.7 L9 299.7 A9 9 -180 0 0 -0 308.7 L0 313.3
							 Z" class="st1"/>
				<text x="68.71" y="308.9" class="st2" v:langID="1033"><v:paragraph v:horizAlign="1"/><v:tabList/>TRADITIONAL WEBSITE</text>			</g>
		</g>
		<g id="group125-10" transform="translate(0.75,-159.55)" v:mID="125" v:groupContext="group" v:layerMember="0">
			<v:custProps>
				<v:cp v:nameU="Cost" v:lbl="Cost" v:type="7" v:format="@" v:langID="1033"/>
				<v:cp v:nameU="Duration" v:lbl="Duration" v:type="2" v:langID="1033"/>
				<v:cp v:nameU="Resources" v:lbl="Resources" v:langID="1033"/>
			</v:custProps>
			<v:userDefs>
				<v:ud v:nameU="AntiScale" v:val="VT0(1):26"/>
				<v:ud v:nameU="visVersion" v:val="VT0(15):26"/>
			</v:userDefs>
			<title>Divided event</title>
			<g id="shape126-11" v:mID="126" v:groupContext="shape" v:layerMember="0" transform="translate(0,-139.396)">
				<title>Sheet.126</title>
				<desc>SPA CLIENT</desc>
				<v:textBlock v:margins="rect(2,2,2,2)"/>
				<v:textRect cx="106.138" cy="306.498" width="212.28" height="13.6036"/>
				<path d="M0 313.3 L212.28 313.3 L212.28 308.7 A9 9 -180 0 0 203.28 299.7 L9 299.7 A9 9 -180 0 0 -0 308.7 L0 313.3
							 Z" class="st1"/>
				<text x="87.71" y="308.9" class="st2" v:langID="1033"><v:paragraph v:horizAlign="1"/><v:tabList/>SPA CLIENT</text>			</g>
			<g id="shape127-15" v:mID="127" v:groupContext="shape" v:layerMember="0">
				<title>Sheet.127</title>
				<path d="M-0 304.3 A9 9 -180 0 0 9 313.3 L203.28 313.3 A9 9 -180 0 0 212.28 304.3 L212.28 173.9 L0 173.9 L0 304.3
							 Z" class="st1"/>
			</g>
		</g>
		<g id="group1-18" transform="translate(52.306,-222.55)" v:mID="1" v:groupContext="group">
			<v:userDefs>
				<v:ud v:nameU="visVersion" v:prompt="" v:val="VT0(15):26"/>
			</v:userDefs>
			<title>Web page</title>
			<g id="shape2-19" v:mID="2" v:groupContext="shape" transform="translate(4.74741,-9.79475)">
				<title>Sheet.2</title>
				<path d="M0 269.89 L0 313.3 L62.43 313.3 L62.43 269.89 L0 269.89 Z" class="st3"/>
			</g>
			<g id="shape3-21" v:mID="3" v:groupContext="shape" transform="translate(5.14457,-10.2322)">
				<title>Sheet.3</title>
				<path d="M0 270.76 L0 313.3 L61.63 313.3 L61.63 270.76 L0 270.76 Z" class="st4"/>
			</g>
			<g id="shape4-29" v:mID="4" v:groupContext="shape" transform="translate(4.92171,-41.6132)">
				<title>Sheet.4</title>
				<rect x="0" y="306.251" width="62.2011" height="7.049" class="st5"/>
			</g>
			<g id="shape5-33" v:mID="5" v:groupContext="shape" transform="translate(4.92171,-47.2369)">
				<title>Sheet.5</title>
				<rect x="0" y="307.431" width="62.334" height="5.86863" class="st6"/>
			</g>
			<g id="shape6-37" v:mID="6" v:groupContext="shape" transform="translate(5.106,-44.247)">
				<title>Sheet.6</title>
				<path d="M0 313.3 L40.08 313.3" class="st7"/>
			</g>
			<g id="shape7-40" v:mID="7" v:groupContext="shape" transform="translate(42.9789,-44.247)">
				<title>Sheet.7</title>
				<path d="M0 313.3 L7.14 313.3" class="st8"/>
			</g>
			<g id="group8-43" transform="translate(10.2634,-17.1045)" v:mID="8" v:groupContext="group">
				<title>Sheet.8</title>
				<g id="shape9-44" v:mID="9" v:groupContext="shape" transform="translate(4.02771,-0.25375)">
					<title>Sheet.9</title>
					<path d="M0.97 305.9 a0.673305 0.687332 0 0 1 -0.365143 0.468125 A1.69011 1.72532 0 0 1 0.43 307.24 A1.0712 1.09352
								 -180 0 0 -0 307.9 A1.20329 1.22836 -180 0 0 0.18 308.2 A1.88956 1.92893 -180 0 0 0.43 308.93 A2.11523
								 2.1593 0 0 1 0.97 309.72 A1.41048 1.43986 -180 0 0 1.69 310.46 a0.669188 0.68313 0 0 1 0.665143
								 0.54775 A18.3659 18.7485 -180 0 0 2.47 312.32 A1.0944 1.1172 -180 0 0 2.72 312.95 A8.4649 8.64126
								 -180 0 0 3.86 313.3 A32.8294 33.5134 0 0 1 4.87 312.75 A2.50182 2.55394 -180 0 0 6.05 312.03 a0.465883
								 0.475589 0 0 1 0.363429 -0.462875 A1.35389 1.3821 -180 0 0 7.49 311.31 a0.806845 0.823654 -180 0
								 0 0.383143 -0.679 a0.632932 0.646118 0 0 1 0.324857 -0.61075 A2.54119 2.59414 -180 0 0 8.79 308.97
								 a0.901787 0.901787 -180 0 0 -0.576857 -0.1085 A6.12795 6.12795 -180 0 0 7.27 308.73 A6.01213 6.01213
								 -180 0 0 5.86 308.4 A6.6184 6.6184 0 0 1 5.56 307.46 A2.70556 2.70556 -180 0 0 4.42 307.17 A11.5171
								 11.5171 -180 0 0 3.76 306.4 A5.55337 5.55337 0 0 1 3.37 306.42 A5.76205 5.76205 0 0 1 0.97 305.9
								 Z" class="st9"/>
				</g>
				<g id="shape10-46" v:mID="10" v:groupContext="shape" transform="translate(-2.29748E-06,0)">
					<title>Sheet.10</title>
					<path d="M18.93 305.87 A2.67956 2.67956 0 0 1 18.74 305.06 L18.8 304.42 L18.49 304.56 a0.32671 0.333517 -180
								 0 0 -0.277714 -0.175875 A3.18782 3.25424 -180 0 0 17.65 305.12 A2.95178 3.01327 0 0 1 16.96 305.5
								 a0.608593 0.621272 0 0 1 -0.408857 -0.525875 a0.772547 0.788642 -180 0 0 -0.538286 -0.41475 A1.0702
								 1.09249 0 0 1 15.97 303.44 A11.0476 11.2778 -180 0 0 15.76 302.32 A5.87325 5.99561 0 0 1 16.14 300.7
								 A8.78919 8.9723 -180 0 0 16.1 299.96 a0.303112 0.309427 0 0 1 0.404571 -0.28525 A4.36431 4.45523
								 -180 0 0 17.05 298.77 a0.791305 0.807791 0 0 1 0.407143 0.68075 a0.761706 0.777575 -180 0 0 0.534
								 0.01925 L18.06 299.08 L18.25 298.93 L18.57 299.56 A9.67321 9.87473 -180 0 0 17.24 297.3 A2.35334
								 2.40237 0 0 1 16.98 298.12 A1.21451 1.23982 0 0 1 16.23 297.79 A1.04317 1.0649 -180 0 0 16.1 298.25
								 A13.1212 13.3946 0 0 1 16.27 298.86 a0.54572 0.55709 0 0 1 -0.211714 0.590625 a0.476171 0.486091
								 0 0 1 -0.601714 -0.41475 A4.87009 4.97155 0 0 1 15.18 298.34 a0.716907 0.731843 0 0 1 0.495429 -0.174125
								 A1.35371 1.38191 -180 0 0 15.12 297.46 L15.39 296.95 A1.30405 1.33121 0 0 1 15.2 296.3 a0.368101
								 0.37577 -180 0 0 -2.30926E-14 -0.5285 A7.502 7.65829 -180 0 0 14.39 295.21 A4.91657 5.019 0 0 1
								 14.95 295.84 a0.255196 0.260512 0 0 1 -0.151714 0.35175 A6.03608 6.16183 0 0 1 14.69 295.82 a0.261573
								 0.267022 -180 0 0 -0.386571 -0.044625 A30.0874 30.7143 0 0 1 13.83 295.54 a0.383146 0.391128 0 0
								 1 -0.0882857 -0.39375 A3.07067 3.13465 -180 0 0 13.06 294.64 a0.297655 0.303856 0 0 1 -0.084 -0.415625
								 A2.19469 2.24041 0 0 1 13.45 294.34 A9.65291 9.85401 -180 0 0 9.67 293.56 A12.5078 12.7684 -180
								 0 0 9.31 293.58 A8.61953 8.79911 0 0 1 11.13 293.72 a0.797451 0.814065 0 0 1 -0.492857 0.21175 L10.26
								 293.99 L10.64 294.15 A2.3775 2.42703 0 0 1 11.43 294.75 a0.265444 0.270974 0 0 1 -0.0985714 0.478625
								 a0.416386 0.42506 0 0 1 -0.166286 0.26775 A5.89455 6.01735 0 0 1 13.31 300.14 A5.90182 6.02477 0
								 0 1 7.78 306.15 A11.3446 11.5809 0 0 1 8.45 306.92 A2.75191 2.80924 0 0 1 9.59 307.21 A6.27972 6.41055
								 -180 0 0 9.88 308.15 A6.1169 6.24434 0 0 1 11.3 308.47 A6.26252 6.39299 0 0 1 12.24 308.61 a0.91878
								 0.937921 0 0 1 0.576857 0.1085 A2.53538 2.5882 0 0 1 12.22 309.77 a0.634205 0.647418 -180 0 0 -0.324857
								 0.61075 a0.806845 0.823654 0 0 1 -0.383143 0.679 A1.36058 1.38892 0 0 1 10.44 311.32 a0.466846 0.476572
								 -180 0 0 -0.363429 0.462875 A2.50182 2.55394 0 0 1 8.9 312.5 A32.8294 33.5134 -180 0 0 7.89 313.05
								 A8.59346 8.77249 0 0 1 6.75 312.7 A1.0966 1.11945 0 0 1 6.5 312.06 A18.3659 18.7485 0 0 1 6.39 310.75
								 a0.669829 0.683783 -180 0 0 -0.665143 -0.54775 A1.4101 1.43948 0 0 1 5 309.46 A2.11523 2.1593 -180
								 0 0 4.46 308.67 A1.88956 1.92893 0 0 1 4.2 307.95 A1.18403 1.2087 0 0 1 4.03 307.64 A1.0712 1.09352
								 0 0 1 4.46 306.99 A1.69011 1.72532 -180 0 0 4.63 306.11 a0.673305 0.687332 -180 0 0 0.365143 -0.468125
								 A5.85661 5.97862 0 0 1 3.71 304.84 A34.4274 35.1447 -180 0 0 3.71 305.3 L4.01 305.56 L3.88 305.83
								 a0.868441 0.886534 0 0 1 -0.622286 -0.658 A1.34661 1.37467 -180 0 0 3 304.36 a0.370275 0.377989
								 0 0 1 -0.341143 -0.130375 A2.46653 2.51791 -180 0 0 2.27 303.53 L1.87 303.44 A3.47012 3.54242 0
								 0 1 1.43 302.37 A8.74079 8.92289 0 0 1 1.43 299.1 A7.15729 7.3064 0 0 1 1.9 297.95 A5.89236 6.01511
								 0 0 1 2.4 296.94 A9.60682 9.80696 -180 0 0 0 303.43 A9.773 9.773 -180 0 0 9.67 313.3 A9.72296 9.72296
								 -180 0 0 19.18 305.2 A1.38137 1.38137 0 0 1 18.93 305.87 Z" class="st10"/>
				</g>
				<g id="shape11-50" v:mID="11" v:groupContext="shape" transform="translate(1.89857,-15.3457)">
					<title>Sheet.11</title>
					<path d="M2.15 310.77 A9.16896 9.16896 0 0 1 4.1 309.7 a0.36035 0.36035 -180 0 0 0.130286 0.462 A1.18915 1.18915
								 0 0 1 4.81 309.7 A1.96671 1.96671 -180 0 0 5.26 309.79 A1.60975 1.60975 0 0 1 5.31 309.46 A5.86877
								 5.86877 -180 0 0 4.28 309.59 A9.69339 9.69339 -180 0 0 0.5 312.28 A6.13098 6.13098 -180 0 0 0 313.3
								 A6.76521 6.76521 0 0 1 2.15 310.77 Z" class="st11"/>
				</g>
				<g id="shape12-54" v:mID="12" v:groupContext="shape" transform="translate(2.22426,-7.1575)">
					<title>Sheet.12</title>
					<path d="M8.57 303.57 a0.316132 0.322718 0 0 1 -0.369429 -0.063 a0.789094 0.805533 -180 0 0 -0.335143 -0.048125
								 A3.70629 3.78351 0 0 1 7.42 302.76 a0.344226 0.351397 0 0 1 0.186 -0.450625 a0.194981 0.199043 0
								 0 1 -0.163714 -0.2765 a0.856279 0.874118 -180 0 0 -0.859714 -0.4795 a0.27159 0.277249 -180 0 0 -0.333429
								 0.177625 A10.7646 10.9888 0 0 1 5.96 301.74 A1.22191 1.24737 0 0 1 6.91 302.1 A1.11009 1.13322 0
								 0 1 6.1 303.22 a0.460537 0.470132 0 0 1 -0.474 -0.37275 A1.00398 1.02489 -180 0 0 5.04 302.8 a0.637622
								 0.650906 0 0 1 -0.621429 -0.020125 a0.797132 0.813739 -180 0 0 -0.860571 0.632625 A1.68716 1.72231
								 0 0 1 4.1 304.03 a0.373913 0.381702 -180 0 0 0.0214286 0.50575 A1.66521 1.6999 -180 0 0 4.79 303.66
								 a0.590646 0.602951 0 0 1 0.557143 -0.5915 A2.31428 2.36249 0 0 1 5.58 303.55 a0.369002 0.376689
								 0 0 1 0.558857 -0.023625 A22.0247 22.4835 -180 0 0 6.67 304.31 A4.70739 4.80546 -180 0 0 6.84 305.17
								 a0.465345 0.475039 -180 0 0 0.363429 0.1505 a0.77431 0.790442 0 0 1 -0.577714 0.19775 a0.863157
								 0.881139 -180 0 0 -0.324 -0.54775 A2.77881 2.8367 0 0 1 5.47 304.99 a0.981448 1.00189 -180 0 0 0.212571
								 0.678125 a0.236438 0.241364 0 0 1 -0.127714 0.462875 a0.610775 0.623499 0 0 1 -0.409714 -0.21875
								 A2.10743 2.15133 -180 0 0 4.63 306.39 A1.13498 1.15863 0 0 1 4.1 306.52 L3.62 307 A1.57427 1.60707
								 0 0 1 2.96 307.88 a0.872874 0.891058 -180 0 0 -0.517714 0.700875 A1.37703 1.40572 0 0 1 2.23 309.52
								 a0.57243 0.584356 0 0 1 -0.0197143 -0.567875 L2 308.41 L1.33 308.1 L1.23 308.3 L0.56 308.01 a0.250176
								 0.255388 -180 0 0 -0.174857 0.2835 A1.27292 1.29944 0 0 1 0.04 309 A10.3289 10.5441 -180 0 0 0 310
								 A2.17826 2.22364 -180 0 0 0.45 310.33 L0.69 310.03 L1.14 310.05 A1.65241 1.68683 -180 0 0 0.82 310.94
								 A1.32468 1.35228 0 0 1 1.5 311.51 A7.01285 7.15896 -180 0 0 1.49 312 A5.85661 5.97862 -180 0 0 2.77
								 312.8 A2.23224 2.27875 -180 0 0 2.81 312.65 L3.35 312.67 a0.267935 0.273517 -180 0 0 0.192857 0.35175
								 A1.21949 1.24489 -180 0 0 3.91 312.72 A2.85718 2.9167 0 0 1 4.76 313.24 a0.54941 0.560856 0 0 1
								 0.277714 -0.3045 a0.839747 0.857242 0 0 1 0.516 0.36225 A5.90119 6.02413 -180 0 0 11.08 307.29 A5.89455
								 6.01735 -180 0 0 8.94 302.65 A1.71184 1.71184 0 0 1 8.62 302.87 A1.1949 1.1949 0 0 1 8.57 303.57
								 Z" class="st11"/>
				</g>
				<g id="shape13-57" v:mID="13" v:groupContext="shape" transform="translate(1.28583,-7.47337)">
					<title>Sheet.13</title>
					<path d="M5.89 301.97 a0.073282 0.0748087 0 0 1 -0.0162857 -0.051625 A1.9428 1.98327 0 0 1 5.43 301.83 A1.19407
								 1.21894 -180 0 0 4.85 302.29 a0.348728 0.355993 0 0 1 -0.130286 -0.462 A9.28842 9.48193 -180 0 0
								 2.77 302.9 A6.82776 6.97 -180 0 0 0.15 306.58 A8.74251 8.92464 -180 0 0 0.15 309.84 A3.56962 3.56962
								 -180 0 0 0.58 310.91 L0.99 311 A2.4972 2.4972 0 0 1 1.37 311.7 a0.36687 0.36687 -180 0 0 0.341143
								 0.130375 A1.39216 1.39216 0 0 1 1.97 312.64 a0.876559 0.876559 -180 0 0 0.622286 0.658 L2.72 313.04
								 L2.42 312.77 A17.9435 17.9435 0 0 1 2.45 311.83 A1.32684 1.32684 -180 0 0 1.76 311.26 A1.70844 1.70844
								 0 0 1 2.08 310.37 L1.63 310.34 L1.39 310.65 A2.17995 2.17995 0 0 1 0.94 310.32 A10.4743 10.4743
								 0 0 1 0.99 309.32 A1.30312 1.30312 -180 0 0 1.33 308.62 a0.254148 0.254148 0 0 1 0.174857 -0.2835
								 L2.17 308.62 L2.27 308.42 L2.94 308.73 L3.15 309.27 a0.597431 0.597431 -180 0 0 0.0197143 0.567875
								 A1.42862 1.42862 -180 0 0 3.39 308.9 a0.890446 0.890446 0 0 1 0.517714 -0.700875 A1.60078 1.60078
								 -180 0 0 4.56 307.32 L5.04 306.84 A1.12637 1.12637 -180 0 0 5.57 306.71 A2.12393 2.12393 0 0 1 6.09
								 306.23 a0.608962 0.608962 -180 0 0 0.409714 0.21875 a0.241394 0.241394 -180 0 0 0.127714 -0.462875
								 A1.01666 1.01666 0 0 1 6.41 305.31 A2.75205 2.75205 -180 0 0 7.25 305.29 a0.883504 0.883504 0 0
								 1 0.324 0.54775 a0.765054 0.765054 -180 0 0 0.577714 -0.19775 a0.459583 0.459583 0 0 1 -0.363429
								 -0.1505 A4.89368 4.89368 0 0 1 7.61 304.63 A23.4185 23.4185 0 0 1 7.08 303.84 a0.36428 0.36428 -180
								 0 0 -0.558857 0.023625 A2.45426 2.45426 -180 0 0 6.28 303.38 a0.595916 0.595916 -180 0 0 -0.557143
								 0.5915 A1.69438 1.69438 0 0 1 5.06 304.85 a0.387363 0.387363 0 0 1 -0.0214286 -0.50575 A1.71327
								 1.71327 -180 0 0 4.5 303.73 a0.799286 0.799286 0 0 1 0.860571 -0.632625 a0.626233 0.626233 -180
								 0 0 0.621429 0.020125 a0.984791 0.984791 0 0 1 0.577714 0.0455 a0.464264 0.464264 -180 0 0 0.474
								 0.37275 A1.13012 1.13012 -180 0 0 7.85 302.42 A1.20697 1.20697 -180 0 0 6.91 302.05 A3.37804 3.37804
								 0 0 1 5.89 301.97 Z" class="st12"/>
				</g>
				<g id="shape14-61" v:mID="14" v:groupContext="shape" transform="translate(4.02686,-0.252)">
					<title>Sheet.14</title>
					<path d="M8.22 308.86 A6.24825 6.37842 -180 0 0 7.27 308.73 A6.1169 6.24434 -180 0 0 5.86 308.4 A6.38943 6.52254
								 0 0 1 5.56 307.46 A2.75191 2.80924 -180 0 0 4.42 307.17 A3.91802 3.99964 -180 0 0 3.24 306.04 a0.54941
								 0.560856 -180 0 0 -0.277714 0.3045 A2.87508 2.93497 -180 0 0 2.1 305.82 A1.23254 1.25822 0 0 1 1.74
								 306.12 a0.268863 0.274465 0 0 1 -0.192857 -0.35175 L1.01 305.75 a0.829434 0.846714 0 0 1 -0.405429
								 0.611625 A1.69011 1.72532 0 0 1 0.43 307.24 A1.0712 1.09352 -180 0 0 0 307.9 A1.20329 1.22836 -180
								 0 0 0.18 308.2 A1.88956 1.92893 -180 0 0 0.43 308.93 A2.11523 2.1593 0 0 1 0.97 309.72 A1.41048
								 1.43986 -180 0 0 1.69 310.46 a0.669188 0.68313 0 0 1 0.665143 0.54775 A18.3659 18.7485 -180 0 0
								 2.47 312.32 A1.0944 1.1172 -180 0 0 2.72 312.95 A8.4649 8.64126 -180 0 0 3.86 313.3 A32.8294 33.5134
								 0 0 1 4.87 312.75 A2.50182 2.55394 -180 0 0 6.05 312.03 a0.465883 0.475589 0 0 1 0.363429 -0.462875
								 A1.35389 1.3821 -180 0 0 7.49 311.31 a0.806845 0.823654 -180 0 0 0.383143 -0.679 a0.632932 0.646118
								 0 0 1 0.324857 -0.61075 A2.54119 2.59414 -180 0 0 8.79 308.97 a0.888298 0.888298 -180 0 0 -0.576
								 -0.11025 Z" class="st13"/>
				</g>
				<g id="shape15-65" v:mID="15" v:groupContext="shape" transform="translate(15.7611,-7.42787)">
					<title>Sheet.15</title>
					<path d="M3.54 310.1 A10.1307 10.3418 -180 0 0 3.43 309.16 L2.89 307.21 A8.90513 9.09065 -180 0 0 2.81 306.99
								 L2.49 306.36 L2.3 306.51 L2.23 306.9 a0.761706 0.777575 0 0 1 -0.534 -0.01925 a0.791305 0.807791
								 -180 0 0 -0.407143 -0.68075 A4.44742 4.44742 0 0 1 0.75 307.1 a0.305519 0.305519 -180 0 0 -0.404571
								 0.28525 A9.13728 9.13728 0 0 1 0.38 308.13 A6.08641 6.08641 -180 0 0 0 309.75 A11.4888 11.4888 0
								 0 1 0.21 310.87 A1.11197 1.11197 -180 0 0 0.25 311.99 a0.776167 0.776167 0 0 1 0.538286 0.41475
								 a0.619771 0.619771 -180 0 0 0.408857 0.525875 A2.93259 2.93259 -180 0 0 1.89 312.55 A3.29105 3.29105
								 0 0 1 2.45 311.81 a0.327486 0.327486 0 0 1 0.277714 0.175875 L3.04 311.85 L2.98 312.49 A2.67956
								 2.67956 -180 0 0 3.17 313.3 A1.38137 1.38137 -180 0 0 3.41 312.63 A9.42139 9.42139 -180 0 0 3.54
								 311.61 L3.54 310.1 L3.54 310.1 Z" class="st14"/>
				</g>
				<g id="shape16-69" v:mID="16" v:groupContext="shape" transform="translate(12.9271,-13.8265)">
					<title>Sheet.16</title>
					<path d="M0.13 308.47 A3.12047 3.18548 0 0 1 0.82 308.97 a0.378691 0.386581 -180 0 0 0.0882857 0.39375 A23.7119
								 24.2059 -180 0 0 1.38 309.6 a0.260671 0.266101 0 0 1 0.386571 0.046375 A6.29027 6.42132 -180 0 0
								 1.87 310.02 a0.255196 0.260512 -180 0 0 0.151714 -0.35175 A4.91657 5.019 -180 0 0 1.46 309.03 A7.502
								 7.65829 0 0 1 2.28 309.6 a0.367993 0.37566 0 0 1 -8.88178E-16 0.5285 A1.30405 1.33121 -180 0 0 2.47
								 310.78 L2.19 311.29 A1.34942 1.37753 0 0 1 2.75 311.99 a0.719241 0.734225 -180 0 0 -0.495429 0.174125
								 A5.01916 5.12373 -180 0 0 2.53 312.87 a0.476986 0.486923 -180 0 0 0.601714 0.41475 a0.545402 0.556764
								 -180 0 0 0.211714 -0.590625 A13.1212 13.3946 -180 0 0 3.18 312.08 A1.04317 1.0649 0 0 1 3.3 311.62
								 A1.21451 1.23982 -180 0 0 4.06 311.95 A2.35887 2.40801 -180 0 0 4.31 311.12 a0.435863 0.444944 -180
								 0 0 -0.024 -0.02975 A101.001 103.106 -180 0 0 2.64 309.44 A9.73201 9.93476 -180 0 0 0.52 308.17
								 A2.18313 2.22861 -180 0 0 0.05 308.05 a0.29717 0.303362 -180 0 0 0.0831429 0.415625 Z"
							class="st12"/>
				</g>
				<g id="shape17-72" v:mID="17" v:groupContext="shape" transform="translate(7.15886,-16.8472)">
					<title>Sheet.17</title>
					<path d="M-0 311.29 A62.103 63.3969 0 0 1 1.03 311.43 A10.7646 10.9888 -180 0 0 1.32 311.42 a0.27159 0.277249
								 0 0 1 0.333429 -0.177625 a0.856279 0.874118 0 0 1 0.859714 0.4795 a0.19563 0.199706 -180 0 0 0.163714
								 0.2765 L2.7 311.98 a0.0793712 0.0810248 0 0 1 -0.0222857 0.014875 a0.344956 0.352142 -180 0 0 -0.186
								 0.450625 A3.70629 3.78351 -180 0 0 2.93 313.15 a0.774921 0.791065 0 0 1 0.335143 0.048125 a0.314828
								 0.321387 -180 0 0 0.369429 0.063 A1.14059 1.16436 -180 0 0 3.68 312.56 a0.880573 0.898918 -180 0
								 0 0.489429 -0.49 a0.265212 0.270737 -180 0 0 0.0985714 -0.478625 A2.38235 2.43199 -180 0 0 3.48
								 310.99 L3.1 310.84 L3.48 310.78 a0.802334 0.819049 -180 0 0 0.492857 -0.21175 A8.61953 8.79911 -180
								 0 0 2.15 310.42 A10.2413 10.4546 -180 0 0 1.66 310.45 L0.22 310.7 A4.5795 4.6749 -180 0 0 0.02 310.75
								 A1.30536 1.33255 0 0 1 -0 311.29 Z" class="st15"/>
				</g>
			</g>
			<g id="shape18-79" v:mID="18" v:groupContext="shape" transform="translate(9.87771,-16.7002)">
				<title>Sheet.18</title>
				<path d="M10.06 292.77 A10.0275 10.2364 -180 0 0 2.95 295.78 A10.0263 10.2352 -180 0 0 0 303.03 A10.0247 10.2336
							 -180 0 0 2.95 310.29 A10.0282 10.2371 -180 0 0 10.06 313.3 A10.0282 10.2371 -180 0 0 17.17 310.29 A10.0247
							 10.2336 -180 0 0 20.12 303.03 A10.0263 10.2352 -180 0 0 17.17 295.78 A9.92604 9.92604 -180 0 0 10.06
							 292.77 ZM10.06 312.86 A9.60092 9.80094 0 0 1 3.25 309.98 A9.59747 9.79741 0 0 1 0.43 303.03 A9.59885
							 9.79883 0 0 1 3.25 296.09 A9.6004 9.80041 0 0 1 10.06 293.2 A9.6004 9.80041 0 0 1 16.86 296.09 A9.59885
							 9.79883 0 0 1 19.69 303.03 A9.59747 9.79741 0 0 1 16.86 309.98 A9.60092 9.80094 0 0 1 10.06 312.86 Z"
						class="st16"/>
			</g>
			<g id="shape19-81" v:mID="19" v:groupContext="shape" transform="translate(4.74429,-9.79475)">
				<title>Sheet.19</title>
				<path d="M0 269.89 L0 313.3 L62.43 313.3 L62.43 269.89 L0 269.89 Z" class="st17"/>
			</g>
			<g id="shape20-83" v:mID="20" v:groupContext="shape" transform="translate(35.6451,-20.5292)">
				<title>Sheet.20</title>
				<path d="M0.43 312.42 L26.69 312.42 a0.428179 0.4371 0 0 1 0.428571 0.4375 a0.429278 0.438222 0 0 1 -0.428571 0.4375
							 L0.43 313.3 a0.429278 0.438222 0 0 1 -0.428571 -0.4375 a0.428179 0.4371 0 0 1 0.428571 -0.4375 ZM0.43
							 306.7 L26.69 306.7 a0.429278 0.438222 0 0 1 0.428571 0.4375 a0.428179 0.4371 0 0 1 -0.428571 0.4375
							 L0.43 307.58 a0.428179 0.4371 0 0 1 -0.428571 -0.4375 a0.429278 0.438222 0 0 1 0.428571 -0.4375 ZM0.43
							 300.98 L26.69 300.98 a0.428179 0.4371 0 0 1 0.428571 0.4375 a0.433823 0.433823 0 0 1 -0.428571 0.4375
							 L0.43 301.85 a0.433823 0.433823 0 0 1 -0.428571 -0.4375 a0.432705 0.432705 0 0 1 0.428571 -0.4375 Z"
						class="st16"/>
			</g>
		</g>
		<g id="group27-85" transform="translate(333.75,-132.55)" v:mID="27" v:groupContext="group">
			<v:userDefs>
				<v:ud v:nameU="visVersion" v:prompt="" v:val="VT0(15):26"/>
				<v:ud v:nameU="visMasterStencil" v:prompt="" v:val="VT4(Basic_U.vssx)"/>
			</v:userDefs>
			<title>Can</title>
			<desc>Data Server</desc>
			<g id="shape28-86" v:mID="28" v:groupContext="shape">
				<title>Sheet.28</title>
				<v:userDefs>
					<v:ud v:nameU="ControlHalfHeight" v:prompt="" v:val="VT0(0.125):1"/>
					<v:ud v:nameU="FillForegnd" v:prompt="" v:val="VT5(1)"/>
					<v:ud v:nameU="FillForegnd" v:prompt="" v:val="VT5(#668bb3)"/>
				</v:userDefs>
				<path d="M0 304.3 A36 9 -180 1 0 72 304.3 L72 232.3 L0 232.3 L0 304.3 Z" class="st18"/>
			</g>
			<g id="shape27-88" v:mID="27" v:groupContext="groupContent">
				<v:textBlock v:margins="rect(4,4,4,4)"/>
				<v:textRect cx="36" cy="268.3" width="72" height="90"/>
				<ellipse cx="36" cy="232.3" rx="36" ry="9" class="st18"/>
				<text x="12.31" y="271.3" class="st19" v:langID="1033"><v:paragraph v:horizAlign="1"/><v:tabList/>Data Server</text>			</g>
		</g>
		<g id="shape29-91" v:mID="29" v:groupContext="shape" transform="translate(322.306,-33.55)">
			<title>Ellipse</title>
			<desc>Web Sever</desc>
			<v:userDefs>
				<v:ud v:nameU="visVersion" v:val="VT0(15):26"/>
				<v:ud v:nameU="visMasterStencil" v:prompt="" v:val="VT4(Basic_U.vssx)"/>
			</v:userDefs>
			<v:textBlock v:margins="rect(4,4,4,4)"/>
			<v:textRect cx="47.444" cy="277.3" width="83.03" height="63"/>
			<path d="M0 277.3 A47.444 36 0 1 1 94.89 277.3 A47.444 36 0 1 1 0 277.3 Z" class="st20"/>
			<text x="25.48" y="280.3" class="st19" v:langID="1033"><v:paragraph v:horizAlign="1"/><v:tabList/>Web Sever</text>		</g>
		<g id="shape30-96" v:mID="30" v:groupContext="shape" v:layerMember="1" transform="translate(360.75,-105.55)">
			<title>Dynamic connector</title>
			<path d="M9 313.3 L9 293.34" class="st21"/>
		</g>
		<g id="group35-102" transform="translate(243.75,-42.55)" v:mID="35" v:groupContext="group" v:layerMember="0">
			<v:custProps>
				<v:cp v:nameU="BpmnElementType" v:lbl="ElementType" v:prompt="" v:type="1"
						v:format="Sub-Process;Event;Gateway;Process Diagram;Pool;Lane;Artifact;Connecting Object" v:sortKey=""
						v:invis="true" v:ask="false" v:langID="1033" v:cal="0" v:val="VT4(Gateway)"/>
				<v:cp v:nameU="BpmnId" v:lbl="Id" v:prompt="" v:type="0" v:format="" v:sortKey="" v:invis="true" v:ask="false"
						v:langID="1033" v:cal="0" v:val="VT4()"/>
				<v:cp v:nameU="BpmnCategories" v:lbl="Categories" v:prompt="" v:type="0" v:format="" v:sortKey="" v:invis="false"
						v:ask="false" v:langID="1033" v:cal="0" v:val="VT4()"/>
				<v:cp v:nameU="BpmnDocumentation" v:lbl="Documentation" v:prompt="" v:type="0" v:format="" v:sortKey=""
						v:invis="false" v:ask="false" v:langID="1033" v:cal="0" v:val="VT4()"/>
				<v:cp v:nameU="BpmnName" v:lbl="Name" v:prompt="" v:type="0" v:format="" v:sortKey="" v:invis="true" v:ask="false"
						v:langID="1033" v:cal="0" v:val="VT4()"/>
				<v:cp v:nameU="BpmnGatewayType" v:lbl="GatewayType" v:prompt="" v:type="1"
						v:format="Exclusive;Exclusive Event (Instantiate);Inclusive;Parallel;Parallel Event (Instantiate);Complex"
						v:sortKey="" v:invis="false" v:ask="false" v:langID="1033" v:cal="0" v:val="VT4(Exclusive)"/>
				<v:cp v:nameU="BpmnExclusiveType" v:lbl="ExclusiveType" v:prompt="" v:type="1" v:format="Data;Event" v:sortKey=""
						v:invis="false" v:ask="false" v:langID="1033" v:cal="0" v:val="VT4(Data)"/>
				<v:cp v:nameU="BpmnMarkerVisible" v:lbl="MarkerVisible" v:prompt="" v:type="3" v:format="" v:sortKey=""
						v:invis="false" v:ask="false" v:langID="1033" v:cal="0" v:val="VT0(0):5"/>
				<v:cp v:nameU="BpmnName" v:lbl="" v:prompt="" v:type="0" v:format="" v:sortKey="" v:invis="false" v:ask="false"
						v:langID="0" v:cal="0" v:val="VT4(Postback)"/>
			</v:custProps>
			<v:userDefs>
				<v:ud v:nameU="msvShapeCategories" v:prompt="" v:val="VT4(Gateway)"/>
				<v:ud v:nameU="visVersion" v:prompt="" v:val="VT0(15):26"/>
				<v:ud v:nameU="DefaultWidth" v:prompt="" v:val="VT0(1):0"/>
				<v:ud v:nameU="DefaultHeight" v:prompt="" v:val="VT0(0.75):0"/>
				<v:ud v:nameU="ResizeTxtHeight" v:prompt="" v:val="VT0(0.75):0"/>
			</v:userDefs>
			<title>Gateway</title>
			<desc>Postback</desc>
			<g id="shape36-103" v:mID="36" v:groupContext="shape" v:layerMember="0">
				<title>Sheet.36</title>
				<path d="M28.69 313.3 L57.38 286.3 L28.69 259.3 L0 286.3 L28.69 313.3 Z" class="st23"/>
			</g>
			<g id="shape37-105" v:mID="37" v:groupContext="shape" v:layerMember="0" transform="translate(19.8313,-13.7827)">
				<title>Sheet.37</title>
			</g>
			<g id="group38-107" transform="translate(15.39,-11.4293)" v:mID="38" v:groupContext="group" v:layerMember="0">
				<title>Sheet.38</title>
				<g id="shape39-108" v:mID="39" v:groupContext="shape" v:layerMember="0">
					<title>Sheet.39</title>
				</g>
				<g id="shape40-110" v:mID="40" v:groupContext="shape" v:layerMember="0" transform="translate(5.43996,-7.69855)">
					<title>Sheet.40</title>
				</g>
			</g>
			<g id="shape41-112" v:mID="41" v:groupContext="shape" v:layerMember="0" transform="translate(14.9336,-10.8949)">
				<title>Sheet.41</title>
			</g>
			<g id="shape42-114" v:mID="42" v:groupContext="shape" v:layerMember="0" transform="translate(16.3773,-12.8481)">
				<title>Sheet.42</title>
			</g>
			<g id="shape43-116" v:mID="43" v:groupContext="shape" v:layerMember="0" transform="translate(16.0358,-11.812)">
				<title>Sheet.43</title>
			</g>
			<g id="group44-118" transform="translate(15.39,-11.4293)" v:mID="44" v:groupContext="group" v:layerMember="0">
				<title>Sheet.44</title>
				<g id="shape45-119" v:mID="45" v:groupContext="shape" v:layerMember="0">
					<title>Sheet.45</title>
					<ellipse cx="13.2975" cy="297.729" rx="13.2975" ry="15.5707" class="st24"/>
				</g>
				<g id="shape46-121" v:mID="46" v:groupContext="shape" v:layerMember="0" transform="translate(5.43996,-7.69855)">
					<title>Sheet.46</title>
				</g>
			</g>
			<g id="group47-123" transform="translate(15.39,-11.4293)" v:mID="47" v:groupContext="group" v:layerMember="0">
				<title>Sheet.47</title>
				<g id="shape48-124" v:mID="48" v:groupContext="shape" v:layerMember="0">
					<title>Sheet.48</title>
					<ellipse cx="13.2975" cy="297.729" rx="13.2975" ry="15.5707" class="st24"/>
				</g>
				<g id="shape49-126" v:mID="49" v:groupContext="shape" v:layerMember="0" transform="translate(5.18601,-5.38746)">
					<title>Sheet.49</title>
				</g>
			</g>
			<g id="shape35-128" v:mID="35" v:groupContext="groupContent" v:layerMember="0">
				<v:textBlock v:margins="rect(2,2,2,2)"/>
				<v:textRect cx="28.6875" cy="286.3" width="60" height="40.5"/>
				<text x="14.08" y="288.7" class="st25" v:langID="1033"><v:paragraph v:horizAlign="1"/><v:tabList/>Postback</text>			</g>
		</g>
		<g id="shape62-130" v:mID="62" v:groupContext="shape" v:layerMember="0" transform="translate(249.375,-236.05)">
			<title>Event</title>
			<desc>AJAX</desc>
			<v:custProps>
				<v:cp v:nameU="Cost" v:lbl="Cost" v:type="7" v:format="@" v:langID="1033"/>
				<v:cp v:nameU="Duration" v:lbl="Duration" v:type="2" v:langID="1033"/>
				<v:cp v:nameU="Resources" v:lbl="Resources" v:langID="1033"/>
			</v:custProps>
			<v:userDefs>
				<v:ud v:nameU="visVersion" v:val="VT0(15):26"/>
			</v:userDefs>
			<v:textBlock v:margins="rect(2,2,2,2)"/>
			<v:textRect cx="28.6875" cy="295.3" width="57.38" height="36"/>
			<rect x="0" y="277.3" width="57.375" height="36" rx="9" ry="9" class="st26"/>
			<text x="20.71" y="297.7" class="st25" v:langID="1033"><v:paragraph v:horizAlign="1"/><v:tabList/>AJAX</text>		</g>
		<g id="group78-133" transform="translate(135.75,-227.05)" v:mID="78" v:groupContext="group" v:layerMember="0">
			<v:custProps>
				<v:cp v:nameU="BpmnElementType" v:lbl="ElementType" v:prompt="" v:type="1"
						v:format="Sub-Process;Event;Gateway;Process Diagram;Pool;Lane;Artifact;Connecting Object" v:sortKey=""
						v:invis="true" v:ask="false" v:langID="1033" v:cal="0" v:val="VT4(Gateway)"/>
				<v:cp v:nameU="BpmnId" v:lbl="Id" v:prompt="" v:type="0" v:format="" v:sortKey="" v:invis="true" v:ask="false"
						v:langID="1033" v:cal="0" v:val="VT4()"/>
				<v:cp v:nameU="BpmnCategories" v:lbl="Categories" v:prompt="" v:type="0" v:format="" v:sortKey="" v:invis="false"
						v:ask="false" v:langID="1033" v:cal="0" v:val="VT4()"/>
				<v:cp v:nameU="BpmnDocumentation" v:lbl="Documentation" v:prompt="" v:type="0" v:format="" v:sortKey=""
						v:invis="false" v:ask="false" v:langID="1033" v:cal="0" v:val="VT4()"/>
				<v:cp v:nameU="BpmnName" v:lbl="Name" v:prompt="" v:type="0" v:format="" v:sortKey="" v:invis="true" v:ask="false"
						v:langID="1033" v:cal="0" v:val="VT4()"/>
				<v:cp v:nameU="BpmnGatewayType" v:lbl="GatewayType" v:prompt="" v:type="1"
						v:format="Exclusive;Exclusive Event (Instantiate);Inclusive;Parallel;Parallel Event (Instantiate);Complex"
						v:sortKey="" v:invis="false" v:ask="false" v:langID="1033" v:cal="0" v:val="VT4(Exclusive)"/>
				<v:cp v:nameU="BpmnExclusiveType" v:lbl="ExclusiveType" v:prompt="" v:type="1" v:format="Data;Event" v:sortKey=""
						v:invis="false" v:ask="false" v:langID="1033" v:cal="0" v:val="VT4(Data)"/>
				<v:cp v:nameU="BpmnMarkerVisible" v:lbl="MarkerVisible" v:prompt="" v:type="3" v:format="" v:sortKey=""
						v:invis="false" v:ask="false" v:langID="1033" v:cal="0" v:val="VT0(0):5"/>
				<v:cp v:nameU="BpmnName" v:lbl="" v:prompt="" v:type="0" v:format="" v:sortKey="" v:invis="false" v:ask="false"
						v:langID="0" v:cal="0" v:val="VT4(Event)"/>
			</v:custProps>
			<v:userDefs>
				<v:ud v:nameU="msvShapeCategories" v:prompt="" v:val="VT4(Gateway)"/>
				<v:ud v:nameU="visVersion" v:prompt="" v:val="VT0(15):26"/>
				<v:ud v:nameU="DefaultWidth" v:prompt="" v:val="VT0(1):0"/>
				<v:ud v:nameU="DefaultHeight" v:prompt="" v:val="VT0(0.75):0"/>
				<v:ud v:nameU="ResizeTxtHeight" v:prompt="" v:val="VT0(0.75):0"/>
			</v:userDefs>
			<title>Gateway.78</title>
			<desc>Event</desc>
			<g id="shape79-134" v:mID="79" v:groupContext="shape" v:layerMember="0">
				<title>Sheet.79</title>
				<path d="M36 313.3 L72 286.3 L36 259.3 L0 286.3 L36 313.3 Z" class="st23"/>
			</g>
			<g id="shape80-136" v:mID="80" v:groupContext="shape" v:layerMember="0" transform="translate(24.8864,-13.7827)">
				<title>Sheet.80</title>
			</g>
			<g id="group81-138" transform="translate(19.313,-11.4293)" v:mID="81" v:groupContext="group" v:layerMember="0">
				<title>Sheet.81</title>
				<g id="shape82-139" v:mID="82" v:groupContext="shape" v:layerMember="0">
					<title>Sheet.82</title>
				</g>
				<g id="shape83-141" v:mID="83" v:groupContext="shape" v:layerMember="0" transform="translate(6.82662,-7.69855)">
					<title>Sheet.83</title>
				</g>
			</g>
			<g id="shape84-143" v:mID="84" v:groupContext="shape" v:layerMember="0" transform="translate(18.7403,-10.8949)">
				<title>Sheet.84</title>
			</g>
			<g id="shape85-145" v:mID="85" v:groupContext="shape" v:layerMember="0" transform="translate(20.5519,-12.8481)">
				<title>Sheet.85</title>
			</g>
			<g id="shape86-147" v:mID="86" v:groupContext="shape" v:layerMember="0" transform="translate(20.1234,-11.812)">
				<title>Sheet.86</title>
			</g>
			<g id="group87-149" transform="translate(19.313,-11.4293)" v:mID="87" v:groupContext="group" v:layerMember="0">
				<title>Sheet.87</title>
				<g id="shape88-150" v:mID="88" v:groupContext="shape" v:layerMember="0">
					<title>Sheet.88</title>
					<ellipse cx="16.687" cy="297.729" rx="16.687" ry="15.5707" class="st24"/>
				</g>
				<g id="shape89-152" v:mID="89" v:groupContext="shape" v:layerMember="0" transform="translate(6.82662,-7.69855)">
					<title>Sheet.89</title>
				</g>
			</g>
			<g id="group90-154" transform="translate(19.313,-11.4293)" v:mID="90" v:groupContext="group" v:layerMember="0">
				<title>Sheet.90</title>
				<g id="shape91-155" v:mID="91" v:groupContext="shape" v:layerMember="0">
					<title>Sheet.91</title>
					<ellipse cx="16.687" cy="297.729" rx="16.687" ry="15.5707" class="st24"/>
				</g>
				<g id="shape92-157" v:mID="92" v:groupContext="shape" v:layerMember="0" transform="translate(6.50793,-5.38746)">
					<title>Sheet.92</title>
				</g>
			</g>
			<g id="shape78-159" v:mID="78" v:groupContext="groupContent" v:layerMember="0">
				<v:textBlock v:margins="rect(2,2,2,2)"/>
				<v:textRect cx="36" cy="286.3" width="60" height="40.5"/>
				<text x="26.81" y="288.7" class="st25" v:langID="1033"><v:paragraph v:horizAlign="1"/><v:tabList/>Event</text>			</g>
		</g>
		<g id="shape93-161" v:mID="93" v:groupContext="shape" v:layerMember="1" transform="translate(306.75,-254.05)">
			<title>Dynamic connector.93</title>
			<path d="M0 313.3 L63 313.3 L63 337.76" class="st21"/>
		</g>
		<g id="shape94-166" v:mID="94" v:groupContext="shape" v:layerMember="1" transform="translate(207.75,-245.05)">
			<title>Dynamic connector.94</title>
			<path d="M0 304.3 L34.58 304.3" class="st21"/>
		</g>
		<g id="shape95-171" v:mID="95" v:groupContext="shape" v:layerMember="1" transform="translate(118.615,-245.05)">
			<title>Dynamic connector.95</title>
			<path d="M0.87 304.3 L10.09 304.3" class="st21"/>
		</g>
		<g id="shape96-176" v:mID="96" v:groupContext="shape" v:layerMember="1" transform="translate(171.75,-227.05)">
			<title>Dynamic connector.96</title>
			<path d="M0 313.3 L0 345.92 L-62.71 345.92" class="st21"/>
		</g>
		<g id="group97-181" transform="translate(350.625,-22.3)" v:mID="97" v:groupContext="group" v:layerMember="0">
			<v:custProps>
				<v:cp v:nameU="BpmnId" v:lbl="Id" v:prompt="" v:type="0" v:format="" v:sortKey="A" v:invis="true" v:ask="false"
						v:langID="1033" v:cal="0" v:val="VT4()"/>
				<v:cp v:nameU="BpmnCategories" v:lbl="Categories" v:prompt="" v:type="0" v:format="" v:sortKey="A" v:invis="false"
						v:ask="false" v:langID="1033" v:cal="0" v:val="VT4()"/>
				<v:cp v:nameU="BpmnDocumentation" v:lbl="Documentation" v:prompt="" v:type="0" v:format="" v:sortKey="A"
						v:invis="false" v:ask="false" v:langID="1033" v:cal="0" v:val="VT4()"/>
				<v:cp v:nameU="BpmnName" v:lbl="Name" v:prompt="" v:type="0" v:format="" v:sortKey="A" v:invis="true" v:ask="false"
						v:langID="1033" v:cal="0" v:val="VT4()"/>
				<v:cp v:nameU="BpmnEventType" v:lbl="EventType" v:prompt="" v:type="1"
						v:format="Start;Start (Non-Interrupting);Intermediate;Intermediate (Non-Interrupting);Intermediate (Throwing);End"
						v:sortKey="B" v:invis="false" v:ask="false" v:langID="1033" v:cal="0" v:val="VT4(End)"/>
				<v:cp v:nameU="BpmnTriggerOrResult" v:lbl="TriggerOrResult" v:prompt="" v:type="1"
						v:format="None;Message;Error;Cancel;Compensation;Signal;Terminate;Multiple;Escalation" v:sortKey="B"
						v:invis="true" v:ask="false" v:langID="1033" v:cal="0" v:val="VT4(None)"/>
				<v:cp v:nameU="BpmnTriggerOrResult_Start" v:lbl="TriggerOrResult" v:prompt="" v:type="1"
						v:format="None;Message;Timer;Conditional;Signal;Multiple;Error;Compensation;Escalation;Parallel Multiple"
						v:sortKey="B" v:invis="true" v:ask="false" v:langID="1033" v:cal="0" v:val="VT4(None)"/>
				<v:cp v:nameU="BpmnTriggerOrResult_Intermediate" v:lbl="TriggerOrResult" v:prompt="" v:type="1"
						v:format="None;Message;Timer;Error;Cancel;Compensation;Conditional;Link;Signal;Multiple;Escalation;Parallel Multiple"
						v:sortKey="B" v:invis="true" v:ask="false" v:langID="1033" v:cal="0" v:val="VT4(None)"/>
				<v:cp v:nameU="BpmnTriggerOrResult_End_Throwing" v:lbl="TriggerOrResult" v:prompt="" v:type="1"
						v:format="None;Message;Compensation;Link;Signal;Multiple;Escalation" v:sortKey="B" v:invis="true"
						v:ask="false" v:langID="1033" v:cal="0" v:val="VT4(None)"/>
				<v:cp v:nameU="BpmnTriggerOrResult_End" v:lbl="TriggerOrResult" v:prompt="" v:type="1"
						v:format="None;Message;Error;Cancel;Compensation;Signal;Terminate;Multiple;Escalation" v:sortKey="B"
						v:invis="false" v:ask="false" v:langID="1033" v:cal="0" v:val="VT4(None)"/>
				<v:cp v:nameU="BpmnEventDetailType" v:lbl="    EventDetailType" v:prompt="" v:type="1"
						v:format="None;Message;Timer;Error;Cancel;Compensation;Conditional;Link;Signal;Terminate;Multiple;Escalation;Parallel Multiple"
						v:sortKey="C" v:invis="true" v:ask="false" v:langID="1033" v:cal="0" v:val="VT4(None)"/>
				<v:cp v:nameU="BpmnElementType" v:lbl="ElementType" v:prompt="" v:type="1"
						v:format="Sub-Process;Event;Gateway;Process Diagram;Pool;Lane;Artifact;Connecting Object" v:sortKey="C"
						v:invis="true" v:ask="false" v:langID="1033" v:cal="0" v:val="VT4(Event)"/>
				<v:cp v:nameU="BpmnTriggerOrResult_Start_NonInterrupting" v:lbl="TriggerOrResult" v:prompt="" v:type="1"
						v:format="Message;Timer;Conditional;Signal;Multiple;Escalation;Parallel Multiple" v:sortKey="B"
						v:invis="true" v:ask="false" v:langID="1033" v:cal="0" v:val="VT4(None)"/>
				<v:cp v:nameU="BpmnTriggerOrResult_Intermediate_NonInterrupting" v:lbl="TriggerOrResult" v:prompt="" v:type="1"
						v:format="Message;Timer;Conditional;Signal;Multiple;Escalation;Parallel Multiple" v:sortKey="B"
						v:invis="true" v:ask="false" v:langID="1033" v:cal="0" v:val="VT4(None)"/>
				<v:cp v:nameU="BpmnName" v:lbl="" v:prompt="" v:type="0" v:format="" v:sortKey="" v:invis="false" v:ask="false"
						v:langID="0" v:cal="0" v:val="VT4(Render Page)"/>
			</v:custProps>
			<v:userDefs>
				<v:ud v:nameU="BPMNFillPattern" v:prompt="" v:val="VT0(1):26"/>
				<v:ud v:nameU="msvShapeCategories" v:prompt="" v:val="VT4(Event)"/>
				<v:ud v:nameU="visVersion" v:prompt="" v:val="VT0(15):26"/>
			</v:userDefs>
			<title>End Event</title>
			<desc>Render Page</desc>
			<g id="shape98-182" v:mID="98" v:groupContext="shape" v:layerMember="0">
				<title>Sheet.98</title>
				<v:userDefs>
					<v:ud v:nameU="EventTypeMode" v:prompt="" v:val="VT0(5):26"/>
				</v:userDefs>
				<ellipse cx="19.125" cy="294.175" rx="19.125" ry="19.125" class="st27"/>
			</g>
			<g id="shape99-184" v:mID="99" v:groupContext="shape" v:layerMember="0">
				<title>Sheet.99</title>
				<ellipse cx="19.125" cy="294.175" rx="15.3" ry="15.3" class="st28"/>
			</g>
			<g id="shape100-186" v:mID="100" v:groupContext="shape" v:layerMember="0" transform="translate(8.109,-8.109)">
				<title>Sheet.100</title>
				<ellipse cx="11.016" cy="302.284" rx="11.016" ry="11.016" class="st29"/>
			</g>
			<g id="shape101-188" v:mID="101" v:groupContext="shape" v:layerMember="0" transform="translate(3.825,-3.825)">
				<title>Sheet.101</title>
				<ellipse cx="15.3" cy="298" rx="15.3" ry="15.3" class="st30"/>
			</g>
			<g id="shape102-190" v:mID="102" v:groupContext="shape" v:layerMember="0" transform="translate(8.60625,-11.475)">
				<title>Sheet.102</title>
			</g>
			<g id="shape103-192" v:mID="103" v:groupContext="shape" v:layerMember="0"
					transform="translate(31.2302,-11.5416) scale(-1,1)">
				<title>Sheet.103</title>
			</g>
			<g id="shape104-194" v:mID="104" v:groupContext="shape" v:layerMember="0" transform="translate(8.74172,-8.74172)">
				<title>Sheet.104</title>
			</g>
			<g id="shape105-196" v:mID="105" v:groupContext="shape" v:layerMember="0" transform="translate(8.109,-13.1335)">
				<title>Sheet.105</title>
			</g>
			<g id="shape106-198" v:mID="106" v:groupContext="shape" v:layerMember="0" transform="translate(8.109,-9.63797)">
				<title>Sheet.106</title>
			</g>
			<g id="shape107-200" v:mID="107" v:groupContext="shape" v:layerMember="0" transform="translate(8.60625,-11.475)">
				<title>Sheet.107</title>
			</g>
			<g id="shape108-202" v:mID="108" v:groupContext="shape" v:layerMember="0" transform="translate(10.4846,-9.08438)">
				<title>Sheet.108</title>
			</g>
			<g id="shape109-204" v:mID="109" v:groupContext="shape" v:layerMember="0" transform="translate(7.65,-7.65)">
				<title>Sheet.109</title>
			</g>
			<g id="shape97-206" v:mID="97" v:groupContext="groupContent" v:layerMember="0">
				<v:textBlock v:margins="rect(2,2,2,2)"/>
				<v:textRect cx="19.125" cy="320.102" width="46.84" height="13.6036"/>
				<text x="-1.38" y="322.5" class="st31" v:langID="1033"><v:paragraph v:horizAlign="1"/><v:tabList/>Render Page</text>			</g>
		</g>
		<g id="group111-209" transform="translate(63.75,-175.3)" v:mID="111" v:groupContext="group" v:layerMember="0">
			<v:custProps>
				<v:cp v:nameU="BpmnId" v:lbl="Id" v:prompt="" v:type="0" v:format="" v:sortKey="A" v:invis="true" v:ask="false"
						v:langID="1033" v:cal="0" v:val="VT4()"/>
				<v:cp v:nameU="BpmnCategories" v:lbl="Categories" v:prompt="" v:type="0" v:format="" v:sortKey="A" v:invis="false"
						v:ask="false" v:langID="1033" v:cal="0" v:val="VT4()"/>
				<v:cp v:nameU="BpmnDocumentation" v:lbl="Documentation" v:prompt="" v:type="0" v:format="" v:sortKey="A"
						v:invis="false" v:ask="false" v:langID="1033" v:cal="0" v:val="VT4()"/>
				<v:cp v:nameU="BpmnName" v:lbl="Name" v:prompt="" v:type="0" v:format="" v:sortKey="A" v:invis="true" v:ask="false"
						v:langID="1033" v:cal="0" v:val="VT4()"/>
				<v:cp v:nameU="BpmnEventType" v:lbl="EventType" v:prompt="" v:type="1"
						v:format="Start;Start (Non-Interrupting);Intermediate;Intermediate (Non-Interrupting);Intermediate (Throwing);End"
						v:sortKey="B" v:invis="false" v:ask="false" v:langID="1033" v:cal="0" v:val="VT4(End)"/>
				<v:cp v:nameU="BpmnTriggerOrResult" v:lbl="TriggerOrResult" v:prompt="" v:type="1"
						v:format="None;Message;Error;Cancel;Compensation;Signal;Terminate;Multiple;Escalation" v:sortKey="B"
						v:invis="true" v:ask="false" v:langID="1033" v:cal="0" v:val="VT4(None)"/>
				<v:cp v:nameU="BpmnTriggerOrResult_Start" v:lbl="TriggerOrResult" v:prompt="" v:type="1"
						v:format="None;Message;Timer;Conditional;Signal;Multiple;Error;Compensation;Escalation;Parallel Multiple"
						v:sortKey="B" v:invis="true" v:ask="false" v:langID="1033" v:cal="0" v:val="VT4(None)"/>
				<v:cp v:nameU="BpmnTriggerOrResult_Intermediate" v:lbl="TriggerOrResult" v:prompt="" v:type="1"
						v:format="None;Message;Timer;Error;Cancel;Compensation;Conditional;Link;Signal;Multiple;Escalation;Parallel Multiple"
						v:sortKey="B" v:invis="true" v:ask="false" v:langID="1033" v:cal="0" v:val="VT4(None)"/>
				<v:cp v:nameU="BpmnTriggerOrResult_End_Throwing" v:lbl="TriggerOrResult" v:prompt="" v:type="1"
						v:format="None;Message;Compensation;Link;Signal;Multiple;Escalation" v:sortKey="B" v:invis="true"
						v:ask="false" v:langID="1033" v:cal="0" v:val="VT4(None)"/>
				<v:cp v:nameU="BpmnTriggerOrResult_End" v:lbl="TriggerOrResult" v:prompt="" v:type="1"
						v:format="None;Message;Error;Cancel;Compensation;Signal;Terminate;Multiple;Escalation" v:sortKey="B"
						v:invis="false" v:ask="false" v:langID="1033" v:cal="0" v:val="VT4(None)"/>
				<v:cp v:nameU="BpmnEventDetailType" v:lbl="    EventDetailType" v:prompt="" v:type="1"
						v:format="None;Message;Timer;Error;Cancel;Compensation;Conditional;Link;Signal;Terminate;Multiple;Escalation;Parallel Multiple"
						v:sortKey="C" v:invis="true" v:ask="false" v:langID="1033" v:cal="0" v:val="VT4(None)"/>
				<v:cp v:nameU="BpmnElementType" v:lbl="ElementType" v:prompt="" v:type="1"
						v:format="Sub-Process;Event;Gateway;Process Diagram;Pool;Lane;Artifact;Connecting Object" v:sortKey="C"
						v:invis="true" v:ask="false" v:langID="1033" v:cal="0" v:val="VT4(Event)"/>
				<v:cp v:nameU="BpmnTriggerOrResult_Start_NonInterrupting" v:lbl="TriggerOrResult" v:prompt="" v:type="1"
						v:format="Message;Timer;Conditional;Signal;Multiple;Escalation;Parallel Multiple" v:sortKey="B"
						v:invis="true" v:ask="false" v:langID="1033" v:cal="0" v:val="VT4(None)"/>
				<v:cp v:nameU="BpmnTriggerOrResult_Intermediate_NonInterrupting" v:lbl="TriggerOrResult" v:prompt="" v:type="1"
						v:format="Message;Timer;Conditional;Signal;Multiple;Escalation;Parallel Multiple" v:sortKey="B"
						v:invis="true" v:ask="false" v:langID="1033" v:cal="0" v:val="VT4(None)"/>
				<v:cp v:nameU="BpmnName" v:lbl="" v:prompt="" v:type="0" v:format="" v:sortKey="" v:invis="false" v:ask="false"
						v:langID="0" v:cal="0" v:val="VT4(Render Page)"/>
			</v:custProps>
			<v:userDefs>
				<v:ud v:nameU="BPMNFillPattern" v:prompt="" v:val="VT0(1):26"/>
				<v:ud v:nameU="msvShapeCategories" v:prompt="" v:val="VT4(Event)"/>
				<v:ud v:nameU="visVersion" v:prompt="" v:val="VT0(15):26"/>
			</v:userDefs>
			<title>End Event.111</title>
			<desc>Render Page</desc>
			<g id="shape112-210" v:mID="112" v:groupContext="shape" v:layerMember="0">
				<title>Sheet.112</title>
				<v:userDefs>
					<v:ud v:nameU="EventTypeMode" v:prompt="" v:val="VT0(5):26"/>
				</v:userDefs>
				<ellipse cx="19.125" cy="294.175" rx="19.125" ry="19.125" class="st27"/>
			</g>
			<g id="shape113-212" v:mID="113" v:groupContext="shape" v:layerMember="0">
				<title>Sheet.113</title>
				<ellipse cx="19.125" cy="294.175" rx="15.3" ry="15.3" class="st28"/>
			</g>
			<g id="shape114-214" v:mID="114" v:groupContext="shape" v:layerMember="0" transform="translate(8.109,-8.109)">
				<title>Sheet.114</title>
				<ellipse cx="11.016" cy="302.284" rx="11.016" ry="11.016" class="st29"/>
			</g>
			<g id="shape115-216" v:mID="115" v:groupContext="shape" v:layerMember="0" transform="translate(3.825,-3.825)">
				<title>Sheet.115</title>
				<ellipse cx="15.3" cy="298" rx="15.3" ry="15.3" class="st30"/>
			</g>
			<g id="shape116-218" v:mID="116" v:groupContext="shape" v:layerMember="0" transform="translate(8.60625,-11.475)">
				<title>Sheet.116</title>
			</g>
			<g id="shape117-220" v:mID="117" v:groupContext="shape" v:layerMember="0"
					transform="translate(31.2302,-11.5416) scale(-1,1)">
				<title>Sheet.117</title>
			</g>
			<g id="shape118-222" v:mID="118" v:groupContext="shape" v:layerMember="0" transform="translate(8.74172,-8.74172)">
				<title>Sheet.118</title>
			</g>
			<g id="shape119-224" v:mID="119" v:groupContext="shape" v:layerMember="0" transform="translate(8.109,-13.1335)">
				<title>Sheet.119</title>
			</g>
			<g id="shape120-226" v:mID="120" v:groupContext="shape" v:layerMember="0" transform="translate(8.109,-9.63797)">
				<title>Sheet.120</title>
			</g>
			<g id="shape121-228" v:mID="121" v:groupContext="shape" v:layerMember="0" transform="translate(8.60625,-11.475)">
				<title>Sheet.121</title>
			</g>
			<g id="shape122-230" v:mID="122" v:groupContext="shape" v:layerMember="0" transform="translate(10.4846,-9.08438)">
				<title>Sheet.122</title>
			</g>
			<g id="shape123-232" v:mID="123" v:groupContext="shape" v:layerMember="0" transform="translate(7.65,-7.65)">
				<title>Sheet.123</title>
			</g>
			<g id="shape111-234" v:mID="111" v:groupContext="groupContent" v:layerMember="0">
				<v:textBlock v:margins="rect(2,2,2,2)"/>
				<v:textRect cx="19.125" cy="320.102" width="46.84" height="13.6036"/>
				<text x="-1.38" y="322.5" class="st31" v:langID="1033"><v:paragraph v:horizAlign="1"/><v:tabList/>Render Page</text>			</g>
		</g>
		<g id="shape124-237" v:mID="124" v:groupContext="shape" v:layerMember="1" transform="translate(73.875,-213.55)">
			<title>Dynamic connector.124</title>
			<path d="M9 313.3 L9 301.55" class="st21"/>
		</g>
		<g id="shape134-242" v:mID="134" v:groupContext="shape" v:layerMember="1" transform="translate(301.125,-78.55)">
			<title>Dynamic connector.134</title>
			<path d="M0 322.3 L14.14 322.3" class="st21"/>
		</g>
		<g id="group135-247" transform="translate(54.75,-38.05)" v:mID="135" v:groupContext="group">
			<v:userDefs>
				<v:ud v:nameU="visVersion" v:prompt="" v:val="VT0(15):26"/>
			</v:userDefs>
			<title>Web page.135</title>
			<g id="shape136-248" v:mID="136" v:groupContext="shape" transform="translate(4.74741,-9.79475)">
				<title>Sheet.136</title>
				<path d="M0 269.89 L0 313.3 L62.43 313.3 L62.43 269.89 L0 269.89 Z" class="st3"/>
			</g>
			<g id="shape137-250" v:mID="137" v:groupContext="shape" transform="translate(5.14457,-10.2322)">
				<title>Sheet.137</title>
				<path d="M0 270.76 L0 313.3 L61.63 313.3 L61.63 270.76 L0 270.76 Z" class="st4"/>
			</g>
			<g id="shape138-253" v:mID="138" v:groupContext="shape" transform="translate(4.92171,-41.6132)">
				<title>Sheet.138</title>
				<rect x="0" y="306.251" width="62.2011" height="7.049" class="st5"/>
			</g>
			<g id="shape139-256" v:mID="139" v:groupContext="shape" transform="translate(4.92171,-47.2369)">
				<title>Sheet.139</title>
				<rect x="0" y="307.431" width="62.334" height="5.86863" class="st6"/>
			</g>
			<g id="shape140-259" v:mID="140" v:groupContext="shape" transform="translate(5.106,-44.247)">
				<title>Sheet.140</title>
				<path d="M0 313.3 L40.08 313.3" class="st7"/>
			</g>
			<g id="shape141-262" v:mID="141" v:groupContext="shape" transform="translate(42.9789,-44.247)">
				<title>Sheet.141</title>
				<path d="M0 313.3 L7.14 313.3" class="st8"/>
			</g>
			<g id="group142-265" transform="translate(10.2634,-17.1045)" v:mID="142" v:groupContext="group">
				<title>Sheet.142</title>
				<g id="shape143-266" v:mID="143" v:groupContext="shape" transform="translate(4.02771,-0.25375)">
					<title>Sheet.143</title>
					<path d="M0.97 305.9 a0.673305 0.687332 0 0 1 -0.365143 0.468125 A1.69011 1.72532 0 0 1 0.43 307.24 A1.0712 1.09352
								 -180 0 0 -0 307.9 A1.20329 1.22836 -180 0 0 0.18 308.2 A1.88956 1.92893 -180 0 0 0.43 308.93 A2.11523
								 2.1593 0 0 1 0.97 309.72 A1.41048 1.43986 -180 0 0 1.69 310.46 a0.669188 0.68313 0 0 1 0.665143
								 0.54775 A18.3659 18.7485 -180 0 0 2.47 312.32 A1.0944 1.1172 -180 0 0 2.72 312.95 A8.4649 8.64126
								 -180 0 0 3.86 313.3 A32.8294 33.5134 0 0 1 4.87 312.75 A2.50182 2.55394 -180 0 0 6.05 312.03 a0.465883
								 0.475589 0 0 1 0.363429 -0.462875 A1.35389 1.3821 -180 0 0 7.49 311.31 a0.806845 0.823654 -180 0
								 0 0.383143 -0.679 a0.632932 0.646118 0 0 1 0.324857 -0.61075 A2.54119 2.59414 -180 0 0 8.79 308.97
								 a0.901787 0.901787 -180 0 0 -0.576857 -0.1085 A6.12795 6.12795 -180 0 0 7.27 308.73 A6.01213 6.01213
								 -180 0 0 5.86 308.4 A6.6184 6.6184 0 0 1 5.56 307.46 A2.70556 2.70556 -180 0 0 4.42 307.17 A11.5171
								 11.5171 -180 0 0 3.76 306.4 A5.55337 5.55337 0 0 1 3.37 306.42 A5.76205 5.76205 0 0 1 0.97 305.9
								 Z" class="st9"/>
				</g>
				<g id="shape144-268" v:mID="144" v:groupContext="shape" transform="translate(-2.29748E-06,0)">
					<title>Sheet.144</title>
					<path d="M18.93 305.87 A2.67956 2.67956 0 0 1 18.74 305.06 L18.8 304.42 L18.49 304.56 a0.32671 0.333517 -180
								 0 0 -0.277714 -0.175875 A3.18782 3.25424 -180 0 0 17.65 305.12 A2.95178 3.01327 0 0 1 16.96 305.5
								 a0.608593 0.621272 0 0 1 -0.408857 -0.525875 a0.772547 0.788642 -180 0 0 -0.538286 -0.41475 A1.0702
								 1.09249 0 0 1 15.97 303.44 A11.0476 11.2778 -180 0 0 15.76 302.32 A5.87325 5.99561 0 0 1 16.14 300.7
								 A8.78919 8.9723 -180 0 0 16.1 299.96 a0.303112 0.309427 0 0 1 0.404571 -0.28525 A4.36431 4.45523
								 -180 0 0 17.05 298.77 a0.791305 0.807791 0 0 1 0.407143 0.68075 a0.761706 0.777575 -180 0 0 0.534
								 0.01925 L18.06 299.08 L18.25 298.93 L18.57 299.56 A9.67321 9.87473 -180 0 0 17.24 297.3 A2.35334
								 2.40237 0 0 1 16.98 298.12 A1.21451 1.23982 0 0 1 16.23 297.79 A1.04317 1.0649 -180 0 0 16.1 298.25
								 A13.1212 13.3946 0 0 1 16.27 298.86 a0.54572 0.55709 0 0 1 -0.211714 0.590625 a0.476171 0.486091
								 0 0 1 -0.601714 -0.41475 A4.87009 4.97155 0 0 1 15.18 298.34 a0.716907 0.731843 0 0 1 0.495429 -0.174125
								 A1.35371 1.38191 -180 0 0 15.12 297.46 L15.39 296.95 A1.30405 1.33121 0 0 1 15.2 296.3 a0.368101
								 0.37577 -180 0 0 -2.30926E-14 -0.5285 A7.502 7.65829 -180 0 0 14.39 295.21 A4.91657 5.019 0 0 1
								 14.95 295.84 a0.255196 0.260512 0 0 1 -0.151714 0.35175 A6.03608 6.16183 0 0 1 14.69 295.82 a0.261573
								 0.267022 -180 0 0 -0.386571 -0.044625 A30.0874 30.7143 0 0 1 13.83 295.54 a0.383146 0.391128 0 0
								 1 -0.0882857 -0.39375 A3.07067 3.13465 -180 0 0 13.06 294.64 a0.297655 0.303856 0 0 1 -0.084 -0.415625
								 A2.19469 2.24041 0 0 1 13.45 294.34 A9.65291 9.85401 -180 0 0 9.67 293.56 A12.5078 12.7684 -180
								 0 0 9.31 293.58 A8.61953 8.79911 0 0 1 11.13 293.72 a0.797451 0.814065 0 0 1 -0.492857 0.21175 L10.26
								 293.99 L10.64 294.15 A2.3775 2.42703 0 0 1 11.43 294.75 a0.265444 0.270974 0 0 1 -0.0985714 0.478625
								 a0.416386 0.42506 0 0 1 -0.166286 0.26775 A5.89455 6.01735 0 0 1 13.31 300.14 A5.90182 6.02477 0
								 0 1 7.78 306.15 A11.3446 11.5809 0 0 1 8.45 306.92 A2.75191 2.80924 0 0 1 9.59 307.21 A6.27972 6.41055
								 -180 0 0 9.88 308.15 A6.1169 6.24434 0 0 1 11.3 308.47 A6.26252 6.39299 0 0 1 12.24 308.61 a0.91878
								 0.937921 0 0 1 0.576857 0.1085 A2.53538 2.5882 0 0 1 12.22 309.77 a0.634205 0.647418 -180 0 0 -0.324857
								 0.61075 a0.806845 0.823654 0 0 1 -0.383143 0.679 A1.36058 1.38892 0 0 1 10.44 311.32 a0.466846 0.476572
								 -180 0 0 -0.363429 0.462875 A2.50182 2.55394 0 0 1 8.9 312.5 A32.8294 33.5134 -180 0 0 7.89 313.05
								 A8.59346 8.77249 0 0 1 6.75 312.7 A1.0966 1.11945 0 0 1 6.5 312.06 A18.3659 18.7485 0 0 1 6.39 310.75
								 a0.669829 0.683783 -180 0 0 -0.665143 -0.54775 A1.4101 1.43948 0 0 1 5 309.46 A2.11523 2.1593 -180
								 0 0 4.46 308.67 A1.88956 1.92893 0 0 1 4.2 307.95 A1.18403 1.2087 0 0 1 4.03 307.64 A1.0712 1.09352
								 0 0 1 4.46 306.99 A1.69011 1.72532 -180 0 0 4.63 306.11 a0.673305 0.687332 -180 0 0 0.365143 -0.468125
								 A5.85661 5.97862 0 0 1 3.71 304.84 A34.4274 35.1447 -180 0 0 3.71 305.3 L4.01 305.56 L3.88 305.83
								 a0.868441 0.886534 0 0 1 -0.622286 -0.658 A1.34661 1.37467 -180 0 0 3 304.36 a0.370275 0.377989
								 0 0 1 -0.341143 -0.130375 A2.46653 2.51791 -180 0 0 2.27 303.53 L1.87 303.44 A3.47012 3.54242 0
								 0 1 1.43 302.37 A8.74079 8.92289 0 0 1 1.43 299.1 A7.15729 7.3064 0 0 1 1.9 297.95 A5.89236 6.01511
								 0 0 1 2.4 296.94 A9.60682 9.80696 -180 0 0 0 303.43 A9.773 9.773 -180 0 0 9.67 313.3 A9.72296 9.72296
								 -180 0 0 19.18 305.2 A1.38137 1.38137 0 0 1 18.93 305.87 Z" class="st10"/>
				</g>
				<g id="shape145-271" v:mID="145" v:groupContext="shape" transform="translate(1.89857,-15.3457)">
					<title>Sheet.145</title>
					<path d="M2.15 310.77 A9.16896 9.16896 0 0 1 4.1 309.7 a0.36035 0.36035 -180 0 0 0.130286 0.462 A1.18915 1.18915
								 0 0 1 4.81 309.7 A1.96671 1.96671 -180 0 0 5.26 309.79 A1.60975 1.60975 0 0 1 5.31 309.46 A5.86877
								 5.86877 -180 0 0 4.28 309.59 A9.69339 9.69339 -180 0 0 0.5 312.28 A6.13098 6.13098 -180 0 0 0 313.3
								 A6.76521 6.76521 0 0 1 2.15 310.77 Z" class="st11"/>
				</g>
				<g id="shape146-274" v:mID="146" v:groupContext="shape" transform="translate(2.22426,-7.1575)">
					<title>Sheet.146</title>
					<path d="M8.57 303.57 a0.316132 0.322718 0 0 1 -0.369429 -0.063 a0.789094 0.805533 -180 0 0 -0.335143 -0.048125
								 A3.70629 3.78351 0 0 1 7.42 302.76 a0.344226 0.351397 0 0 1 0.186 -0.450625 a0.194981 0.199043 0
								 0 1 -0.163714 -0.2765 a0.856279 0.874118 -180 0 0 -0.859714 -0.4795 a0.27159 0.277249 -180 0 0 -0.333429
								 0.177625 A10.7646 10.9888 0 0 1 5.96 301.74 A1.22191 1.24737 0 0 1 6.91 302.1 A1.11009 1.13322 0
								 0 1 6.1 303.22 a0.460537 0.470132 0 0 1 -0.474 -0.37275 A1.00398 1.02489 -180 0 0 5.04 302.8 a0.637622
								 0.650906 0 0 1 -0.621429 -0.020125 a0.797132 0.813739 -180 0 0 -0.860571 0.632625 A1.68716 1.72231
								 0 0 1 4.1 304.03 a0.373913 0.381702 -180 0 0 0.0214286 0.50575 A1.66521 1.6999 -180 0 0 4.79 303.66
								 a0.590646 0.602951 0 0 1 0.557143 -0.5915 A2.31428 2.36249 0 0 1 5.58 303.55 a0.369002 0.376689
								 0 0 1 0.558857 -0.023625 A22.0247 22.4835 -180 0 0 6.67 304.31 A4.70739 4.80546 -180 0 0 6.84 305.17
								 a0.465345 0.475039 -180 0 0 0.363429 0.1505 a0.77431 0.790442 0 0 1 -0.577714 0.19775 a0.863157
								 0.881139 -180 0 0 -0.324 -0.54775 A2.77881 2.8367 0 0 1 5.47 304.99 a0.981448 1.00189 -180 0 0 0.212571
								 0.678125 a0.236438 0.241364 0 0 1 -0.127714 0.462875 a0.610775 0.623499 0 0 1 -0.409714 -0.21875
								 A2.10743 2.15133 -180 0 0 4.63 306.39 A1.13498 1.15863 0 0 1 4.1 306.52 L3.62 307 A1.57427 1.60707
								 0 0 1 2.96 307.88 a0.872874 0.891058 -180 0 0 -0.517714 0.700875 A1.37703 1.40572 0 0 1 2.23 309.52
								 a0.57243 0.584356 0 0 1 -0.0197143 -0.567875 L2 308.41 L1.33 308.1 L1.23 308.3 L0.56 308.01 a0.250176
								 0.255388 -180 0 0 -0.174857 0.2835 A1.27292 1.29944 0 0 1 0.04 309 A10.3289 10.5441 -180 0 0 0 310
								 A2.17826 2.22364 -180 0 0 0.45 310.33 L0.69 310.03 L1.14 310.05 A1.65241 1.68683 -180 0 0 0.82 310.94
								 A1.32468 1.35228 0 0 1 1.5 311.51 A7.01285 7.15896 -180 0 0 1.49 312 A5.85661 5.97862 -180 0 0 2.77
								 312.8 A2.23224 2.27875 -180 0 0 2.81 312.65 L3.35 312.67 a0.267935 0.273517 -180 0 0 0.192857 0.35175
								 A1.21949 1.24489 -180 0 0 3.91 312.72 A2.85718 2.9167 0 0 1 4.76 313.24 a0.54941 0.560856 0 0 1
								 0.277714 -0.3045 a0.839747 0.857242 0 0 1 0.516 0.36225 A5.90119 6.02413 -180 0 0 11.08 307.29 A5.89455
								 6.01735 -180 0 0 8.94 302.65 A1.71184 1.71184 0 0 1 8.62 302.87 A1.1949 1.1949 0 0 1 8.57 303.57
								 Z" class="st11"/>
				</g>
				<g id="shape147-277" v:mID="147" v:groupContext="shape" transform="translate(1.28583,-7.47337)">
					<title>Sheet.147</title>
					<path d="M5.89 301.97 a0.073282 0.0748087 0 0 1 -0.0162857 -0.051625 A1.9428 1.98327 0 0 1 5.43 301.83 A1.19407
								 1.21894 -180 0 0 4.85 302.29 a0.348728 0.355993 0 0 1 -0.130286 -0.462 A9.28842 9.48193 -180 0 0
								 2.77 302.9 A6.82776 6.97 -180 0 0 0.15 306.58 A8.74251 8.92464 -180 0 0 0.15 309.84 A3.56962 3.56962
								 -180 0 0 0.58 310.91 L0.99 311 A2.4972 2.4972 0 0 1 1.37 311.7 a0.36687 0.36687 -180 0 0 0.341143
								 0.130375 A1.39216 1.39216 0 0 1 1.97 312.64 a0.876559 0.876559 -180 0 0 0.622286 0.658 L2.72 313.04
								 L2.42 312.77 A17.9435 17.9435 0 0 1 2.45 311.83 A1.32684 1.32684 -180 0 0 1.76 311.26 A1.70844 1.70844
								 0 0 1 2.08 310.37 L1.63 310.34 L1.39 310.65 A2.17995 2.17995 0 0 1 0.94 310.32 A10.4743 10.4743
								 0 0 1 0.99 309.32 A1.30312 1.30312 -180 0 0 1.33 308.62 a0.254148 0.254148 0 0 1 0.174857 -0.2835
								 L2.17 308.62 L2.27 308.42 L2.94 308.73 L3.15 309.27 a0.597431 0.597431 -180 0 0 0.0197143 0.567875
								 A1.42862 1.42862 -180 0 0 3.39 308.9 a0.890446 0.890446 0 0 1 0.517714 -0.700875 A1.60078 1.60078
								 -180 0 0 4.56 307.32 L5.04 306.84 A1.12637 1.12637 -180 0 0 5.57 306.71 A2.12393 2.12393 0 0 1 6.09
								 306.23 a0.608962 0.608962 -180 0 0 0.409714 0.21875 a0.241394 0.241394 -180 0 0 0.127714 -0.462875
								 A1.01666 1.01666 0 0 1 6.41 305.31 A2.75205 2.75205 -180 0 0 7.25 305.29 a0.883504 0.883504 0 0
								 1 0.324 0.54775 a0.765054 0.765054 -180 0 0 0.577714 -0.19775 a0.459583 0.459583 0 0 1 -0.363429
								 -0.1505 A4.89368 4.89368 0 0 1 7.61 304.63 A23.4185 23.4185 0 0 1 7.08 303.84 a0.36428 0.36428 -180
								 0 0 -0.558857 0.023625 A2.45426 2.45426 -180 0 0 6.28 303.38 a0.595916 0.595916 -180 0 0 -0.557143
								 0.5915 A1.69438 1.69438 0 0 1 5.06 304.85 a0.387363 0.387363 0 0 1 -0.0214286 -0.50575 A1.71327
								 1.71327 -180 0 0 4.5 303.73 a0.799286 0.799286 0 0 1 0.860571 -0.632625 a0.626233 0.626233 -180
								 0 0 0.621429 0.020125 a0.984791 0.984791 0 0 1 0.577714 0.0455 a0.464264 0.464264 -180 0 0 0.474
								 0.37275 A1.13012 1.13012 -180 0 0 7.85 302.42 A1.20697 1.20697 -180 0 0 6.91 302.05 A3.37804 3.37804
								 0 0 1 5.89 301.97 Z" class="st12"/>
				</g>
				<g id="shape148-280" v:mID="148" v:groupContext="shape" transform="translate(4.02686,-0.252)">
					<title>Sheet.148</title>
					<path d="M8.22 308.86 A6.24825 6.37842 -180 0 0 7.27 308.73 A6.1169 6.24434 -180 0 0 5.86 308.4 A6.38943 6.52254
								 0 0 1 5.56 307.46 A2.75191 2.80924 -180 0 0 4.42 307.17 A3.91802 3.99964 -180 0 0 3.24 306.04 a0.54941
								 0.560856 -180 0 0 -0.277714 0.3045 A2.87508 2.93497 -180 0 0 2.1 305.82 A1.23254 1.25822 0 0 1 1.74
								 306.12 a0.268863 0.274465 0 0 1 -0.192857 -0.35175 L1.01 305.75 a0.829434 0.846714 0 0 1 -0.405429
								 0.611625 A1.69011 1.72532 0 0 1 0.43 307.24 A1.0712 1.09352 -180 0 0 0 307.9 A1.20329 1.22836 -180
								 0 0 0.18 308.2 A1.88956 1.92893 -180 0 0 0.43 308.93 A2.11523 2.1593 0 0 1 0.97 309.72 A1.41048
								 1.43986 -180 0 0 1.69 310.46 a0.669188 0.68313 0 0 1 0.665143 0.54775 A18.3659 18.7485 -180 0 0
								 2.47 312.32 A1.0944 1.1172 -180 0 0 2.72 312.95 A8.4649 8.64126 -180 0 0 3.86 313.3 A32.8294 33.5134
								 0 0 1 4.87 312.75 A2.50182 2.55394 -180 0 0 6.05 312.03 a0.465883 0.475589 0 0 1 0.363429 -0.462875
								 A1.35389 1.3821 -180 0 0 7.49 311.31 a0.806845 0.823654 -180 0 0 0.383143 -0.679 a0.632932 0.646118
								 0 0 1 0.324857 -0.61075 A2.54119 2.59414 -180 0 0 8.79 308.97 a0.888298 0.888298 -180 0 0 -0.576
								 -0.11025 Z" class="st13"/>
				</g>
				<g id="shape149-283" v:mID="149" v:groupContext="shape" transform="translate(15.7611,-7.42787)">
					<title>Sheet.149</title>
					<path d="M3.54 310.1 A10.1307 10.3418 -180 0 0 3.43 309.16 L2.89 307.21 A8.90513 9.09065 -180 0 0 2.81 306.99
								 L2.49 306.36 L2.3 306.51 L2.23 306.9 a0.761706 0.777575 0 0 1 -0.534 -0.01925 a0.791305 0.807791
								 -180 0 0 -0.407143 -0.68075 A4.44742 4.44742 0 0 1 0.75 307.1 a0.305519 0.305519 -180 0 0 -0.404571
								 0.28525 A9.13728 9.13728 0 0 1 0.38 308.13 A6.08641 6.08641 -180 0 0 0 309.75 A11.4888 11.4888 0
								 0 1 0.21 310.87 A1.11197 1.11197 -180 0 0 0.25 311.99 a0.776167 0.776167 0 0 1 0.538286 0.41475
								 a0.619771 0.619771 -180 0 0 0.408857 0.525875 A2.93259 2.93259 -180 0 0 1.89 312.55 A3.29105 3.29105
								 0 0 1 2.45 311.81 a0.327486 0.327486 0 0 1 0.277714 0.175875 L3.04 311.85 L2.98 312.49 A2.67956
								 2.67956 -180 0 0 3.17 313.3 A1.38137 1.38137 -180 0 0 3.41 312.63 A9.42139 9.42139 -180 0 0 3.54
								 311.61 L3.54 310.1 L3.54 310.1 Z" class="st14"/>
				</g>
				<g id="shape150-286" v:mID="150" v:groupContext="shape" transform="translate(12.9271,-13.8265)">
					<title>Sheet.150</title>
					<path d="M0.13 308.47 A3.12047 3.18548 0 0 1 0.82 308.97 a0.378691 0.386581 -180 0 0 0.0882857 0.39375 A23.7119
								 24.2059 -180 0 0 1.38 309.6 a0.260671 0.266101 0 0 1 0.386571 0.046375 A6.29027 6.42132 -180 0 0
								 1.87 310.02 a0.255196 0.260512 -180 0 0 0.151714 -0.35175 A4.91657 5.019 -180 0 0 1.46 309.03 A7.502
								 7.65829 0 0 1 2.28 309.6 a0.367993 0.37566 0 0 1 -8.88178E-16 0.5285 A1.30405 1.33121 -180 0 0 2.47
								 310.78 L2.19 311.29 A1.34942 1.37753 0 0 1 2.75 311.99 a0.719241 0.734225 -180 0 0 -0.495429 0.174125
								 A5.01916 5.12373 -180 0 0 2.53 312.87 a0.476986 0.486923 -180 0 0 0.601714 0.41475 a0.545402 0.556764
								 -180 0 0 0.211714 -0.590625 A13.1212 13.3946 -180 0 0 3.18 312.08 A1.04317 1.0649 0 0 1 3.3 311.62
								 A1.21451 1.23982 -180 0 0 4.06 311.95 A2.35887 2.40801 -180 0 0 4.31 311.12 a0.435863 0.444944 -180
								 0 0 -0.024 -0.02975 A101.001 103.106 -180 0 0 2.64 309.44 A9.73201 9.93476 -180 0 0 0.52 308.17
								 A2.18313 2.22861 -180 0 0 0.05 308.05 a0.29717 0.303362 -180 0 0 0.0831429 0.415625 Z"
							class="st12"/>
				</g>
				<g id="shape151-289" v:mID="151" v:groupContext="shape" transform="translate(7.15886,-16.8472)">
					<title>Sheet.151</title>
					<path d="M-0 311.29 A62.103 63.3969 0 0 1 1.03 311.43 A10.7646 10.9888 -180 0 0 1.32 311.42 a0.27159 0.277249
								 0 0 1 0.333429 -0.177625 a0.856279 0.874118 0 0 1 0.859714 0.4795 a0.19563 0.199706 -180 0 0 0.163714
								 0.2765 L2.7 311.98 a0.0793712 0.0810248 0 0 1 -0.0222857 0.014875 a0.344956 0.352142 -180 0 0 -0.186
								 0.450625 A3.70629 3.78351 -180 0 0 2.93 313.15 a0.774921 0.791065 0 0 1 0.335143 0.048125 a0.314828
								 0.321387 -180 0 0 0.369429 0.063 A1.14059 1.16436 -180 0 0 3.68 312.56 a0.880573 0.898918 -180 0
								 0 0.489429 -0.49 a0.265212 0.270737 -180 0 0 0.0985714 -0.478625 A2.38235 2.43199 -180 0 0 3.48
								 310.99 L3.1 310.84 L3.48 310.78 a0.802334 0.819049 -180 0 0 0.492857 -0.21175 A8.61953 8.79911 -180
								 0 0 2.15 310.42 A10.2413 10.4546 -180 0 0 1.66 310.45 L0.22 310.7 A4.5795 4.6749 -180 0 0 0.02 310.75
								 A1.30536 1.33255 0 0 1 -0 311.29 Z" class="st15"/>
				</g>
			</g>
			<g id="shape152-292" v:mID="152" v:groupContext="shape" transform="translate(9.87771,-16.7002)">
				<title>Sheet.152</title>
				<path d="M10.06 292.77 A10.0275 10.2364 -180 0 0 2.95 295.78 A10.0263 10.2352 -180 0 0 0 303.03 A10.0247 10.2336
							 -180 0 0 2.95 310.29 A10.0282 10.2371 -180 0 0 10.06 313.3 A10.0282 10.2371 -180 0 0 17.17 310.29 A10.0247
							 10.2336 -180 0 0 20.12 303.03 A10.0263 10.2352 -180 0 0 17.17 295.78 A9.92604 9.92604 -180 0 0 10.06
							 292.77 ZM10.06 312.86 A9.60092 9.80094 0 0 1 3.25 309.98 A9.59747 9.79741 0 0 1 0.43 303.03 A9.59885
							 9.79883 0 0 1 3.25 296.09 A9.6004 9.80041 0 0 1 10.06 293.2 A9.6004 9.80041 0 0 1 16.86 296.09 A9.59885
							 9.79883 0 0 1 19.69 303.03 A9.59747 9.79741 0 0 1 16.86 309.98 A9.60092 9.80094 0 0 1 10.06 312.86 Z"
						class="st16"/>
			</g>
			<g id="shape153-294" v:mID="153" v:groupContext="shape" transform="translate(4.74429,-9.79475)">
				<title>Sheet.153</title>
				<path d="M0 269.89 L0 313.3 L62.43 313.3 L62.43 269.89 L0 269.89 Z" class="st17"/>
			</g>
			<g id="shape154-296" v:mID="154" v:groupContext="shape" transform="translate(35.6451,-20.5292)">
				<title>Sheet.154</title>
				<path d="M0.43 312.42 L26.69 312.42 a0.428179 0.4371 0 0 1 0.428571 0.4375 a0.429278 0.438222 0 0 1 -0.428571 0.4375
							 L0.43 313.3 a0.429278 0.438222 0 0 1 -0.428571 -0.4375 a0.428179 0.4371 0 0 1 0.428571 -0.4375 ZM0.43
							 306.7 L26.69 306.7 a0.429278 0.438222 0 0 1 0.428571 0.4375 a0.428179 0.4371 0 0 1 -0.428571 0.4375
							 L0.43 307.58 a0.428179 0.4371 0 0 1 -0.428571 -0.4375 a0.429278 0.438222 0 0 1 0.428571 -0.4375 ZM0.43
							 300.98 L26.69 300.98 a0.428179 0.4371 0 0 1 0.428571 0.4375 a0.433823 0.433823 0 0 1 -0.428571 0.4375
							 L0.43 301.85 a0.433823 0.433823 0 0 1 -0.428571 -0.4375 a0.432705 0.432705 0 0 1 0.428571 -0.4375 Z"
						class="st16"/>
			</g>
		</g>
		<g id="shape158-298" v:mID="158" v:groupContext="shape" v:layerMember="1" transform="translate(121.925,-60.55)">
			<title>Dynamic connector.158</title>
			<path d="M0 304.3 L114.79 304.3" class="st21"/>
		</g>
		<g id="shape159-303" v:mID="159" v:groupContext="shape" v:layerMember="1" transform="translate(369.75,-22.3)">
			<title>Dynamic connector.159</title>
			<path d="M0 313.3 L0 326.8 L-279 326.8 L-279 294.8" class="st21"/>
		</g>
	</g>
</svg>
