<?xml version="1.0" encoding="UTF-8" standalone="no"?>
<!DOCTYPE svg PUBLIC "-//W3C//DTD SVG 1.1//EN" "http://www.w3.org/Graphics/SVG/1.1/DTD/svg11.dtd">
<!-- Generated by Microsoft Visio, SVG Export spabanner.svg Page-1 -->
<svg xmlns="http://www.w3.org/2000/svg" xmlns:xlink="http://www.w3.org/1999/xlink" xmlns:ev="http://www.w3.org/2001/xml-events"
		xmlns:v="http://schemas.microsoft.com/visio/2003/SVGExtensions/" width="2.125in" height="2.17049in"
		viewBox="0 0 153 156.275" xml:space="preserve" color-interpolation-filters="sRGB" class="st16">
	<v:documentProperties v:langID="1033" v:viewMarkup="false"/>

	<style type="text/css">
	<![CDATA[
		.st1 {fill:#ffffff;stroke:none;stroke-linecap:butt;stroke-width:0.75}
		.st2 {fill:url(#grad10-7);stroke:none;stroke-linecap:butt;stroke-width:0.75}
		.st3 {fill:url(#grad0-15);stroke:none;stroke-linecap:butt;stroke-width:0.75}
		.st4 {fill:url(#grad6-19);stroke:none;stroke-linecap:butt;stroke-width:0.75}
		.st5 {stroke:#ffffff;stroke-linecap:butt;stroke-width:0.5}
		.st6 {stroke:#19a94e;stroke-linecap:butt;stroke-width:0.5}
		.st7 {fill:none;stroke:none;stroke-linecap:butt;stroke-width:0.75}
		.st8 {fill:url(#grad1-32);stroke:none;stroke-linecap:butt;stroke-width:0.75}
		.st9 {fill:url(#grad1-36);stroke:none;stroke-linecap:butt;stroke-width:0.75}
		.st10 {fill:url(#grad6-43);stroke:none;stroke-linecap:butt;stroke-width:0.75}
		.st11 {fill:url(#grad0-47);stroke:none;stroke-linecap:butt;stroke-width:0.75}
		.st12 {fill:url(#grad0-51);stroke:none;stroke-linecap:butt;stroke-width:0.75}
		.st13 {fill:url(#grad10-58);stroke:none;stroke-linecap:butt;stroke-width:0.75}
		.st14 {fill:#2c4381;stroke:none;stroke-linecap:butt;stroke-width:0.75}
		.st15 {fill:none;stroke:#c8c8c8;stroke-width:0.25}
		.st16 {fill:none;fill-rule:evenodd;font-size:12px;overflow:visible;stroke-linecap:square;stroke-miterlimit:3}
	]]>
	</style>

	<defs id="Patterns_And_Gradients">
		<pattern id="grad10-7" x="0" y="0" width="1" height="1" patternContentUnits="objectBoundingBox">
			<path d="M 0.5 0.5 L 0 0 L 0 1 z" style="fill:url(#grad0-8)"/>
			<path d="M 0.5 0.5 L 1 0 L 1 1 z" style="fill:url(#grad0-9)"/>
			<path d="M 0.5 0.5 L 0 0 L 1 0 z" style="fill:url(#grad0-10)"/>
			<path d="M 0.5 0.5 L 0 1 L 1 1 z" style="fill:url(#grad0-11)"/>
		</pattern>
		<linearGradient id="grad0-8" x1="0" y1="0" x2="1" y2="0" gradientTransform="rotate(180 0.5 0.5)">
			<stop offset="0" stop-color="#ffffff" stop-opacity="1"/>
			<stop offset="1" stop-color="#799ae6" stop-opacity="1"/>
		</linearGradient>
		<linearGradient id="grad0-9" x1="0" y1="0" x2="1" y2="0" gradientTransform="rotate(360 0.5 0.5)">
			<stop offset="0" stop-color="#ffffff" stop-opacity="1"/>
			<stop offset="1" stop-color="#799ae6" stop-opacity="1"/>
		</linearGradient>
		<linearGradient id="grad0-10" x1="0" y1="0" x2="1" y2="0" gradientTransform="rotate(270 0.5 0.5)">
			<stop offset="0" stop-color="#ffffff" stop-opacity="1"/>
			<stop offset="1" stop-color="#799ae6" stop-opacity="1"/>
		</linearGradient>
		<linearGradient id="grad0-11" x1="0" y1="0" x2="1" y2="0" gradientTransform="rotate(90 0.5 0.5)">
			<stop offset="0" stop-color="#ffffff" stop-opacity="1"/>
			<stop offset="1" stop-color="#799ae6" stop-opacity="1"/>
		</linearGradient>
		<linearGradient id="grad0-15" x1="0" y1="0" x2="1" y2="0" gradientTransform="rotate(0 0.5 0.5)">
			<stop offset="0" stop-color="#bcbec0" stop-opacity="1"/>
			<stop offset="1" stop-color="#9d9fa1" stop-opacity="1"/>
		</linearGradient>
		<radialGradient id="grad6-19" cx="1" cy="0" r="1.4">
			<stop offset="0" stop-color="#2c4381" stop-opacity="1"/>
			<stop offset="1" stop-color="#3c61ae" stop-opacity="1"/>
		</radialGradient>
		<radialGradient id="grad1-32" cx="1" cy="1" r="1.4">
			<stop offset="0" stop-color="#1a4795" stop-opacity="1"/>
			<stop offset="1" stop-color="#086bc2" stop-opacity="1"/>
		</radialGradient>
		<radialGradient id="grad1-36" cx="1" cy="1" r="1.4">
			<stop offset="0" stop-color="#1b4995" stop-opacity="1"/>
			<stop offset="1" stop-color="#27b3dd" stop-opacity="1"/>
		</radialGradient>
		<radialGradient id="grad6-43" cx="1" cy="0" r="1.4">
			<stop offset="0" stop-color="#42bc33" stop-opacity="1"/>
			<stop offset="1" stop-color="#bde1a1" stop-opacity="1"/>
		</radialGradient>
		<linearGradient id="grad0-47" x1="0" y1="0" x2="1" y2="0" gradientTransform="rotate(270 0.5 0.5)">
			<stop offset="0" stop-color="#19a94e" stop-opacity="1"/>
			<stop offset="1" stop-color="#abd782" stop-opacity="1"/>
		</linearGradient>
		<linearGradient id="grad0-51" x1="0" y1="0" x2="1" y2="0" gradientTransform="rotate(180 0.5 0.5)">
			<stop offset="0" stop-color="#42bc33" stop-opacity="1"/>
			<stop offset="1" stop-color="#bde1a1" stop-opacity="1"/>
		</linearGradient>
		<pattern id="grad10-58" x="0" y="0" width="1" height="1" patternContentUnits="objectBoundingBox">
			<path d="M 0.5 0.5 L 0 0 L 0 1 z" style="fill:url(#grad0-51)"/>
			<path d="M 0.5 0.5 L 1 0 L 1 1 z" style="fill:url(#grad0-59)"/>
			<path d="M 0.5 0.5 L 0 0 L 1 0 z" style="fill:url(#grad0-60)"/>
			<path d="M 0.5 0.5 L 0 1 L 1 1 z" style="fill:url(#grad0-61)"/>
		</pattern>
		<linearGradient id="grad0-59" x1="0" y1="0" x2="1" y2="0" gradientTransform="rotate(360 0.5 0.5)">
			<stop offset="0" stop-color="#42bc33" stop-opacity="1"/>
			<stop offset="1" stop-color="#bde1a1" stop-opacity="1"/>
		</linearGradient>
		<linearGradient id="grad0-60" x1="0" y1="0" x2="1" y2="0" gradientTransform="rotate(270 0.5 0.5)">
			<stop offset="0" stop-color="#42bc33" stop-opacity="1"/>
			<stop offset="1" stop-color="#bde1a1" stop-opacity="1"/>
		</linearGradient>
		<linearGradient id="grad0-61" x1="0" y1="0" x2="1" y2="0" gradientTransform="rotate(90 0.5 0.5)">
			<stop offset="0" stop-color="#42bc33" stop-opacity="1"/>
			<stop offset="1" stop-color="#bde1a1" stop-opacity="1"/>
		</linearGradient>
	</defs>
	<g v:mID="0" v:index="1" v:groupContext="foregroundPage">
		<title>Page-1</title>
		<v:pageProperties v:drawingScale="1" v:pageScale="1" v:drawingUnits="0" v:shadowOffsetX="9" v:shadowOffsetY="-9"/>
		<g id="group19-1" transform="translate(0,-22.4)" v:mID="19" v:groupContext="group">
			<v:userDefs>
				<v:ud v:nameU="visVersion" v:prompt="" v:val="VT0(15):26"/>
			</v:userDefs>
			<title>Web page.5</title>
			<g id="shape20-2" v:mID="20" v:groupContext="shape" transform="translate(10.0882,-20.8138)">
				<title>Sheet.20</title>
				<path d="M0 64.03 L0 156.28 L132.66 156.28 L132.66 64.03 L0 64.03 Z" class="st1"/>
			</g>
			<g id="shape21-4" v:mID="21" v:groupContext="shape" transform="translate(10.9322,-21.7435)">
				<title>Sheet.21</title>
				<path d="M0 65.89 L0 156.28 L130.96 156.28 L130.96 65.89 L0 65.89 Z" class="st2"/>
			</g>
			<g id="shape22-12" v:mID="22" v:groupContext="shape" transform="translate(10.4586,-88.4282)">
				<title>Sheet.22</title>
				<rect x="0" y="141.296" width="132.177" height="14.9791" class="st3"/>
			</g>
			<g id="shape23-16" v:mID="23" v:groupContext="shape" transform="translate(10.4586,-100.378)">
				<title>Sheet.23</title>
				<rect x="0" y="143.804" width="132.46" height="12.4708" class="st4"/>
			</g>
			<g id="shape24-20" v:mID="24" v:groupContext="shape" transform="translate(10.8503,-94.0249)">
				<title>Sheet.24</title>
				<path d="M0 156.28 L85.18 156.28" class="st5"/>
			</g>
			<g id="shape25-23" v:mID="25" v:groupContext="shape" transform="translate(91.3301,-94.0249)">
				<title>Sheet.25</title>
				<path d="M0 156.28 L15.18 156.28" class="st6"/>
			</g>
			<g id="group26-26" transform="translate(21.8098,-36.3471)" v:mID="26" v:groupContext="group">
				<title>Sheet.26</title>
				<g id="shape27-27" v:mID="27" v:groupContext="shape" transform="translate(8.55889,-0.539219)">
					<title>Sheet.27</title>
					<path d="M2.06 140.54 A1.43077 1.46058 0 0 1 1.29 141.54 A3.59148 3.6663 0 0 1 0.91 143.4 A2.27631 2.32373 -180
								 0 0 0 144.79 A2.55699 2.61026 -180 0 0 0.38 145.45 A4.01532 4.09897 -180 0 0 0.91 146.98 A4.49486
								 4.58851 0 0 1 2.06 148.66 A2.99727 3.05971 -180 0 0 3.6 150.24 A1.42203 1.45165 0 0 1 5.01 151.4
								 A39.0275 39.8406 -180 0 0 5.24 154.18 A2.3256 2.37405 -180 0 0 5.79 155.54 A17.9879 18.3627 -180
								 0 0 8.21 156.28 A69.7625 71.2159 0 0 1 10.35 155.12 A5.31636 5.42712 -180 0 0 12.86 153.58 a0.990002
								 1.01063 0 0 1 0.772286 -0.983609 A2.87702 2.93696 -180 0 0 15.91 152.05 A1.71455 1.75026 -180 0
								 0 16.73 150.6 A1.34498 1.373 0 0 1 17.42 149.31 A5.40004 5.51254 -180 0 0 18.69 147.07 A1.9163 1.9163
								 -180 0 0 17.46 146.84 A13.0219 13.0219 -180 0 0 15.45 146.56 A12.7758 12.7758 -180 0 0 12.44 145.86
								 A14.0641 14.0641 0 0 1 11.81 143.87 A5.74931 5.74931 -180 0 0 9.39 143.26 A24.4739 24.4739 -180
								 0 0 7.98 141.61 A11.8009 11.8009 0 0 1 7.17 141.66 A12.2444 12.2444 0 0 1 2.06 140.54 Z"
							class="st7"/>
				</g>
				<g id="shape28-29" v:mID="28" v:groupContext="shape" transform="translate(-4.88214E-06,0)">
					<title>Sheet.28</title>
					<path d="M40.23 140.49 A5.69407 5.69407 0 0 1 39.82 138.77 L39.95 137.42 L39.28 137.7 a0.694259 0.708723 -180
								 0 0 -0.590143 -0.373734 A6.77412 6.91525 -180 0 0 37.5 138.9 A6.27253 6.40321 0 0 1 36.04 139.7
								 A1.29326 1.3202 0 0 1 35.18 138.58 A1.64166 1.67586 -180 0 0 34.03 137.7 A2.27417 2.32155 0 0 1
								 33.94 135.32 A23.4763 23.9653 -180 0 0 33.49 132.95 A12.4807 12.7407 0 0 1 34.3 129.5 A18.677 19.0661
								 -180 0 0 34.22 127.93 a0.644112 0.657531 0 0 1 0.859714 -0.606156 A9.27416 9.46737 -180 0 0 36.23
								 125.41 A1.68152 1.71656 0 0 1 37.09 126.86 A1.61863 1.65235 -180 0 0 38.23 126.9 L38.38 126.06 L38.78
								 125.74 L39.46 127.09 A20.5556 20.9838 -180 0 0 36.63 122.27 A5.00085 5.10504 0 0 1 36.09 124.02
								 A2.58084 2.63461 0 0 1 34.49 123.32 A2.21673 2.26292 -180 0 0 34.22 124.3 A27.8826 28.4635 0 0 1
								 34.58 125.6 A1.15966 1.18382 0 0 1 34.13 126.85 A1.01186 1.03294 0 0 1 32.85 125.97 A10.3489 10.5645
								 0 0 1 32.26 124.48 A1.52343 1.55517 0 0 1 33.31 124.11 A2.87662 2.93655 -180 0 0 32.12 122.62 L32.71
								 121.54 A2.7711 2.82883 0 0 1 32.3 120.15 a0.782215 0.798511 -180 0 0 2.84217E-14 -1.12306 A15.9418
								 16.2739 -180 0 0 30.57 117.83 A10.4477 10.6654 0 0 1 31.76 119.18 a0.542291 0.553589 0 0 1 -0.322393
								 0.747469 A12.8267 13.0939 0 0 1 31.22 119.13 a0.555842 0.567422 -180 0 0 -0.821464 -0.0948281 A63.9358
								 65.2678 0 0 1 29.39 118.53 a0.814184 0.831147 0 0 1 -0.187607 -0.836719 A6.52518 6.66112 -180 0
								 0 27.75 116.62 a0.632517 0.645694 0 0 1 -0.1785 -0.883203 A4.66372 4.76088 0 0 1 28.58 115.99 A20.5124
								 20.9398 -180 0 0 20.55 114.32 A26.5791 27.1328 -180 0 0 19.78 114.36 A18.3165 18.6981 0 0 1 23.66
								 114.66 A1.69458 1.72989 0 0 1 22.61 115.11 L21.8 115.25 L22.61 115.57 A5.05218 5.15743 0 0 1 24.29
								 116.85 a0.564068 0.575819 0 0 1 -0.209464 1.01708 a0.88482 0.903254 0 0 1 -0.353357 0.568969 A12.5259
								 12.7869 0 0 1 28.28 128.31 A12.5414 12.8026 0 0 1 16.54 141.07 A24.1072 24.6095 0 0 1 17.95 142.72
								 A5.8478 5.96963 0 0 1 20.37 143.33 A13.3444 13.6224 -180 0 0 21 145.32 A12.9984 13.2692 0 0 1 24.01
								 146.02 A13.3079 13.5851 0 0 1 26.02 146.3 A1.95241 1.99308 0 0 1 27.24 146.53 A5.38769 5.49994 0
								 0 1 25.98 148.77 A1.34769 1.37576 -180 0 0 25.29 150.06 A1.71455 1.75026 0 0 1 24.47 151.51 A2.89123
								 2.95147 0 0 1 22.19 152.06 a0.992048 1.01272 -180 0 0 -0.772286 0.983609 A5.31636 5.42712 0 0 1
								 18.91 154.58 A69.7625 71.2159 -180 0 0 16.77 155.74 A18.2611 18.6415 0 0 1 14.35 155 A2.33028 2.37883
								 0 0 1 13.8 153.64 A39.0275 39.8406 0 0 1 13.57 150.86 A1.42339 1.45304 -180 0 0 12.16 149.7 A2.99646
								 3.05889 0 0 1 10.62 148.12 A4.49486 4.58851 -180 0 0 9.47 146.44 A4.01532 4.09897 0 0 1 8.93 144.91
								 A2.51607 2.56849 0 0 1 8.56 144.25 A2.27631 2.32373 0 0 1 9.47 142.86 A3.59148 3.6663 -180 0 0 9.85
								 141 A1.43077 1.46058 -180 0 0 10.62 140 A12.4453 12.7046 0 0 1 7.89 138.31 A73.1583 74.6825 -180
								 0 0 7.88 139.28 L8.52 139.84 L8.24 140.39 A1.84544 1.88388 0 0 1 6.92 139 A2.86155 2.92117 -180
								 0 0 6.37 137.27 a0.786834 0.803226 0 0 1 -0.724929 -0.277047 A5.24137 5.35057 -180 0 0 4.83 135.51
								 L3.97 135.32 A7.37401 7.52763 0 0 1 3.05 133.04 A18.5742 18.9612 0 0 1 3.05 126.11 A15.2092 15.5261
								 0 0 1 4.03 123.66 A12.5213 12.7821 0 0 1 5.1 121.5 A20.4145 20.8398 -180 0 0 0 135.3 A20.7676 20.7676
								 -180 0 0 20.55 156.28 A20.6613 20.6613 -180 0 0 40.75 139.06 A2.93541 2.93541 0 0 1 40.23 140.49
								 Z" class="st8"/>
				</g>
				<g id="shape29-33" v:mID="29" v:groupContext="shape" transform="translate(4.03446,-32.6097)">
					<title>Sheet.29</title>
					<path d="M4.58 150.91 A19.484 19.484 0 0 1 8.72 148.62 a0.765743 0.765743 -180 0 0 0.276857 0.98175 A2.52695
								 2.52695 0 0 1 10.23 148.62 A4.17926 4.17926 -180 0 0 11.18 148.82 A3.42071 3.42071 0 0 1 11.28 148.13
								 A12.4711 12.4711 -180 0 0 9.1 148.38 A20.5984 20.5984 -180 0 0 1.07 154.11 A13.0283 13.0283 -180
								 0 0 0 156.28 A14.3761 14.3761 0 0 1 4.58 150.91 Z" class="st9"/>
				</g>
				<g id="shape30-37" v:mID="30" v:groupContext="shape" transform="translate(4.72654,-15.2097)">
					<title>Sheet.30</title>
					<path d="M18.2 135.61 a0.67178 0.685776 0 0 1 -0.785036 -0.133875 A1.67682 1.71176 -180 0 0 16.71 135.37 A7.87587
								 8.03995 0 0 1 15.78 133.88 a0.731479 0.746718 0 0 1 0.39525 -0.957578 a0.414334 0.422966 0 0 1 -0.347893
								 -0.587563 A1.81959 1.8575 -180 0 0 14 131.31 a0.57713 0.589153 -180 0 0 -0.708536 0.377453 A22.8747
								 23.3513 0 0 1 12.67 131.7 A2.59656 2.65066 0 0 1 14.68 132.48 A2.35894 2.40808 0 0 1 12.95 134.86
								 a0.978642 0.99903 0 0 1 -1.00725 -0.792094 A2.13345 2.1779 -180 0 0 10.72 133.97 A1.35495 1.38317
								 0 0 1 9.4 133.93 A1.69391 1.7292 -180 0 0 7.57 135.27 A3.58522 3.65992 0 0 1 8.71 136.57 a0.794564
								 0.811118 -180 0 0 0.0455357 1.07472 A3.53857 3.61229 -180 0 0 10.17 135.78 A1.25512 1.28127 0 0
								 1 11.35 134.53 A4.91784 5.0203 0 0 1 11.85 135.55 a0.784129 0.800465 0 0 1 1.18757 -0.0502031 A46.8025
								 47.7775 -180 0 0 14.18 137.18 A10.0032 10.2116 -180 0 0 14.54 139 a0.988857 1.00946 -180 0 0 0.772286
								 0.319813 A1.64541 1.67969 0 0 1 14.09 139.74 A1.83421 1.87242 -180 0 0 13.4 138.57 A5.90496 6.02798
								 0 0 1 11.62 138.62 A2.08558 2.12903 -180 0 0 12.08 140.06 a0.502431 0.512898 0 0 1 -0.271393 0.983609
								 A1.2979 1.32494 0 0 1 10.93 140.58 A4.47828 4.57158 -180 0 0 9.84 141.6 A2.41184 2.46209 0 0 1 8.71
								 141.88 L7.7 142.9 A3.34533 3.41503 0 0 1 6.29 144.76 A1.85486 1.8935 -180 0 0 5.19 146.25 A2.92619
								 2.98715 0 0 1 4.74 148.25 A1.21641 1.24176 0 0 1 4.7 147.04 L4.24 145.88 L2.83 145.23 L2.61 145.64
								 L1.19 145.04 a0.531625 0.5427 -180 0 0 -0.371571 0.602438 A2.70496 2.76131 0 0 1 0.09 147.14 A21.949
								 22.4063 -180 0 0 0 149.27 A4.6288 4.72523 -180 0 0 0.96 149.97 L1.46 149.32 L2.42 149.37 A3.51136
								 3.58452 -180 0 0 1.74 151.27 A2.81495 2.87359 0 0 1 3.2 152.48 A14.9023 15.2128 -180 0 0 3.16 153.51
								 A12.4453 12.7046 -180 0 0 5.89 155.21 A4.74352 4.84234 -180 0 0 5.98 154.9 L7.11 154.94 a0.569362
								 0.581223 -180 0 0 0.409821 0.747469 A2.59141 2.6454 -180 0 0 8.3 155.04 A6.0715 6.19799 0 0 1 10.13
								 156.15 A1.1675 1.19182 0 0 1 10.72 155.51 A1.78446 1.82164 0 0 1 11.81 156.28 A12.54 12.8013 -180
								 0 0 23.55 143.51 A12.5259 12.7869 -180 0 0 18.99 133.64 A3.63766 3.63766 0 0 1 18.31 134.11 A2.53916
								 2.53916 0 0 1 18.2 135.61 Z" class="st9"/>
				</g>
				<g id="shape31-40" v:mID="31" v:groupContext="shape" transform="translate(2.73239,-15.8809)">
					<title>Sheet.31</title>
					<path d="M12.51 132.19 a0.155724 0.158968 0 0 1 -0.0346071 -0.109703 A4.12844 4.21445 0 0 1 11.53 131.89 A2.5374
								 2.59026 -180 0 0 10.3 132.87 a0.741047 0.756485 0 0 1 -0.276857 -0.98175 A19.7379 20.1491 -180 0
								 0 5.88 134.18 A14.509 14.8113 -180 0 0 0.31 141.99 A18.5778 18.9649 -180 0 0 0.31 148.92 A7.58544
								 7.58544 -180 0 0 1.23 151.2 L2.09 151.39 A5.30655 5.30655 0 0 1 2.91 152.88 a0.779598 0.779598 -180
								 0 0 0.724929 0.277047 A2.95834 2.95834 0 0 1 4.19 154.88 A1.86269 1.86269 -180 0 0 5.51 156.28 L5.78
								 155.72 L5.15 155.16 A38.13 38.13 0 0 1 5.2 153.15 A2.81954 2.81954 -180 0 0 3.74 151.95 A3.63043
								 3.63043 0 0 1 4.42 150.04 L3.46 149.99 L2.96 150.65 A4.63239 4.63239 0 0 1 2 149.95 A22.2579 22.2579
								 0 0 1 2.09 147.81 A2.76913 2.76913 -180 0 0 2.82 146.32 a0.540066 0.540066 0 0 1 0.371571 -0.602438
								 L4.61 146.32 L4.83 145.91 L6.24 146.56 L6.7 147.72 A1.26954 1.26954 -180 0 0 6.74 148.93 A3.03582
								 3.03582 -180 0 0 7.19 146.93 A1.8922 1.8922 0 0 1 8.29 145.44 A3.40165 3.40165 -180 0 0 9.7 143.57
								 L10.71 142.55 A2.39353 2.39353 -180 0 0 11.84 142.27 A4.51336 4.51336 0 0 1 12.93 141.25 A1.29404
								 1.29404 -180 0 0 13.8 141.72 a0.512963 0.512963 -180 0 0 0.271393 -0.983609 A2.1604 2.1604 0 0 1
								 13.62 139.29 A5.8481 5.8481 -180 0 0 15.4 139.25 A1.87745 1.87745 0 0 1 16.09 140.41 A1.62574 1.62574
								 -180 0 0 17.31 139.99 a0.976614 0.976614 0 0 1 -0.772286 -0.319813 A10.3991 10.3991 0 0 1 16.18
								 137.85 A49.7643 49.7643 0 0 1 15.04 136.18 a0.774095 0.774095 -180 0 0 -1.18757 0.0502031 A5.21529
								 5.21529 -180 0 0 13.35 135.2 A1.26632 1.26632 -180 0 0 12.17 136.46 A3.60055 3.60055 0 0 1 10.76
								 138.32 a0.823147 0.823147 0 0 1 -0.0455357 -1.07472 A3.6407 3.6407 -180 0 0 9.57 135.95 A1.69848
								 1.69848 0 0 1 11.4 134.6 A1.33075 1.33075 -180 0 0 12.72 134.64 A2.09268 2.09268 0 0 1 13.95 134.74
								 a0.986561 0.986561 -180 0 0 1.00725 0.792094 A2.40151 2.40151 -180 0 0 16.67 133.16 A2.5648 2.5648
								 -180 0 0 14.67 132.38 A7.17833 7.17833 0 0 1 12.51 132.19 Z" class="st10"/>
				</g>
				<g id="shape32-44" v:mID="32" v:groupContext="shape" transform="translate(8.55707,-0.5355)">
					<title>Sheet.32</title>
					<path d="M17.46 146.84 A13.2775 13.5541 -180 0 0 15.46 146.56 A12.9984 13.2692 -180 0 0 12.45 145.86 A13.5775
								 13.8604 0 0 1 11.81 143.86 A5.8478 5.96963 -180 0 0 9.39 143.25 A8.32578 8.49924 -180 0 0 6.89 140.84
								 A1.1675 1.19182 -180 0 0 6.3 141.49 A6.10954 6.23682 -180 0 0 4.47 140.38 A2.61915 2.67372 0 0 1
								 3.69 141.03 a0.571335 0.583237 0 0 1 -0.409821 -0.747469 L2.15 140.24 A1.76255 1.79927 0 0 1 1.29
								 141.54 A3.59148 3.6663 0 0 1 0.91 143.4 A2.27631 2.32373 -180 0 0 -0 144.79 A2.55699 2.61026 -180
								 0 0 0.38 145.45 A4.01532 4.09897 -180 0 0 0.91 146.98 A4.49486 4.58851 0 0 1 2.06 148.66 A2.99727
								 3.05971 -180 0 0 3.6 150.24 A1.42203 1.45165 0 0 1 5.01 151.4 A39.0275 39.8406 -180 0 0 5.24 154.18
								 A2.3256 2.37405 -180 0 0 5.79 155.54 A17.9879 18.3627 -180 0 0 8.21 156.28 A69.7625 71.2159 0 0
								 1 10.35 155.12 A5.31636 5.42712 -180 0 0 12.86 153.58 a0.990002 1.01063 0 0 1 0.772286 -0.983609
								 A2.87702 2.93696 -180 0 0 15.91 152.05 A1.71455 1.75026 -180 0 0 16.73 150.6 A1.34498 1.373 0 0
								 1 17.42 149.31 A5.40004 5.51254 -180 0 0 18.69 147.07 A1.88763 1.88763 -180 0 0 17.46 146.84 Z"
							class="st11"/>
				</g>
				<g id="shape33-48" v:mID="33" v:groupContext="shape" transform="translate(33.4924,-15.7842)">
					<title>Sheet.33</title>
					<path d="M7.52 149.47 A21.5278 21.9763 -180 0 0 7.28 147.47 L6.14 143.33 A18.9234 19.3176 -180 0 0 5.97 142.87
								 L5.28 141.52 L4.89 141.84 L4.74 142.68 A1.61863 1.65235 0 0 1 3.6 142.64 A1.68152 1.71656 -180 0
								 0 2.74 141.2 A9.45076 9.45076 0 0 1 1.58 143.11 a0.649228 0.649228 -180 0 0 -0.859714 0.606156 A19.4167
								 19.4167 0 0 1 0.81 145.29 A12.9336 12.9336 -180 0 0 0 148.73 A24.4137 24.4137 0 0 1 0.45 151.11
								 A2.36293 2.36293 -180 0 0 0.54 153.48 A1.64935 1.64935 0 0 1 1.68 154.37 A1.31701 1.31701 -180 0
								 0 2.55 155.48 A6.23176 6.23176 -180 0 0 4.01 154.69 A6.99348 6.99348 0 0 1 5.2 153.11 a0.695908
								 0.695908 0 0 1 0.590143 0.373734 L6.46 153.2 L6.33 154.55 A5.69407 5.69407 -180 0 0 6.74 156.28
								 A2.93541 2.93541 -180 0 0 7.25 154.85 A20.0204 20.0204 -180 0 0 7.52 152.69 L7.52 149.47 L7.52 149.47
								 Z" class="st12"/>
				</g>
				<g id="shape34-52" v:mID="34" v:groupContext="shape" transform="translate(27.4702,-29.3813)">
					<title>Sheet.34</title>
					<path d="M0.28 146 A6.63101 6.76915 0 0 1 1.73 147.07 a0.804719 0.821484 -180 0 0 0.187607 0.836719 A50.3879
								 51.4376 -180 0 0 2.93 148.41 a0.553925 0.565465 0 0 1 0.821464 0.0985469 A13.3668 13.6453 -180 0
								 0 3.97 149.31 a0.542291 0.553589 -180 0 0 0.322393 -0.747469 A10.4477 10.6654 -180 0 0 3.1 147.21
								 A15.9418 16.2739 0 0 1 4.84 148.41 a0.781986 0.798277 0 0 1 0 1.12306 A2.7711 2.82883 -180 0 0 5.24
								 150.92 L4.65 152 A2.86752 2.92726 0 0 1 5.84 153.49 A1.52839 1.56023 -180 0 0 4.79 153.86 A10.6657
								 10.8879 -180 0 0 5.38 155.36 A1.0136 1.03471 -180 0 0 6.66 156.24 A1.15898 1.18312 -180 0 0 7.11
								 154.98 A27.8826 28.4635 -180 0 0 6.75 153.68 A2.21673 2.26292 0 0 1 7.02 152.7 A2.58084 2.63461
								 -180 0 0 8.62 153.4 A5.01259 5.11702 -180 0 0 9.17 151.65 a0.926209 0.945505 -180 0 0 -0.051 -0.0632188
								 A214.628 219.1 -180 0 0 5.61 148.08 A20.6805 21.1114 -180 0 0 1.11 145.37 A4.63914 4.73579 -180
								 0 0 0.1 145.12 a0.631487 0.644643 -180 0 0 0.176679 0.883203 Z" class="st10"/>
				</g>
				<g id="shape35-55" v:mID="35" v:groupContext="shape" transform="translate(15.2126,-35.8002)">
					<title>Sheet.35</title>
					<path d="M-0 152.01 A131.969 134.718 0 0 1 2.19 152.29 A22.8747 23.3513 -180 0 0 2.8 152.28 a0.57713 0.589153
								 0 0 1 0.708536 -0.377453 A1.81959 1.8575 0 0 1 5.34 152.92 a0.415714 0.424375 -180 0 0 0.347893
								 0.587563 L5.73 153.48 a0.168664 0.172178 0 0 1 -0.0473571 0.0316094 a0.733031 0.748303 -180 0 0
								 -0.39525 0.957578 A7.87587 8.03995 -180 0 0 6.22 155.96 A1.64671 1.68101 0 0 1 6.93 156.07 a0.669009
								 0.682947 -180 0 0 0.785036 0.133875 A2.42376 2.47425 -180 0 0 7.83 154.71 A1.87122 1.9102 -180 0
								 0 8.87 153.67 a0.563575 0.575316 -180 0 0 0.209464 -1.01708 A5.0625 5.16797 -180 0 0 7.4 151.37
								 L6.59 151.05 L7.4 150.91 A1.70496 1.74048 -180 0 0 8.45 150.46 A18.3165 18.6981 -180 0 0 4.57 150.16
								 A21.7627 22.2161 -180 0 0 3.53 150.21 L0.46 150.74 A9.73143 9.93417 -180 0 0 0.05 150.85 A2.77388
								 2.83167 0 0 1 -0 152.01 Z" class="st13"/>
				</g>
			</g>
			<g id="shape36-62" v:mID="36" v:groupContext="shape" transform="translate(20.9901,-35.488)">
				<title>Sheet.36</title>
				<path d="M21.37 112.64 A21.3084 21.7523 -180 0 0 6.27 119.04 A21.3058 21.7497 -180 0 0 0 134.46 A21.3025 21.7463
							 -180 0 0 6.27 149.88 A21.3099 21.7538 -180 0 0 21.37 156.27 A21.3099 21.7538 -180 0 0 36.48 149.88 A21.3025
							 21.7463 -180 0 0 42.75 134.46 A21.3058 21.7497 -180 0 0 36.48 119.04 A21.0928 21.0928 -180 0 0 21.37
							 112.64 ZM21.37 155.35 A20.402 20.827 0 0 1 6.91 149.22 A20.3946 20.8195 0 0 1 0.91 134.46 A20.3976 20.8225
							 0 0 1 6.91 119.7 A20.4009 20.8259 0 0 1 21.37 113.57 A20.4009 20.8259 0 0 1 35.84 119.7 A20.3976 20.8225
							 0 0 1 41.84 134.46 A20.3946 20.8195 0 0 1 35.84 149.22 A20.402 20.827 0 0 1 21.37 155.35 Z"
						class="st14"/>
			</g>
			<g id="shape37-64" v:mID="37" v:groupContext="shape" transform="translate(10.0816,-20.8138)">
				<title>Sheet.37</title>
				<path d="M0 64.03 L0 156.28 L132.66 156.28 L132.66 64.03 L0 64.03 Z" class="st15"/>
			</g>
			<g id="shape38-66" v:mID="38" v:groupContext="shape" transform="translate(75.7459,-43.6247)">
				<title>Sheet.38</title>
				<path d="M0.91 154.42 L56.71 154.42 a0.909881 0.928837 0 0 1 0.910714 0.929688 a0.912216 0.931221 0 0 1 -0.910714
							 0.929688 L0.91 156.28 a0.912216 0.931221 0 0 1 -0.910714 -0.929688 a0.909881 0.928837 0 0 1 0.910714
							 -0.929688 ZM0.91 142.25 L56.71 142.25 a0.912216 0.931221 0 0 1 0.910714 0.929688 a0.909881 0.928837
							 0 0 1 -0.910714 0.929688 L0.91 144.11 a0.909881 0.928837 0 0 1 -0.910714 -0.929688 a0.912216 0.931221
							 0 0 1 0.910714 -0.929688 ZM0.91 130.1 L56.71 130.1 a0.909881 0.928837 0 0 1 0.910714 0.929688 a0.921873
							 0.921873 0 0 1 -0.910714 0.929688 L0.91 131.95 a0.921873 0.921873 0 0 1 -0.910714 -0.929688 a0.919499
							 0.919499 0 0 1 0.910714 -0.929688 Z" class="st14"/>
			</g>
		</g>
	</g>
</svg>
